<svg width="20" height="26" viewBox="0 0 20 26" fill="none" xmlns="http://www.w3.org/2000/svg">
<path d="M17.4438 0H2.55666C1.16912 0 0.0405273 1.12859 0.0405273 2.51613V23.4839C0.0405273 24.8714 1.16912 26 2.55666 26H17.4438C18.8313 26 19.9599 24.8714 19.9599 23.4839V2.51613C19.9599 1.12859 18.8313 0 17.4438 0ZM5.70182 21.9637H4.12924C3.66601 21.9637 3.29053 21.5882 3.29053 21.125C3.29053 20.6618 3.66601 20.2863 4.12924 20.2863H5.70182C6.16505 20.2863 6.54053 20.6618 6.54053 21.125C6.54053 21.5882 6.16505 21.9637 5.70182 21.9637ZM5.70182 18.2944H4.12924C3.66601 18.2944 3.29053 17.9188 3.29053 17.4556C3.29053 16.9925 3.66601 16.6169 4.12924 16.6169H5.70182C6.16505 16.6169 6.54053 16.9925 6.54053 17.4556C6.54053 17.9188 6.16505 18.2944 5.70182 18.2944ZM5.70182 14.625H4.12924C3.66601 14.625 3.29053 14.2495 3.29053 13.7863C3.29053 13.3231 3.66601 12.9476 4.12924 12.9476H5.70182C6.16505 12.9476 6.54053 13.3231 6.54053 13.7863C6.54053 14.2495 6.16505 14.625 5.70182 14.625ZM10.7865 21.9637H9.21391C8.75068 21.9637 8.3752 21.5882 8.3752 21.125C8.3752 20.6618 8.75068 20.2863 9.21391 20.2863H10.7865C11.2497 20.2863 11.6252 20.6618 11.6252 21.125C11.6252 21.5882 11.2497 21.9637 10.7865 21.9637ZM10.7865 18.2944H9.21391C8.75068 18.2944 8.3752 17.9188 8.3752 17.4556C8.3752 16.9925 8.75068 16.6169 9.21391 16.6169H10.7865C11.2497 16.6169 11.6252 16.9925 11.6252 17.4556C11.6252 17.9188 11.2497 18.2944 10.7865 18.2944ZM10.7865 14.625H9.21391C8.75068 14.625 8.3752 14.2495 8.3752 13.7863C8.3752 13.3231 8.75068 12.9476 9.21391 12.9476H10.7865C11.2497 12.9476 11.6252 13.3231 11.6252 13.7863C11.6252 14.2495 11.2497 14.625 10.7865 14.625ZM16.7099 21.125C16.7099 21.5882 16.3344 21.9637 15.8712 21.9637H14.2986C13.8354 21.9637 13.4599 21.5882 13.4599 21.125V13.7863C13.4599 13.3231 13.8354 12.9476 14.2986 12.9476H15.8712C16.3344 12.9476 16.7099 13.3231 16.7099 13.7863V21.125ZM16.7099 7.75806C16.7099 8.91423 15.7693 9.85484 14.6131 9.85484H5.3873C4.23114 9.85484 3.29053 8.91423 3.29053 7.75806V5.1371C3.29053 3.98094 4.23114 3.04032 5.3873 3.04032H14.6131C15.7693 3.04032 16.7099 3.98094 16.7099 5.1371V7.75806Z" fill="#5A7DFC"/>
</svg>
