<svg width="22" height="22" viewBox="0 0 22 22" fill="none" xmlns="http://www.w3.org/2000/svg">
<path d="M2.29165 3.66602H19.7083C20.9739 3.66602 22 4.69202 22 5.95767V16.041C22 17.3067 20.9739 18.3327 19.7083 18.3327H2.29165C1.02601 18.3327 0 17.3067 0 16.041V5.95771C0 4.69202 1.02601 3.66602 2.29165 3.66602Z" fill="#2196F3"/>
<path d="M22 6.41602H0V10.0827H22V6.41602Z" fill="#455A64"/>
<path d="M6.875 13.7507H3.20835C2.95522 13.7507 2.75 13.5455 2.75 13.2923C2.75 13.0392 2.95522 12.834 3.20835 12.834H6.875C7.12813 12.834 7.33335 13.0392 7.33335 13.2923C7.33335 13.5455 7.12813 13.7507 6.875 13.7507Z" fill="#FAFAFA"/>
<path d="M9.625 15.5847H3.20835C2.95522 15.5847 2.75 15.3794 2.75 15.1263C2.75 14.8732 2.95522 14.668 3.20835 14.668H9.625C9.87813 14.668 10.0833 14.8732 10.0833 15.1263C10.0833 15.3794 9.87813 15.5847 9.625 15.5847Z" fill="#FAFAFA"/>
</svg>
