<svg width="612" height="272" viewBox="0 0 612 272" fill="none" xmlns="http://www.w3.org/2000/svg">
<g style="mix-blend-mode:soft-light" opacity="0.7">
<path d="M13.5988 270.289C2.91679 267.8 -7.08853 260.671 -16.9972 248.49C-27.2925 235.826 -37.5637 217.701 -48.3665 193.025C-57.9368 171.154 -65.3079 148.339 -70.2622 125.211C-75.0957 102.662 -77.6816 79.5579 -77.9716 56.5019C-78.2616 33.881 -76.3282 11.0667 -72.2439 -11.2401C-68.1838 -33.3535 -61.9728 -55.2012 -53.78 -76.1546C-45.5872 -97.1321 -35.3403 -117.385 -23.329 -136.38C-11.197 -155.57 2.84428 -173.623 18.3839 -190.057C34.2378 -206.805 51.8075 -222.031 70.6581 -235.323C89.992 -248.954 110.873 -260.747 132.72 -270.318C154.616 -279.937 177.43 -287.308 200.558 -292.262C223.106 -297.096 246.21 -299.682 269.266 -299.972C291.887 -300.262 314.701 -298.328 337.007 -294.244C359.121 -290.184 380.968 -283.973 401.921 -275.78C422.898 -267.587 443.151 -257.34 462.146 -245.328C481.335 -233.196 499.388 -219.155 515.822 -203.615C532.57 -187.761 547.796 -170.191 561.088 -151.34C574.718 -132.006 586.512 -111.125 596.082 -89.2776C613.193 -50.1743 615.682 -20.0613 603.671 2.84964C598.33 13.0484 590.21 21.7729 578.899 29.5308C568.701 36.5153 555.989 42.6539 540.038 48.2366C510.191 58.7012 472.683 65.9515 432.976 73.6368C376.062 84.6331 311.535 97.1278 254.403 122.141C191.979 149.475 145.795 188.313 108.673 219.513C89.1462 235.923 72.2773 250.109 56.8343 259.486C44.4606 267.003 33.7786 270.845 24.0391 271.232C20.4382 271.401 16.9822 271.063 13.5988 270.289ZM133.203 -269.327C47.409 -231.746 -18.6164 -163.013 -52.7166 -75.7679C-86.8169 11.4775 -84.9077 106.771 -47.3273 192.566C-36.5728 217.145 -26.35 235.198 -16.103 247.789C-6.33933 259.776 3.44848 266.761 13.8888 269.202C26.1417 272.054 39.6029 268.694 56.2785 258.568C71.6731 249.239 88.4937 235.077 107.997 218.716C145.166 187.467 191.447 148.581 253.992 121.175C311.269 96.0886 375.845 83.6181 432.807 72.5976C472.466 64.9365 509.925 57.6862 539.7 47.2457C572.712 35.6694 592.747 21.4104 602.728 2.39044C614.57 -20.1822 612.081 -50.0051 595.116 -88.7701C535.567 -224.713 399.722 -304.008 259.72 -298.522C217.258 -296.854 174.409 -287.38 133.203 -269.327Z" fill="white"/>
<path d="M18.6012 269.129C8.47507 266.881 -1.04691 260.139 -10.4964 248.514C-20.3325 236.43 -30.1203 219.053 -40.464 195.393C-49.7926 174.029 -57.067 151.722 -62.0697 129.101C-66.9998 106.988 -69.7791 84.3185 -70.3833 61.6975C-70.9875 39.4391 -69.4649 17.0356 -65.8881 -4.88452C-62.3355 -26.6838 -56.7045 -48.1689 -49.1643 -68.7839C-41.5999 -89.4715 -32.0296 -109.434 -20.7434 -128.091C-9.31216 -147.015 4.0041 -164.802 18.8429 -180.946C33.9959 -197.429 50.8647 -212.413 69.0387 -225.415C87.7201 -238.804 107.997 -250.308 129.312 -259.636C150.628 -268.941 173.007 -276.119 195.821 -280.904C218.031 -285.568 240.893 -288.058 263.756 -288.299C286.207 -288.541 308.876 -286.607 331.11 -282.571C353.151 -278.56 374.95 -272.445 395.879 -264.421C416.832 -256.374 437.084 -246.32 456.08 -234.574C475.269 -222.684 493.298 -208.957 509.683 -193.755C526.407 -178.239 541.536 -161.056 554.707 -142.689C568.241 -123.79 579.817 -103.392 589.122 -82.0762C605.676 -44.2054 608.045 -15.18 596.348 6.66763C591.176 16.3589 583.346 24.6001 572.422 31.8745C562.586 38.4482 550.309 44.1276 534.938 49.2753C506.131 58.9182 469.928 65.3951 431.598 72.2346C374.732 82.4092 310.278 93.9131 253.364 118.782C190.722 146.164 145.19 186.258 108.577 218.449C90.161 234.666 74.2346 248.659 59.6134 258.012C47.6021 265.673 37.2826 269.588 27.8573 269.951C24.6672 270.071 21.598 269.806 18.6012 269.129ZM129.699 -258.645C-40.4157 -184.33 -116.326 19.1624 -39.5215 194.982C-29.2261 218.57 -19.4625 235.85 -9.69884 247.861C-0.394379 259.293 8.93425 265.915 18.8187 268.114C30.4674 270.7 43.2278 267.22 59.0333 257.142C73.6063 247.837 89.4843 233.868 107.876 217.676C144.538 185.412 190.142 145.269 252.88 117.887C309.891 92.9705 374.418 81.4425 431.357 71.2679C469.638 64.4284 505.817 57.9515 534.552 48.3328C566.38 37.6748 585.714 24.2859 595.381 6.20847C606.885 -15.325 604.516 -44.0362 588.107 -81.5928C530.347 -213.814 392.616 -292.287 253.146 -286.825C211.433 -285.206 169.599 -276.094 129.699 -258.645Z" fill="white"/>
<path d="M23.628 268.041C14.0336 266.011 4.97078 259.655 -4.01951 248.586C-13.3723 237.082 -22.7493 220.455 -32.6096 197.762C-41.6965 176.905 -48.8743 155.106 -53.9253 132.968C-58.8796 111.29 -61.8764 89.0553 -62.7947 66.8935C-63.7131 44.9976 -62.6255 22.9808 -59.5563 1.47156C-56.5112 -20.0135 -51.4602 -41.1603 -44.5725 -61.4128C-37.6364 -81.8104 -28.767 -101.459 -18.1816 -119.826C-7.42712 -138.484 5.16411 -155.981 19.2537 -171.835C48.8105 -205.066 84.675 -231.022 125.832 -248.954C146.616 -258.017 168.56 -264.953 191.036 -269.593C212.907 -274.113 235.504 -276.505 258.197 -276.699C280.455 -276.892 303.004 -274.959 325.165 -270.947C347.133 -266.983 368.884 -260.99 389.789 -253.087C410.742 -245.184 430.994 -235.348 449.942 -223.844C469.155 -212.195 487.159 -198.758 503.473 -183.919C520.172 -168.742 535.229 -151.945 548.231 -134.037C561.643 -115.573 573.026 -95.6584 582.065 -74.8984C598.04 -38.236 600.287 -10.2981 588.953 10.4861C579.479 27.8868 560.653 40.5749 529.694 50.4112C501.926 59.2565 467.004 64.9601 430.028 71.002C373.234 80.2824 308.852 90.7954 252.228 115.471C189.586 142.756 144.779 184.131 108.77 217.362C91.3935 233.385 76.3855 247.233 62.5618 256.562C50.9372 264.392 40.9803 268.355 31.845 268.718C29.0174 268.839 26.2865 268.597 23.628 268.041ZM126.219 -247.987C-36.8872 -176.934 -107.722 22.86 -31.6912 197.375C-21.8551 219.972 -12.5506 236.527 -3.22199 247.958C5.6233 258.833 14.4927 265.093 23.8455 267.05C34.9142 269.371 47.0221 265.794 61.9576 255.74C75.733 246.484 90.6927 232.66 108.045 216.637C144.103 183.358 189.006 141.91 251.793 114.552C308.538 89.8287 372.968 79.3157 429.834 70.0112C466.786 63.9692 501.684 58.2657 529.356 49.4686C560.024 39.7049 578.682 27.186 588.01 10.0269C599.176 -10.4673 596.904 -38.1152 581.074 -74.4634C546.176 -154.579 476.308 -219.325 389.378 -252.12C343.484 -269.424 294.932 -277.134 247.346 -275.249C205.343 -273.605 164.113 -264.494 126.219 -247.987Z" fill="white"/>
<path d="M28.7277 267.027C19.6407 265.239 11.0613 259.245 2.50603 248.708C-6.41175 237.76 -15.3054 221.882 -24.7307 200.155C-33.5759 179.806 -40.657 158.514 -45.7563 136.884C-50.7832 115.616 -53.9491 93.8413 -55.2058 72.1387C-56.4383 50.6053 -55.7616 28.9752 -53.2241 7.85263C-50.6623 -13.3183 -46.2155 -34.1266 -39.9803 -53.9925C-33.6726 -74.1242 -25.4799 -93.4584 -15.6437 -111.487C-5.59006 -129.879 6.27615 -147.111 19.6407 -162.65C47.7958 -195.398 82.3311 -220.822 122.352 -238.199C142.605 -246.996 164.114 -253.739 186.251 -258.234C207.784 -262.608 230.115 -264.88 252.639 -265.025C274.728 -265.146 297.131 -263.236 319.22 -259.273C341.116 -255.358 362.818 -249.461 383.699 -241.727C404.652 -233.969 424.88 -224.326 443.803 -213.088C463.016 -201.681 480.997 -188.534 497.262 -174.058C513.913 -159.219 528.897 -142.833 541.778 -125.36C555.07 -107.306 566.26 -87.924 575.057 -67.6956C590.451 -32.2416 592.602 -5.3913 581.606 14.3537C572.447 30.8361 554.297 42.6783 524.498 51.6203C497.745 59.6682 464.08 64.6226 428.409 69.8669C371.712 78.2048 307.451 87.6544 251.165 112.112C188.571 139.301 144.562 182.005 109.205 216.299C92.8439 232.177 78.7059 245.88 65.6314 255.185C54.3935 263.16 44.7749 267.196 35.9538 267.559C33.4403 267.68 31.0478 267.486 28.7277 267.027ZM428.215 68.9486C463.838 63.7042 497.479 58.7498 524.16 50.7503C553.693 41.8808 571.673 30.1836 580.688 13.9429C591.515 -5.53629 589.364 -32.0966 574.09 -67.2364C519.81 -192.208 378.334 -268.988 240.024 -263.551C199.93 -261.98 160.078 -253.497 122.715 -237.256C44.9199 -203.494 -12.5261 -138.314 -39.062 -53.7025C-64.3653 26.921 -58.8067 119.314 -23.8606 199.768C-14.4595 221.398 -5.59005 237.204 3.25523 248.08C11.6655 258.423 20.0516 264.32 28.921 266.06C39.4339 268.139 50.9134 264.441 65.003 254.411C78.0051 245.155 92.1189 231.476 108.456 215.622C125.977 198.632 145.819 179.371 169.165 160.931C196.16 139.615 222.84 123.35 250.73 111.242C307.112 86.7602 371.446 77.2864 428.215 68.9486Z" fill="white"/>
<path d="M33.8511 266.084C25.2717 264.489 17.1514 258.858 9.03115 248.853C0.572544 238.436 -7.91023 223.283 -16.8764 202.547C-25.48 182.681 -32.4643 161.921 -37.612 140.799C-42.7113 119.966 -46.0706 98.6262 -47.6173 77.3828C-49.164 56.2119 -48.9224 34.9685 -46.8923 14.2568C-44.8381 -6.59998 -40.9713 -27.0459 -35.3886 -46.5734C-29.7093 -66.4151 -22.1932 -85.435 -13.0821 -103.15C-3.72926 -121.3 7.41193 -138.217 20.0515 -153.467C46.7807 -185.731 80.0109 -210.624 118.872 -227.444C138.593 -235.976 159.643 -242.501 181.466 -246.851C202.661 -251.056 224.726 -253.231 247.056 -253.328C268.952 -253.401 291.234 -251.467 313.227 -247.576C335.05 -243.709 356.704 -237.909 377.56 -230.32C398.514 -222.708 418.718 -213.258 437.616 -202.286C456.83 -191.12 474.786 -178.287 490.978 -164.149C507.605 -149.649 522.492 -133.65 535.229 -116.636C548.4 -99.0173 559.396 -80.1181 567.927 -60.4456C582.766 -26.2 584.796 -0.43721 574.163 18.2928C565.317 33.8809 547.844 44.9014 519.157 52.9734C493.419 60.2237 460.962 64.4531 426.596 68.9241C370.02 76.2711 305.904 84.6089 249.98 108.825C187.508 135.893 144.393 179.951 109.737 215.332C94.3422 231.065 81.0259 244.648 68.7005 253.928C57.8494 262.097 48.5932 266.181 40.0621 266.519C37.9596 266.592 35.8812 266.447 33.8511 266.084ZM426.475 67.9816C460.793 63.5105 493.226 59.3054 518.916 52.055C547.337 44.0313 564.641 33.1559 573.365 17.8094C583.854 -0.654724 581.799 -26.1275 567.081 -60.1073C514.517 -181.478 371.18 -257.412 233.522 -251.999C194.226 -250.452 155.365 -242.283 119.235 -226.623C44.0498 -194.069 -10.5445 -130.049 -34.4944 -46.3559C-57.0426 32.4067 -50.2999 122.963 -16.0063 202.161C-7.06437 222.824 1.37007 237.905 9.78034 248.249C17.7556 258.085 25.7067 263.619 34.0444 265.142C44.0256 266.979 54.8768 263.184 68.193 253.155C80.4701 243.923 93.738 230.364 109.109 214.655C126.243 197.158 145.65 177.316 168.681 158.393C195.338 136.497 221.825 119.99 249.642 107.931C305.662 83.6906 369.851 75.3527 426.475 67.9816Z" fill="white"/>
<path d="M39.0224 265.19C30.9264 263.813 23.2653 258.52 15.5559 249.022C7.53228 239.138 -0.515476 224.71 -9.04658 204.94C-17.4085 185.582 -24.2962 165.305 -29.4922 144.69C-34.6641 124.269 -38.2167 103.388 -40.0776 82.5793C-41.9385 61.7709 -42.1076 40.9142 -40.5851 20.6133C-39.0384 0.0707397 -35.7516 -20.0368 -30.8214 -39.2018C-25.7704 -58.7534 -18.9552 -77.4834 -10.545 -94.86C-1.89302 -112.744 8.52315 -129.396 20.4377 -144.355C45.7168 -176.112 77.6662 -200.473 115.392 -216.762C134.58 -225.051 155.195 -231.359 176.68 -235.54C197.537 -239.6 219.36 -241.679 241.497 -241.703C263.224 -241.727 285.361 -239.794 307.281 -235.951C329.056 -232.132 350.637 -226.429 371.47 -219.009C392.423 -211.542 412.603 -202.31 431.501 -191.555C450.739 -180.631 468.671 -168.088 484.791 -154.313C501.394 -140.126 516.184 -124.538 528.775 -107.983C541.826 -90.7998 552.653 -72.384 560.894 -53.2673C575.153 -20.2301 577.086 4.4451 566.791 22.1842C558.26 36.8781 541.439 47.1011 513.864 54.3514C489.092 60.8525 457.844 64.3568 424.759 68.0545C368.352 74.3623 304.405 81.5159 248.892 105.49C186.613 132.365 144.465 177.848 110.606 214.366C96.1301 229.978 83.6355 243.464 72.011 252.72C61.5707 261.058 52.6529 265.215 44.436 265.553C42.5992 265.601 40.8108 265.505 39.0224 265.19ZM115.73 -215.94C-45.4427 -146.361 -73.8636 52.4905 -8.22488 204.578C0.282055 224.299 8.28147 238.654 16.2567 248.466C23.8211 257.795 31.313 262.967 39.1674 264.32C40.8592 264.61 42.5992 264.731 44.3634 264.659C52.387 264.345 61.1356 260.236 71.431 252.019C83.0072 242.787 95.4776 229.326 109.93 213.737C126.654 195.708 145.601 175.262 168.27 155.856C194.54 133.38 220.786 116.632 248.506 104.644C304.139 80.6217 368.159 73.468 424.638 67.1361C457.699 63.4384 488.899 59.9341 513.622 53.4572C540.956 46.2794 557.607 36.2014 566.017 21.7008C576.144 4.22758 574.21 -20.1818 560.072 -52.9532C509.224 -170.771 364.002 -245.811 227.045 -240.446C188.522 -238.899 150.652 -231.021 115.73 -215.94Z" fill="white"/>
<path d="M44.2673 264.368C36.6545 263.16 29.4284 258.206 22.154 249.215C14.5655 239.862 6.95274 226.135 -1.16752 207.284C-9.28778 188.409 -16.0788 168.64 -21.3232 148.557C-26.5675 128.546 -30.3134 108.1 -32.4885 87.7751C-34.6636 67.305 -35.2678 46.8591 -34.2527 26.9691C-33.2135 6.74075 -30.5309 -13.0285 -26.2291 -31.8309C-21.8307 -51.1168 -15.6921 -69.5326 -8.0069 -86.5708C-0.0558167 -104.189 9.63532 -120.551 20.8248 -135.22C44.6781 -166.493 75.3224 -190.323 111.888 -206.056C130.545 -214.08 150.725 -220.194 171.871 -224.206C192.389 -228.121 213.947 -230.079 235.915 -230.054C257.472 -230.03 279.465 -228.097 301.312 -224.303C323.014 -220.532 344.548 -214.925 365.356 -207.651C386.285 -200.328 406.465 -191.289 425.339 -180.801C444.577 -170.119 462.485 -157.89 478.556 -144.452C495.135 -130.604 509.853 -115.427 522.299 -99.3072C535.253 -82.5589 545.862 -64.6507 553.862 -46.0657C567.565 -14.2369 569.377 9.37503 559.444 26.0991C551.227 39.9472 535.035 49.3726 508.548 55.8012C484.743 61.5531 454.679 64.3566 422.826 67.305C366.588 72.5252 302.859 78.4464 247.781 102.131C185.816 128.788 144.707 175.721 111.67 213.423C98.0881 228.939 86.3427 242.328 75.4191 251.584C65.3654 260.091 56.8101 264.344 48.8832 264.634C47.3123 264.707 45.7898 264.61 44.2673 264.368ZM422.729 66.4592C454.534 63.5107 484.574 60.7072 508.33 54.9795C534.6 48.6234 550.599 39.3188 558.719 25.6641C568.507 9.18169 566.67 -14.1885 553.088 -45.7515C522.396 -117.046 453.881 -175.774 365.09 -206.853C277.773 -237.401 185.623 -236.821 112.25 -205.258C-40.8988 -139.377 -65.2837 56.0912 -0.369991 206.97C7.70193 225.749 15.2905 239.403 22.8307 248.684C29.9843 257.505 37.0412 262.363 44.4364 263.523C53.4025 264.949 63.0937 260.937 74.9116 250.931C85.8111 241.699 97.5081 228.334 111.09 212.843C127.379 194.258 145.819 173.208 168.101 153.294C193.936 130.214 219.916 113.224 247.491 101.333C302.641 77.6246 366.443 71.7036 422.729 66.4592Z" fill="white"/>
<path d="M49.5594 263.644C42.43 262.629 35.6148 257.988 28.7513 249.481C21.5977 240.636 14.3958 227.61 6.71057 209.701C-25.7946 133.887 -36.1141 48.5752 -21.6378 -24.3871C-13.9043 -63.3938 0.52371 -97.5911 21.2352 -126.012C43.6384 -156.778 72.9777 -180.075 108.431 -195.277C126.533 -203.035 146.278 -208.932 167.11 -212.799C187.29 -216.545 208.581 -218.405 230.38 -218.333C251.744 -218.26 273.616 -216.327 295.391 -212.581C317.02 -208.859 338.505 -203.373 359.289 -196.244C380.218 -189.066 400.398 -180.245 419.225 -169.998C438.462 -159.557 456.346 -147.618 472.369 -134.568C488.899 -121.058 503.545 -106.267 515.846 -90.6066C528.679 -74.2934 539.095 -56.8685 546.829 -38.8394C559.952 -8.21892 561.692 14.3296 552.097 30.0869C544.17 43.1133 528.631 51.7653 503.182 57.3722C480.32 62.3991 451.391 64.5017 420.795 66.7493C364.775 70.8336 301.263 75.4497 246.693 98.844C185.115 125.235 145.117 173.667 112.975 212.577C100.239 227.996 89.2424 241.313 78.947 250.593C69.3042 259.293 61.1115 263.595 53.4746 263.885C52.1453 263.885 50.8403 263.813 49.5594 263.644ZM420.723 65.9034C451.295 63.68 480.175 61.5774 503.013 56.5505C528.244 50.992 543.614 42.4366 551.42 29.6277C560.87 14.112 559.13 -8.19475 546.104 -38.5735C516.474 -107.717 448.298 -164.922 359.048 -195.543C272.794 -225.148 179.218 -224.786 108.77 -194.576C22.2261 -157.479 -9.48161 -81.4712 -20.8403 -24.2421C-35.2924 48.5752 -24.9729 133.718 7.45977 209.387C22.2261 243.85 35.6632 260.84 49.6803 262.87C58.163 264.079 67.2983 259.994 78.4154 249.965C88.6623 240.733 99.6344 227.44 112.346 212.046C128.152 192.905 146.084 171.202 167.932 150.78C193.283 127.072 218.949 109.84 246.355 98.0948C301.046 74.628 364.63 69.9878 420.723 65.9034Z" fill="white"/>
<path d="M54.9003 262.966C48.2301 262.096 41.8499 257.794 35.373 249.747C28.6303 241.385 21.8393 229.059 14.5891 212.069C6.92797 194.161 0.354429 175.407 -5.01074 156.363C-10.4001 137.173 -14.5327 117.598 -17.3361 98.2151C-20.1637 78.4459 -21.6138 58.7734 -21.6138 39.7292C-21.6138 20.1292 -20.0671 1.03679 -17.0703 -17.0165C-10.6418 -55.5156 2.3845 -89.1088 21.6218 -116.902C42.5991 -147.16 70.6333 -169.926 104.951 -184.595C122.521 -192.111 141.831 -197.791 162.325 -201.513C182.166 -205.114 203.192 -206.878 224.822 -206.733C267.139 -206.491 311.51 -198.951 353.175 -184.934C374.104 -177.901 394.259 -169.273 413.062 -159.292C432.323 -149.093 450.159 -137.468 466.109 -124.756C482.616 -111.585 497.164 -97.2049 509.345 -81.9793C522.057 -66.1011 532.28 -49.1837 539.747 -31.6863C552.315 -2.25005 553.934 19.235 544.702 34.0257C537.089 46.2304 522.178 54.1574 497.744 58.9667C475.8 63.2928 448.008 64.7187 418.596 66.2412C362.793 69.1172 299.571 72.3798 245.533 95.4358C184.438 121.537 143.957 173.618 114.401 211.682C102.486 227.029 92.1907 240.273 82.5237 249.577C73.2918 258.447 65.4373 262.821 58.1146 263.111C57.0512 263.16 55.9637 263.111 54.9003 262.966ZM331.521 72.5248C361.174 68.4647 390.344 66.9662 418.572 65.492C447.96 63.9695 475.704 62.5435 497.599 58.2175C521.791 53.4323 536.557 45.6262 544.049 33.6148C553.136 19.0417 551.493 -2.22586 539.022 -31.3963C510.481 -98.365 442.643 -154.072 352.933 -184.233C266.438 -213.307 173.828 -213.186 105.241 -183.919C21.8876 -148.32 -6.87164 -73.4481 -16.3211 -16.9198C-28.139 53.7466 -16.6353 137.101 15.2416 211.755C29.2103 244.478 41.8499 260.501 54.9728 262.193C62.9964 263.232 71.6 259.027 82.0404 248.997C91.659 239.741 101.93 226.521 113.845 211.199C129.167 191.478 146.519 169.123 167.931 148.17C192.776 123.833 218.079 106.36 245.267 94.735C269.435 84.4395 297.638 77.165 331.521 72.5248Z" fill="white"/>
<path d="M60.2911 262.363C54.0801 261.662 48.0865 257.626 42.0205 250.062C35.6886 242.183 29.3084 230.534 22.4449 214.439C15.0255 196.99 8.52446 178.767 3.13512 160.255C-2.32672 141.452 -6.67686 122.336 -9.74612 103.436C-12.9121 84.0056 -14.7729 64.7198 -15.2563 46.1106C-15.7638 26.8006 -14.8213 8.07068 -12.4529 -9.62007C-7.32938 -47.6117 4.27099 -80.6248 22.0582 -107.741C41.5613 -137.491 68.2905 -159.75 101.497 -173.864C118.535 -181.114 137.409 -186.6 157.565 -190.153C177.068 -193.585 197.828 -195.252 219.264 -195.083C261.267 -194.721 305.445 -187.301 347.086 -173.598C368.015 -166.71 388.146 -158.276 406.949 -148.56C426.21 -138.603 444.046 -127.268 459.924 -114.919C476.406 -102.11 490.858 -88.1168 502.893 -73.3503C515.485 -57.9072 525.514 -41.4731 532.716 -24.5074C544.727 3.7205 546.25 24.1664 537.38 37.9903C530.058 49.3975 515.75 56.6236 492.356 60.6596C471.307 64.309 444.626 65.0823 416.398 65.904C360.861 67.5233 297.929 69.3358 244.471 92.0776C183.932 117.816 144.756 171.589 116.142 210.862C105.001 226.16 95.3822 239.356 86.3436 248.66C77.5225 257.723 70.0306 262.17 62.9978 262.436C62.0795 262.508 61.1853 262.484 60.2911 262.363ZM416.374 65.2515C444.577 64.4298 471.234 63.6564 492.236 60.0312C515.436 56.0194 529.598 48.9141 536.8 37.6761C545.525 24.0455 543.978 3.81715 532.088 -24.1932C504.537 -89.011 437.013 -143.219 346.868 -172.897C298.364 -188.872 248.362 -195.953 202.033 -194.116C165.468 -192.69 131.198 -185.706 101.762 -173.187C21.5749 -139.111 -4.23595 -65.375 -11.752 -9.52339C-20.9598 58.8954 -8.27191 140.437 23.0974 214.197C36.2928 245.204 48.1349 260.309 60.3878 261.687C67.9763 262.557 76.0724 258.279 85.8361 248.225C94.8505 238.969 104.445 225.773 115.586 210.499C130.401 190.174 147.173 167.143 168.078 145.633C192.366 120.644 217.283 102.929 244.205 91.4734C268.083 81.323 296.093 74.4352 329.83 70.4233C349.527 68.0791 369.006 66.919 388.122 66.1698C397.62 65.7832 407.045 65.5173 416.374 65.2515Z" fill="white"/>
<path d="M65.7271 261.856C54.0784 260.696 42.8164 246.389 30.2976 216.831C15.7247 182.392 4.4868 144.981 -2.18341 108.633C-9.40947 69.2151 -11.3187 31.9002 -7.88693 -2.24873C-4.09264 -39.7087 6.10602 -72.1417 22.419 -98.6054C40.4479 -127.848 65.8721 -149.575 97.9664 -163.157C114.473 -170.142 132.913 -175.41 152.73 -178.818C171.895 -182.105 192.413 -183.651 213.656 -183.434C255.345 -182.975 299.354 -175.652 340.922 -162.239C361.851 -155.496 381.958 -147.279 400.736 -137.805C419.998 -128.09 437.809 -117.069 453.639 -105.058C470.097 -92.5876 484.452 -78.9812 496.367 -64.6739C508.837 -49.6658 518.673 -33.7393 525.633 -17.3052C537.065 9.71426 538.515 29.1451 530.008 42.0507C522.999 52.7086 509.272 59.2097 486.869 62.5207C466.689 65.4933 441.096 65.6383 414.028 65.7833C358.781 66.0733 296.164 66.4117 243.358 88.7668C183.471 114.119 145.649 169.632 118.025 210.161C107.633 225.411 98.6673 238.582 90.2087 247.911C81.8226 257.143 74.669 261.663 67.9505 261.928C67.2013 261.953 66.4763 261.928 65.7271 261.856ZM328.065 68.3451C357.38 65.4208 387.492 65.2758 414.052 65.1308C441.12 64.9858 466.689 64.865 486.821 61.8682C509.03 58.5814 522.612 52.1769 529.524 41.6882C537.886 28.976 536.46 9.76263 525.102 -17.0394C498.566 -79.7062 431.405 -132.392 340.825 -161.611C291.789 -177.416 241.594 -184.425 195.506 -182.612C159.835 -181.211 126.605 -174.516 98.3048 -162.553C37.2578 -136.718 0.789179 -81.2529 -7.21024 -2.15205C-13.8805 63.8741 0.0158215 143.603 30.9018 216.59C43.3239 245.905 54.3926 260.092 65.7996 261.228C72.9531 261.928 80.5659 257.578 89.7253 247.476C98.1598 238.196 107.126 225.024 117.494 209.799C131.753 188.869 147.921 165.137 168.294 143.072C191.978 117.406 216.459 99.4489 243.116 88.1626C266.703 78.1814 294.496 71.7044 328.065 68.3451Z" fill="white"/>
<path d="M71.2618 261.419C60.459 260.525 49.9462 247.112 38.1766 219.199C23.942 185.388 12.6075 148.967 5.40558 113.851C-2.5455 74.9656 -5.46976 38.3757 -3.27052 5.14508C-0.829614 -31.8074 7.96733 -63.6362 22.8545 -89.4473C39.4092 -118.183 63.5283 -139.354 94.5351 -152.428C110.51 -159.171 128.49 -164.222 147.993 -167.461C166.844 -170.602 187.072 -172.053 208.146 -171.763C249.521 -171.207 293.336 -163.981 334.88 -150.882C377.415 -137.469 416.349 -118.207 447.476 -95.1992C463.886 -83.067 478.169 -69.8715 489.938 -55.9992C502.288 -41.4261 511.931 -26.0071 518.625 -10.1048C529.5 15.7305 530.854 34.1222 522.71 46.1093C515.991 56.0181 502.868 61.8425 481.407 64.4526C462.098 66.7969 437.568 66.2894 411.588 65.7819C356.655 64.6943 294.376 63.4618 242.246 85.4302C183.085 110.371 146.688 167.673 120.104 209.507C110.437 224.733 102.075 237.88 94.1726 247.233C86.2215 256.658 79.4304 261.226 72.9777 261.492C72.4219 261.492 71.8418 261.468 71.2618 261.419ZM411.612 65.1777C437.568 65.6852 462.073 66.1927 481.335 63.8484C502.602 61.2867 515.58 55.5347 522.202 45.771C530.201 33.953 528.848 15.7547 518.069 -9.86307C492.573 -70.379 425.726 -121.566 334.711 -150.302C285.724 -165.769 234.803 -172.608 188.546 -170.796C153.673 -169.418 121.458 -163.135 94.7767 -151.897C36.2191 -127.221 2.52966 -72.9166 -2.66634 5.16924C-6.87147 68.6095 8.209 146.526 38.7325 218.957C50.3812 246.629 60.749 259.921 71.3102 260.791C78.0529 261.347 85.1823 256.9 93.7375 246.798C101.616 237.493 109.954 224.346 119.621 209.145C133.324 187.587 148.863 163.129 168.657 140.484C191.712 114.117 215.711 95.919 242.029 84.826C265.326 75.0139 292.853 68.972 326.228 66.3135C332.778 65.806 339.375 65.4193 345.973 65.1777C368.642 64.3318 391.166 64.7668 411.612 65.1777Z" fill="white"/>
<path d="M76.8202 261.081C66.8149 260.404 57.0512 247.861 46.0309 221.615C32.0863 188.336 20.6551 152.882 12.9698 119.095C4.24539 80.6929 0.330262 44.8522 1.29696 12.5641C2.38449 -23.8808 9.77973 -55.1055 23.241 -80.2883C30.5637 -93.9672 39.7715 -106.003 50.6469 -116.032C62.1264 -126.642 75.7085 -135.27 91.0307 -141.698C106.474 -148.175 124.019 -153.033 143.184 -156.127C161.696 -159.099 181.659 -160.453 202.563 -160.114C243.624 -159.462 287.27 -152.332 328.766 -139.523C371.349 -126.376 410.234 -107.646 441.241 -85.3393C457.627 -73.5455 471.837 -60.7607 483.437 -47.3235C495.642 -33.2095 505.116 -18.2497 511.544 -2.90321C521.864 21.7237 523.12 39.1003 515.363 50.2174C508.934 59.4253 496.391 64.573 475.873 66.4823C457.385 68.1982 433.894 67.1106 409.026 65.9506C354.432 63.413 292.539 60.537 241.135 82.0946C182.77 106.552 147.872 165.715 122.376 208.903C113.386 224.104 105.652 237.251 98.2809 246.628C90.7407 256.223 84.3121 260.863 78.1736 261.105C77.7386 261.105 77.2794 261.105 76.8202 261.081ZM324.343 64.4522C353.272 62.8088 382.901 64.1864 409.05 65.3947C433.894 66.5548 457.385 67.6423 475.825 65.9264C496.174 64.0413 508.596 58.942 514.903 49.9032C522.54 38.9794 521.284 21.772 511.037 -2.68573C486.555 -61.0749 420.046 -110.764 328.597 -138.992C242.391 -165.6 151.449 -166.446 91.2482 -141.191C35.1072 -117.627 4.19705 -64.4825 1.87698 12.5641C0.0402515 73.2009 16.3291 149.305 46.5384 221.373C57.4621 247.402 67.0807 259.848 76.8444 260.501C83.2004 260.936 89.8706 256.416 97.8459 246.266C105.193 236.913 112.926 223.79 121.892 208.613C135.015 186.378 149.878 161.196 169.091 137.97C191.471 110.902 214.961 92.4626 240.917 81.5871C263.9 71.9442 291.185 66.3373 324.343 64.4522Z" fill="white"/>
<path d="M82.452 260.815C73.2443 260.332 64.1815 248.635 53.8861 223.984C40.159 191.067 28.6312 156.604 20.5592 124.292C11.0614 86.3726 6.13128 51.2569 5.91378 19.9356C5.64793 -15.9776 11.6173 -46.6223 23.6768 -71.1525C30.2746 -84.5656 38.7815 -96.3353 49.0043 -106.099C59.8072 -116.443 72.7851 -124.805 87.5755 -130.968C116.891 -143.196 154.737 -149.238 197.03 -148.441C237.776 -147.667 281.229 -140.659 322.701 -128.14C365.332 -115.283 404.193 -97.0603 435.055 -75.4544C451.416 -63.9989 465.53 -51.625 477.01 -38.6228C489.093 -24.9439 498.374 -10.4916 504.536 4.32321C514.3 27.7659 515.46 44.1275 508.089 54.3746C501.95 62.8816 489.963 67.4251 470.364 68.6335C452.697 69.7452 430.197 68.0535 406.392 66.2892C379.929 64.3075 350.131 62.084 320.55 63.2441C292.54 64.3558 264.699 68.4885 240.072 78.7598C182.602 102.734 149.227 163.806 124.866 208.395C116.552 223.597 109.375 236.744 102.535 246.145C95.43 255.909 89.3639 260.622 83.5154 260.839C83.1529 260.839 82.8146 260.815 82.452 260.815ZM322.411 62.5916C351.121 61.6249 380.485 63.8241 406.417 65.7576C430.221 67.546 452.697 69.2135 470.315 68.1018C489.746 66.8934 501.612 62.4224 507.654 54.0362C514.928 43.9583 513.744 27.7417 504.053 4.46825C480.925 -50.9725 413.087 -100.395 322.531 -127.681C236.06 -153.758 146.109 -154.845 87.7689 -130.508C33.223 -107.767 5.84127 -57.1594 6.42129 19.9356C7.0013 98.6498 36.7031 181.448 54.3695 223.79C64.5681 248.224 73.4859 259.824 82.4762 260.308C82.8146 260.332 83.1529 260.332 83.4671 260.308C89.1464 260.09 95.0916 255.45 102.076 245.831C108.891 236.454 116.069 223.331 124.358 208.13C148.767 163.468 182.191 102.299 239.806 78.2764C261.944 69.0443 288.286 63.9449 320.308 62.6882C321.033 62.6399 321.734 62.6158 322.411 62.5916Z" fill="white"/>
<path d="M88.1547 260.624C79.7202 260.31 71.3341 249.434 61.7638 226.354C47.9642 193.075 36.6538 160.473 28.1469 129.49C17.8516 91.9815 11.9064 57.615 10.5047 27.3329C8.86129 -8.07285 13.4289 -38.1133 24.0626 -61.991C29.9353 -75.1624 37.7656 -86.6421 47.3117 -96.14C57.462 -106.218 69.8357 -114.338 84.0945 -120.235C112.37 -131.957 149.516 -137.684 191.47 -136.766C231.903 -135.896 275.162 -128.984 316.585 -116.779C359.289 -104.188 398.078 -86.4971 428.819 -65.592C445.132 -54.499 459.173 -42.4877 470.508 -29.9446C482.471 -16.7007 491.558 -2.75597 497.479 11.5272C506.711 33.7856 507.774 49.1563 500.765 58.5575C495.038 66.2429 483.969 70.158 465.94 70.8589C465.553 70.8831 465.143 70.8831 464.756 70.9072C447.887 71.4389 426.378 69.1913 403.588 66.7987C352.401 61.4576 288.72 54.7874 238.911 75.4266C182.408 98.8451 150.652 161.899 127.451 207.938C119.79 223.164 113.168 236.311 106.812 245.761C100.166 255.694 94.4382 260.455 88.9038 260.672C88.6863 260.648 88.4205 260.648 88.1547 260.624ZM320.404 60.8293C348.873 60.5634 377.971 63.6086 403.661 66.2912C426.426 68.6838 447.911 70.9314 464.756 70.3997C483.316 69.8438 494.627 65.9529 500.403 58.2434C507.315 48.9871 506.203 33.7614 497.068 11.6722C474.955 -41.6902 407.431 -89.5422 316.489 -116.344C229.752 -141.889 140.791 -143.219 84.312 -119.824C32.1587 -98.1943 7.48374 -48.6988 11.0122 27.3087C14.2506 97.3951 40.6656 174.152 62.2472 226.185C67.129 237.979 71.6483 246.413 76.0226 252.02C80.1794 257.337 84.167 259.995 88.2272 260.14C93.834 260.358 99.6584 255.669 106.522 245.446C112.83 236.021 119.451 222.898 127.113 207.696C150.337 161.584 182.166 98.4584 238.814 74.9674C261 65.7595 287.705 61.1435 320.404 60.8293Z" fill="white"/>
<path d="M93.9321 260.527C86.2227 260.358 78.4891 250.256 69.6196 228.747C55.53 194.573 44.4372 163.808 35.7127 134.71C24.5716 97.5884 17.6355 63.9469 15.0979 34.7282C13.6479 17.9799 13.5995 2.34343 15.0013 -11.7463C16.4996 -26.9478 19.6897 -40.7717 24.4991 -52.8314C29.6467 -65.737 36.7761 -76.9508 45.6939 -86.207C55.1675 -96.0191 66.9371 -103.874 80.6642 -109.529C107.901 -120.743 144.321 -126.156 185.962 -125.141C226.08 -124.174 269.17 -117.359 310.545 -105.445C353.297 -93.1432 392.062 -75.9599 422.658 -55.7557C438.946 -45.0011 452.891 -33.4006 464.105 -21.2926C475.947 -8.50787 484.816 4.95355 490.495 18.705C499.172 39.7792 500.162 54.1832 493.541 62.7627C488.538 69.2397 479.233 72.599 464.443 73.179C462.775 73.2515 461.035 73.2757 459.223 73.2757C443.127 73.2273 422.561 70.4239 400.786 67.4754C350.01 60.5634 286.812 51.9356 237.897 72.0914C182.457 94.9299 152.345 160.038 130.352 207.576C123.296 222.825 117.205 235.997 111.357 245.471C105.146 255.548 99.7806 260.358 94.5363 260.575C94.2946 260.527 94.1254 260.527 93.9321 260.527ZM318.351 59.1376C346.554 59.6209 375.386 63.5602 400.81 67.0162C422.561 69.9888 443.127 72.7923 459.174 72.8165C476.865 72.8648 487.668 69.578 493.154 62.4727C499.679 54.014 498.664 39.755 490.06 18.8258C478.968 -8.12119 456.202 -33.1106 422.392 -55.4174C391.844 -75.5974 353.104 -92.7565 310.4 -105.058C224.702 -129.709 134.582 -131.328 80.8092 -109.166C31.0001 -88.648 9.0319 -40.2642 15.5329 34.6557C20.0281 86.4471 38.3712 151.7 70.0305 228.577C74.5498 239.574 78.7308 247.428 82.7667 252.648C86.6094 257.603 90.2586 260.044 93.9563 260.116C99.2006 260.237 104.614 255.5 110.97 245.205C116.819 235.755 122.885 222.584 129.942 207.358C151.958 159.748 182.095 94.5674 237.704 71.6564C255.467 64.3336 276.227 60.2734 300.805 59.3067C306.436 59.0892 312.285 59.0409 318.351 59.1376Z" fill="white"/>
<path d="M99.7798 260.526C92.7712 260.477 85.6902 251.149 77.4974 231.138C53.3542 172.144 27.6158 103.556 19.6889 42.0979C17.5622 25.6155 16.8372 10.2932 17.538 -3.45821C18.3114 -18.3939 20.7765 -31.9278 24.8849 -43.6974C29.3076 -56.3371 35.7361 -67.2851 44.0014 -76.2755C52.8225 -85.8459 63.9637 -93.4104 77.1591 -98.824C103.357 -109.554 139.052 -114.605 180.354 -113.494C220.182 -112.406 263.079 -105.712 304.405 -94.1113C347.206 -82.0999 385.946 -65.4242 416.397 -45.9209C432.638 -35.5046 446.51 -24.3149 457.579 -12.6661C469.3 -0.316399 477.976 12.6375 483.389 25.8572C491.534 45.7473 492.452 59.1845 486.193 66.9906C480.9 73.5884 470.532 76.3677 453.543 75.7152C438.196 75.1352 418.548 71.8 397.764 68.2715C347.399 59.7162 284.733 49.0582 236.737 68.7066C182.408 90.9408 154.012 158.151 133.276 207.236C126.823 222.51 121.24 235.705 115.875 245.227C110.099 255.45 105.097 260.308 100.142 260.501C100.021 260.526 99.9006 260.526 99.7798 260.526ZM316.199 57.5411C344.137 58.822 372.654 63.6555 397.813 67.9332C418.597 71.4617 438.22 74.7968 453.543 75.3768C470.412 76.0052 480.683 73.2984 485.903 66.7973C492.066 59.112 491.123 45.7956 483.051 26.0264C472.466 0.142784 449.966 -23.9524 416.204 -45.5825C385.777 -65.0859 347.085 -81.7132 304.309 -93.7246C218.345 -117.844 129.24 -119.705 77.2799 -98.4615C29.7909 -79.0306 10.5295 -31.7586 20.0514 42.0496C27.9784 103.46 53.7167 172.024 77.8358 230.993C82.0167 241.191 85.8352 248.514 89.557 253.324C93.0854 257.891 96.4205 260.139 99.7798 260.163C104.71 260.187 109.713 255.402 115.537 245.058C120.902 235.56 126.485 222.365 132.913 207.115C142.967 183.31 155.486 153.68 172.016 127.869C181.079 113.731 190.311 102.203 200.268 92.6326C211.554 81.7813 223.783 73.6126 236.567 68.3924C258.004 59.6195 284.032 56.0668 316.199 57.5411Z" fill="white"/>
<path d="M105.725 260.623C99.3687 260.695 92.916 252.067 85.3758 233.531C84.3366 230.969 83.2732 228.383 82.2098 225.725C71.4312 199.237 59.2266 169.22 48.4479 138.117C35.9534 102.107 27.8089 71.6071 23.5555 44.9501C21.0662 29.2653 19.9062 14.7405 20.172 1.73828C20.4379 -12.424 22.3471 -25.2087 25.8755 -36.3017C29.6456 -48.2405 35.3975 -58.5601 42.9619 -66.9947C51.0097 -75.985 61.3533 -83.0662 73.7271 -88.0931C98.8854 -98.316 133.856 -103.053 174.844 -101.82C214.357 -100.636 257.061 -94.0383 298.363 -82.7278C341.212 -71.0065 379.904 -54.8625 410.234 -36.0358C426.451 -25.9821 440.226 -15.1791 451.15 -3.96529C462.75 7.92522 471.233 20.3957 476.381 33.0838C483.969 51.7896 484.815 64.3085 478.967 71.3413C475.197 75.8606 468.696 78.2532 458.835 78.6399C455.573 78.7607 451.947 78.6882 447.936 78.3741C433.314 77.2623 414.56 73.4197 394.719 69.3353C344.813 59.0641 282.679 46.3035 235.673 65.3718C182.529 86.9536 155.921 156.363 136.466 207.067C130.593 222.389 125.518 235.609 120.588 245.18C115.247 255.523 110.582 260.453 105.942 260.623C105.846 260.623 105.773 260.623 105.725 260.623ZM394.743 69.0212C414.585 73.1055 433.314 76.9482 447.912 78.0599C463.983 79.2683 473.747 77.069 478.677 71.1479C484.453 64.2118 483.583 51.8138 476.042 33.2288C465.965 8.40858 443.755 -14.7924 410.017 -35.7458C379.711 -54.5483 341.067 -70.6923 298.243 -82.3895C245.775 -96.7451 192.655 -103.15 147.8 -101.385C118.896 -100.249 93.4235 -95.73 73.7996 -87.7547C28.8965 -69.5081 12.5593 -26.1271 23.8696 44.9259C33.4158 104.959 60.6525 171.879 82.4998 225.628C83.5632 228.262 84.6266 230.872 85.6658 233.434C89.5084 242.884 93.0127 249.651 96.3961 254.097C99.6104 258.327 102.655 260.381 105.701 260.333C105.773 260.333 105.821 260.333 105.894 260.333C110.413 260.164 115.005 255.282 120.274 245.059C125.204 235.512 130.255 222.293 136.127 206.995C145.529 182.464 157.25 151.916 173.031 125.429C181.683 110.904 190.577 99.1099 200.195 89.3945C211.119 78.3741 223.009 70.2054 235.504 65.1302C282.606 45.941 344.789 58.7257 394.743 69.0212Z" fill="white"/>
<path d="M111.718 260.793C106.014 260.938 100.142 253.035 93.2541 235.9C89.6048 226.813 85.6171 217.194 81.3878 207.02C64.7123 166.756 45.8134 121.152 33.8988 77.1908C27.3736 53.144 23.7243 32.5289 22.7335 14.1373C21.5976 -6.67107 24.0627 -24.4102 30.032 -38.6208C33.7296 -47.3937 38.829 -55.0548 45.2575 -61.3868C52.0244 -68.0571 60.4105 -73.4465 70.2225 -77.3858C94.3658 -87.1012 128.611 -91.5239 169.261 -90.1947C188.667 -89.5422 209.089 -87.6087 229.969 -84.4186C250.874 -81.2285 271.827 -76.8541 292.249 -71.3922C335.17 -59.9609 373.814 -44.3244 403.999 -26.1986C420.191 -16.4832 433.87 -6.09108 444.673 4.68772C456.128 16.1432 464.442 28.1063 469.324 40.2626C476.38 57.8084 477.154 69.3847 471.692 75.7166C468.26 79.6801 462.581 81.4685 455.041 81.7585C439.96 82.3386 417.557 76.9008 391.504 70.5447C342.058 58.5092 280.528 43.5011 234.561 62.0135C211.626 71.2456 191.93 91.2081 174.408 123.037C159.425 150.25 148.525 181.692 139.801 206.971C134.484 222.342 129.892 235.61 125.421 245.205C120.539 255.669 116.213 260.624 111.863 260.793C111.766 260.793 111.742 260.793 111.718 260.793ZM391.553 70.2789C411.298 75.0883 428.336 79.2451 442.232 80.8402C457.53 82.6044 466.81 80.9127 471.475 75.5233C476.864 69.288 476.066 57.7842 469.058 40.3593C459.487 16.5783 437.543 -5.72855 403.854 -25.9569C373.693 -44.0585 335.073 -59.695 292.176 -71.1264C205.633 -94.2065 118.557 -96.5508 70.3192 -77.12C51.2994 -69.4346 37.8139 -56.4566 30.2737 -38.5C19.0358 -11.7705 20.3167 26.052 34.1647 77.1184C46.0792 121.055 64.9781 166.66 81.6295 206.899C85.8346 217.074 89.8223 226.692 93.4957 235.779C97 244.504 100.214 250.715 103.284 254.799C106.208 258.69 108.963 260.551 111.694 260.479C111.718 260.479 111.742 260.479 111.766 260.479C116.02 260.31 120.249 255.404 125.083 245.036C129.554 235.441 134.145 222.197 139.462 206.826C148.211 181.547 159.086 150.081 174.094 122.868C182.335 107.932 190.842 95.8725 200.122 86.0121C210.66 74.8224 222.187 66.6296 234.392 61.7235C280.479 43.2352 342.058 58.2434 391.553 70.2789Z" fill="white"/>
<path d="M13.5988 270.289C2.91679 267.8 -7.08853 260.671 -16.9972 248.49C-27.2925 235.826 -37.5637 217.701 -48.3665 193.025C-57.9368 171.154 -65.3079 148.339 -70.2622 125.211C-75.0957 102.662 -77.6816 79.5579 -77.9716 56.5019C-78.2616 33.881 -76.3282 11.0667 -72.2439 -11.2401C-68.1838 -33.3535 -61.9728 -55.2012 -53.78 -76.1546C-45.5872 -97.1321 -35.3403 -117.385 -23.329 -136.38C-11.197 -155.57 2.84428 -173.623 18.3839 -190.057C34.2378 -206.805 51.8075 -222.031 70.6581 -235.323C89.992 -248.954 110.873 -260.747 132.72 -270.318C154.616 -279.937 177.43 -287.308 200.558 -292.262C223.106 -297.096 246.21 -299.682 269.266 -299.972C291.887 -300.262 314.701 -298.328 337.007 -294.244C359.121 -290.184 380.968 -283.973 401.921 -275.78C422.898 -267.587 443.151 -257.34 462.146 -245.328C481.335 -233.196 499.388 -219.155 515.822 -203.615C532.57 -187.761 547.796 -170.191 561.088 -151.34C574.718 -132.006 586.512 -111.125 596.082 -89.2776C613.193 -50.1743 615.682 -20.0613 603.671 2.84964C598.33 13.0484 590.21 21.7729 578.899 29.5308C568.701 36.5153 555.989 42.6539 540.038 48.2366C510.191 58.7012 472.683 65.9515 432.976 73.6368C376.062 84.6331 311.535 97.1278 254.403 122.141C191.979 149.475 145.795 188.313 108.673 219.513C89.1462 235.923 72.2773 250.109 56.8343 259.486C44.4606 267.003 33.7786 270.845 24.0391 271.232C20.4382 271.401 16.9822 271.063 13.5988 270.289ZM133.203 -269.327C47.409 -231.746 -18.6164 -163.013 -52.7166 -75.7679C-86.8169 11.4775 -84.9077 106.771 -47.3273 192.566C-36.5728 217.145 -26.35 235.198 -16.103 247.789C-6.33933 259.776 3.44848 266.761 13.8888 269.202C26.1417 272.054 39.6029 268.694 56.2785 258.568C71.6731 249.239 88.4937 235.077 107.997 218.716C145.166 187.467 191.447 148.581 253.992 121.175C311.269 96.0886 375.845 83.6181 432.807 72.5976C472.466 64.9365 509.925 57.6862 539.7 47.2457C572.712 35.6694 592.747 21.4104 602.728 2.39044C614.57 -20.1822 612.081 -50.0051 595.116 -88.7701C535.567 -224.713 399.722 -304.008 259.72 -298.522C217.258 -296.854 174.409 -287.38 133.203 -269.327Z" fill="white"/>
<path d="M18.6012 269.129C8.47507 266.881 -1.04691 260.139 -10.4964 248.514C-20.3325 236.43 -30.1203 219.053 -40.464 195.393C-49.7926 174.029 -57.067 151.722 -62.0697 129.101C-66.9998 106.988 -69.7791 84.3185 -70.3833 61.6975C-70.9875 39.4391 -69.4649 17.0356 -65.8881 -4.88452C-62.3355 -26.6838 -56.7045 -48.1689 -49.1643 -68.7839C-41.5999 -89.4715 -32.0296 -109.434 -20.7434 -128.091C-9.31216 -147.015 4.0041 -164.802 18.8429 -180.946C33.9959 -197.429 50.8647 -212.413 69.0387 -225.415C87.7201 -238.804 107.997 -250.308 129.312 -259.636C150.628 -268.941 173.007 -276.119 195.821 -280.904C218.031 -285.568 240.893 -288.058 263.756 -288.299C286.207 -288.541 308.876 -286.607 331.11 -282.571C353.151 -278.56 374.95 -272.445 395.879 -264.421C416.832 -256.374 437.084 -246.32 456.08 -234.574C475.269 -222.684 493.298 -208.957 509.683 -193.755C526.407 -178.239 541.536 -161.056 554.707 -142.689C568.241 -123.79 579.817 -103.392 589.122 -82.0762C605.676 -44.2054 608.045 -15.18 596.348 6.66763C591.176 16.3589 583.346 24.6001 572.422 31.8745C562.586 38.4482 550.309 44.1276 534.938 49.2753C506.131 58.9182 469.928 65.3951 431.598 72.2346C374.732 82.4092 310.278 93.9131 253.364 118.782C190.722 146.164 145.19 186.258 108.577 218.449C90.161 234.666 74.2346 248.659 59.6134 258.012C47.6021 265.673 37.2826 269.588 27.8573 269.951C24.6672 270.071 21.598 269.806 18.6012 269.129ZM129.699 -258.645C-40.4157 -184.33 -116.326 19.1624 -39.5215 194.982C-29.2261 218.57 -19.4625 235.85 -9.69884 247.861C-0.394379 259.293 8.93425 265.915 18.8187 268.114C30.4674 270.7 43.2278 267.22 59.0333 257.142C73.6063 247.837 89.4843 233.868 107.876 217.676C144.538 185.412 190.142 145.269 252.88 117.887C309.891 92.9705 374.418 81.4425 431.357 71.2679C469.638 64.4284 505.817 57.9515 534.552 48.3328C566.38 37.6748 585.714 24.2859 595.381 6.20847C606.885 -15.325 604.516 -44.0362 588.107 -81.5928C530.347 -213.814 392.616 -292.287 253.146 -286.825C211.433 -285.206 169.599 -276.094 129.699 -258.645Z" fill="white"/>
<path d="M23.628 268.041C14.0336 266.011 4.97078 259.655 -4.01951 248.586C-13.3723 237.082 -22.7493 220.455 -32.6096 197.762C-41.6965 176.905 -48.8743 155.106 -53.9253 132.968C-58.8796 111.29 -61.8764 89.0553 -62.7947 66.8935C-63.7131 44.9976 -62.6255 22.9808 -59.5563 1.47156C-56.5112 -20.0135 -51.4602 -41.1603 -44.5725 -61.4128C-37.6364 -81.8104 -28.767 -101.459 -18.1816 -119.826C-7.42712 -138.484 5.16411 -155.981 19.2537 -171.835C48.8105 -205.066 84.675 -231.022 125.832 -248.954C146.616 -258.017 168.56 -264.953 191.036 -269.593C212.907 -274.113 235.504 -276.505 258.197 -276.699C280.455 -276.892 303.004 -274.959 325.165 -270.947C347.133 -266.983 368.884 -260.99 389.789 -253.087C410.742 -245.184 430.994 -235.348 449.942 -223.844C469.155 -212.195 487.159 -198.758 503.473 -183.919C520.172 -168.742 535.229 -151.945 548.231 -134.037C561.643 -115.573 573.026 -95.6584 582.065 -74.8984C598.04 -38.236 600.287 -10.2981 588.953 10.4861C579.479 27.8868 560.653 40.5749 529.694 50.4112C501.926 59.2565 467.004 64.9601 430.028 71.002C373.234 80.2824 308.852 90.7954 252.228 115.471C189.586 142.756 144.779 184.131 108.77 217.362C91.3935 233.385 76.3855 247.233 62.5618 256.562C50.9372 264.392 40.9803 268.355 31.845 268.718C29.0174 268.839 26.2865 268.597 23.628 268.041ZM126.219 -247.987C-36.8872 -176.934 -107.722 22.86 -31.6912 197.375C-21.8551 219.972 -12.5506 236.527 -3.22199 247.958C5.6233 258.833 14.4927 265.093 23.8455 267.05C34.9142 269.371 47.0221 265.794 61.9576 255.74C75.733 246.484 90.6927 232.66 108.045 216.637C144.103 183.358 189.006 141.91 251.793 114.552C308.538 89.8287 372.968 79.3157 429.834 70.0112C466.786 63.9692 501.684 58.2657 529.356 49.4686C560.024 39.7049 578.682 27.186 588.01 10.0269C599.176 -10.4673 596.904 -38.1152 581.074 -74.4634C546.176 -154.579 476.308 -219.325 389.378 -252.12C343.484 -269.424 294.932 -277.134 247.346 -275.249C205.343 -273.605 164.113 -264.494 126.219 -247.987Z" fill="white"/>
<path d="M28.7277 267.027C19.6407 265.239 11.0613 259.245 2.50603 248.708C-6.41175 237.76 -15.3054 221.882 -24.7307 200.155C-33.5759 179.806 -40.657 158.514 -45.7563 136.884C-50.7832 115.616 -53.9491 93.8413 -55.2058 72.1387C-56.4383 50.6053 -55.7616 28.9752 -53.2241 7.85263C-50.6623 -13.3183 -46.2155 -34.1266 -39.9803 -53.9925C-33.6726 -74.1242 -25.4799 -93.4584 -15.6437 -111.487C-5.59006 -129.879 6.27615 -147.111 19.6407 -162.65C47.7958 -195.398 82.3311 -220.822 122.352 -238.199C142.605 -246.996 164.114 -253.739 186.251 -258.234C207.784 -262.608 230.115 -264.88 252.639 -265.025C274.728 -265.146 297.131 -263.236 319.22 -259.273C341.116 -255.358 362.818 -249.461 383.699 -241.727C404.652 -233.969 424.88 -224.326 443.803 -213.088C463.016 -201.681 480.997 -188.534 497.262 -174.058C513.913 -159.219 528.897 -142.833 541.778 -125.36C555.07 -107.306 566.26 -87.924 575.057 -67.6956C590.451 -32.2416 592.602 -5.3913 581.606 14.3537C572.447 30.8361 554.297 42.6783 524.498 51.6203C497.745 59.6682 464.08 64.6226 428.409 69.8669C371.712 78.2048 307.451 87.6544 251.165 112.112C188.571 139.301 144.562 182.005 109.205 216.299C92.8439 232.177 78.7059 245.88 65.6314 255.185C54.3935 263.16 44.7749 267.196 35.9538 267.559C33.4403 267.68 31.0478 267.486 28.7277 267.027ZM428.215 68.9486C463.838 63.7042 497.479 58.7498 524.16 50.7503C553.693 41.8808 571.673 30.1836 580.688 13.9429C591.515 -5.53629 589.364 -32.0966 574.09 -67.2364C519.81 -192.208 378.334 -268.988 240.024 -263.551C199.93 -261.98 160.078 -253.497 122.715 -237.256C44.9199 -203.494 -12.5261 -138.314 -39.062 -53.7025C-64.3653 26.921 -58.8067 119.314 -23.8606 199.768C-14.4595 221.398 -5.59005 237.204 3.25523 248.08C11.6655 258.423 20.0516 264.32 28.921 266.06C39.4339 268.139 50.9134 264.441 65.003 254.411C78.0051 245.155 92.1189 231.476 108.456 215.622C125.977 198.632 145.819 179.371 169.165 160.931C196.16 139.615 222.84 123.35 250.73 111.242C307.112 86.7602 371.446 77.2864 428.215 68.9486Z" fill="white"/>
<path d="M33.8511 266.084C25.2717 264.489 17.1514 258.858 9.03115 248.853C0.572544 238.436 -7.91023 223.283 -16.8764 202.547C-25.48 182.681 -32.4643 161.921 -37.612 140.799C-42.7113 119.966 -46.0706 98.6262 -47.6173 77.3828C-49.164 56.2119 -48.9224 34.9685 -46.8923 14.2568C-44.8381 -6.59998 -40.9713 -27.0459 -35.3886 -46.5734C-29.7093 -66.4151 -22.1932 -85.435 -13.0821 -103.15C-3.72926 -121.3 7.41193 -138.217 20.0515 -153.467C46.7807 -185.731 80.0109 -210.624 118.872 -227.444C138.593 -235.976 159.643 -242.501 181.466 -246.851C202.661 -251.056 224.726 -253.231 247.056 -253.328C268.952 -253.401 291.234 -251.467 313.227 -247.576C335.05 -243.709 356.704 -237.909 377.56 -230.32C398.514 -222.708 418.718 -213.258 437.616 -202.286C456.83 -191.12 474.786 -178.287 490.978 -164.149C507.605 -149.649 522.492 -133.65 535.229 -116.636C548.4 -99.0173 559.396 -80.1181 567.927 -60.4456C582.766 -26.2 584.796 -0.43721 574.163 18.2928C565.317 33.8809 547.844 44.9014 519.157 52.9734C493.419 60.2237 460.962 64.4531 426.596 68.9241C370.02 76.2711 305.904 84.6089 249.98 108.825C187.508 135.893 144.393 179.951 109.737 215.332C94.3422 231.065 81.0259 244.648 68.7005 253.928C57.8494 262.097 48.5932 266.181 40.0621 266.519C37.9596 266.592 35.8812 266.447 33.8511 266.084ZM426.475 67.9816C460.793 63.5105 493.226 59.3054 518.916 52.055C547.337 44.0313 564.641 33.1559 573.365 17.8094C583.854 -0.654724 581.799 -26.1275 567.081 -60.1073C514.517 -181.478 371.18 -257.412 233.522 -251.999C194.226 -250.452 155.365 -242.283 119.235 -226.623C44.0498 -194.069 -10.5445 -130.049 -34.4944 -46.3559C-57.0426 32.4067 -50.2999 122.963 -16.0063 202.161C-7.06437 222.824 1.37007 237.905 9.78034 248.249C17.7556 258.085 25.7067 263.619 34.0444 265.142C44.0256 266.979 54.8768 263.184 68.193 253.155C80.4701 243.923 93.738 230.364 109.109 214.655C126.243 197.158 145.65 177.316 168.681 158.393C195.338 136.497 221.825 119.99 249.642 107.931C305.662 83.6906 369.851 75.3527 426.475 67.9816Z" fill="white"/>
<path d="M39.0224 265.19C30.9264 263.813 23.2653 258.52 15.5559 249.022C7.53228 239.138 -0.515476 224.71 -9.04658 204.94C-17.4085 185.582 -24.2962 165.305 -29.4922 144.69C-34.6641 124.269 -38.2167 103.388 -40.0776 82.5793C-41.9385 61.7709 -42.1076 40.9142 -40.5851 20.6133C-39.0384 0.0707397 -35.7516 -20.0368 -30.8214 -39.2018C-25.7704 -58.7534 -18.9552 -77.4834 -10.545 -94.86C-1.89302 -112.744 8.52315 -129.396 20.4377 -144.355C45.7168 -176.112 77.6662 -200.473 115.392 -216.762C134.58 -225.051 155.195 -231.359 176.68 -235.54C197.537 -239.6 219.36 -241.679 241.497 -241.703C263.224 -241.727 285.361 -239.794 307.281 -235.951C329.056 -232.132 350.637 -226.429 371.47 -219.009C392.423 -211.542 412.603 -202.31 431.501 -191.555C450.739 -180.631 468.671 -168.088 484.791 -154.313C501.394 -140.126 516.184 -124.538 528.775 -107.983C541.826 -90.7998 552.653 -72.384 560.894 -53.2673C575.153 -20.2301 577.086 4.4451 566.791 22.1842C558.26 36.8781 541.439 47.1011 513.864 54.3514C489.092 60.8525 457.844 64.3568 424.759 68.0545C368.352 74.3623 304.405 81.5159 248.892 105.49C186.613 132.365 144.465 177.848 110.606 214.366C96.1301 229.978 83.6355 243.464 72.011 252.72C61.5707 261.058 52.6529 265.215 44.436 265.553C42.5992 265.601 40.8108 265.505 39.0224 265.19ZM115.73 -215.94C-45.4427 -146.361 -73.8636 52.4905 -8.22488 204.578C0.282055 224.299 8.28147 238.654 16.2567 248.466C23.8211 257.795 31.313 262.967 39.1674 264.32C40.8592 264.61 42.5992 264.731 44.3634 264.659C52.387 264.345 61.1356 260.236 71.431 252.019C83.0072 242.787 95.4776 229.326 109.93 213.737C126.654 195.708 145.601 175.262 168.27 155.856C194.54 133.38 220.786 116.632 248.506 104.644C304.139 80.6217 368.159 73.468 424.638 67.1361C457.699 63.4384 488.899 59.9341 513.622 53.4572C540.956 46.2794 557.607 36.2014 566.017 21.7008C576.144 4.22758 574.21 -20.1818 560.072 -52.9532C509.224 -170.771 364.002 -245.811 227.045 -240.446C188.522 -238.899 150.652 -231.021 115.73 -215.94Z" fill="white"/>
<path d="M44.2673 264.368C36.6545 263.16 29.4284 258.206 22.154 249.215C14.5655 239.862 6.95274 226.135 -1.16752 207.284C-9.28778 188.409 -16.0788 168.64 -21.3232 148.557C-26.5675 128.546 -30.3134 108.1 -32.4885 87.7751C-34.6636 67.305 -35.2678 46.8591 -34.2527 26.9691C-33.2135 6.74075 -30.5309 -13.0285 -26.2291 -31.8309C-21.8307 -51.1168 -15.6921 -69.5326 -8.0069 -86.5708C-0.0558167 -104.189 9.63532 -120.551 20.8248 -135.22C44.6781 -166.493 75.3224 -190.323 111.888 -206.056C130.545 -214.08 150.725 -220.194 171.871 -224.206C192.389 -228.121 213.947 -230.079 235.915 -230.054C257.472 -230.03 279.465 -228.097 301.312 -224.303C323.014 -220.532 344.548 -214.925 365.356 -207.651C386.285 -200.328 406.465 -191.289 425.339 -180.801C444.577 -170.119 462.485 -157.89 478.556 -144.452C495.135 -130.604 509.853 -115.427 522.299 -99.3072C535.253 -82.5589 545.862 -64.6507 553.862 -46.0657C567.565 -14.2369 569.377 9.37503 559.444 26.0991C551.227 39.9472 535.035 49.3726 508.548 55.8012C484.743 61.5531 454.679 64.3566 422.826 67.305C366.588 72.5252 302.859 78.4464 247.781 102.131C185.816 128.788 144.707 175.721 111.67 213.423C98.0881 228.939 86.3427 242.328 75.4191 251.584C65.3654 260.091 56.8101 264.344 48.8832 264.634C47.3123 264.707 45.7898 264.61 44.2673 264.368ZM422.729 66.4592C454.534 63.5107 484.574 60.7072 508.33 54.9795C534.6 48.6234 550.599 39.3188 558.719 25.6641C568.507 9.18169 566.67 -14.1885 553.088 -45.7515C522.396 -117.046 453.881 -175.774 365.09 -206.853C277.773 -237.401 185.623 -236.821 112.25 -205.258C-40.8988 -139.377 -65.2837 56.0912 -0.369991 206.97C7.70193 225.749 15.2905 239.403 22.8307 248.684C29.9843 257.505 37.0412 262.363 44.4364 263.523C53.4025 264.949 63.0937 260.937 74.9116 250.931C85.8111 241.699 97.5081 228.334 111.09 212.843C127.379 194.258 145.819 173.208 168.101 153.294C193.936 130.214 219.916 113.224 247.491 101.333C302.641 77.6246 366.443 71.7036 422.729 66.4592Z" fill="white"/>
<path d="M49.5594 263.644C42.43 262.629 35.6148 257.988 28.7513 249.481C21.5977 240.636 14.3958 227.61 6.71057 209.701C-25.7946 133.887 -36.1141 48.5752 -21.6378 -24.3871C-13.9043 -63.3938 0.52371 -97.5911 21.2352 -126.012C43.6384 -156.778 72.9777 -180.075 108.431 -195.277C126.533 -203.035 146.278 -208.932 167.11 -212.799C187.29 -216.545 208.581 -218.405 230.38 -218.333C251.744 -218.26 273.616 -216.327 295.391 -212.581C317.02 -208.859 338.505 -203.373 359.289 -196.244C380.218 -189.066 400.398 -180.245 419.225 -169.998C438.462 -159.557 456.346 -147.618 472.369 -134.568C488.899 -121.058 503.545 -106.267 515.846 -90.6066C528.679 -74.2934 539.095 -56.8685 546.829 -38.8394C559.952 -8.21892 561.692 14.3296 552.097 30.0869C544.17 43.1133 528.631 51.7653 503.182 57.3722C480.32 62.3991 451.391 64.5017 420.795 66.7493C364.775 70.8336 301.263 75.4497 246.693 98.844C185.115 125.235 145.117 173.667 112.975 212.577C100.239 227.996 89.2424 241.313 78.947 250.593C69.3042 259.293 61.1115 263.595 53.4746 263.885C52.1453 263.885 50.8403 263.813 49.5594 263.644ZM420.723 65.9034C451.295 63.68 480.175 61.5774 503.013 56.5505C528.244 50.992 543.614 42.4366 551.42 29.6277C560.87 14.112 559.13 -8.19475 546.104 -38.5735C516.474 -107.717 448.298 -164.922 359.048 -195.543C272.794 -225.148 179.218 -224.786 108.77 -194.576C22.2261 -157.479 -9.48161 -81.4712 -20.8403 -24.2421C-35.2924 48.5752 -24.9729 133.718 7.45977 209.387C22.2261 243.85 35.6632 260.84 49.6803 262.87C58.163 264.079 67.2983 259.994 78.4154 249.965C88.6623 240.733 99.6344 227.44 112.346 212.046C128.152 192.905 146.084 171.202 167.932 150.78C193.283 127.072 218.949 109.84 246.355 98.0948C301.046 74.628 364.63 69.9878 420.723 65.9034Z" fill="white"/>
<path d="M54.9003 262.966C48.2301 262.096 41.8499 257.794 35.373 249.747C28.6303 241.385 21.8393 229.059 14.5891 212.069C6.92797 194.161 0.354429 175.407 -5.01074 156.363C-10.4001 137.173 -14.5327 117.598 -17.3361 98.2151C-20.1637 78.4459 -21.6138 58.7734 -21.6138 39.7292C-21.6138 20.1292 -20.0671 1.03679 -17.0703 -17.0165C-10.6418 -55.5156 2.3845 -89.1088 21.6218 -116.902C42.5991 -147.16 70.6333 -169.926 104.951 -184.595C122.521 -192.111 141.831 -197.791 162.325 -201.513C182.166 -205.114 203.192 -206.878 224.822 -206.733C267.139 -206.491 311.51 -198.951 353.175 -184.934C374.104 -177.901 394.259 -169.273 413.062 -159.292C432.323 -149.093 450.159 -137.468 466.109 -124.756C482.616 -111.585 497.164 -97.2049 509.345 -81.9793C522.057 -66.1011 532.28 -49.1837 539.747 -31.6863C552.315 -2.25005 553.934 19.235 544.702 34.0257C537.089 46.2304 522.178 54.1574 497.744 58.9667C475.8 63.2928 448.008 64.7187 418.596 66.2412C362.793 69.1172 299.571 72.3798 245.533 95.4358C184.438 121.537 143.957 173.618 114.401 211.682C102.486 227.029 92.1907 240.273 82.5237 249.577C73.2918 258.447 65.4373 262.821 58.1146 263.111C57.0512 263.16 55.9637 263.111 54.9003 262.966ZM331.521 72.5248C361.174 68.4647 390.344 66.9662 418.572 65.492C447.96 63.9695 475.704 62.5435 497.599 58.2175C521.791 53.4323 536.557 45.6262 544.049 33.6148C553.136 19.0417 551.493 -2.22586 539.022 -31.3963C510.481 -98.365 442.643 -154.072 352.933 -184.233C266.438 -213.307 173.828 -213.186 105.241 -183.919C21.8876 -148.32 -6.87164 -73.4481 -16.3211 -16.9198C-28.139 53.7466 -16.6353 137.101 15.2416 211.755C29.2103 244.478 41.8499 260.501 54.9728 262.193C62.9964 263.232 71.6 259.027 82.0404 248.997C91.659 239.741 101.93 226.521 113.845 211.199C129.167 191.478 146.519 169.123 167.931 148.17C192.776 123.833 218.079 106.36 245.267 94.735C269.435 84.4395 297.638 77.165 331.521 72.5248Z" fill="white"/>
<path d="M60.2911 262.363C54.0801 261.662 48.0865 257.626 42.0205 250.062C35.6886 242.183 29.3084 230.534 22.4449 214.439C15.0255 196.99 8.52446 178.767 3.13512 160.255C-2.32672 141.452 -6.67686 122.336 -9.74612 103.436C-12.9121 84.0056 -14.7729 64.7198 -15.2563 46.1106C-15.7638 26.8006 -14.8213 8.07068 -12.4529 -9.62007C-7.32938 -47.6117 4.27099 -80.6248 22.0582 -107.741C41.5613 -137.491 68.2905 -159.75 101.497 -173.864C118.535 -181.114 137.409 -186.6 157.565 -190.153C177.068 -193.585 197.828 -195.252 219.264 -195.083C261.267 -194.721 305.445 -187.301 347.086 -173.598C368.015 -166.71 388.146 -158.276 406.949 -148.56C426.21 -138.603 444.046 -127.268 459.924 -114.919C476.406 -102.11 490.858 -88.1168 502.893 -73.3503C515.485 -57.9072 525.514 -41.4731 532.716 -24.5074C544.727 3.7205 546.25 24.1664 537.38 37.9903C530.058 49.3975 515.75 56.6236 492.356 60.6596C471.307 64.309 444.626 65.0823 416.398 65.904C360.861 67.5233 297.929 69.3358 244.471 92.0776C183.932 117.816 144.756 171.589 116.142 210.862C105.001 226.16 95.3822 239.356 86.3436 248.66C77.5225 257.723 70.0306 262.17 62.9978 262.436C62.0795 262.508 61.1853 262.484 60.2911 262.363ZM416.374 65.2515C444.577 64.4298 471.234 63.6564 492.236 60.0312C515.436 56.0194 529.598 48.9141 536.8 37.6761C545.525 24.0455 543.978 3.81715 532.088 -24.1932C504.537 -89.011 437.013 -143.219 346.868 -172.897C298.364 -188.872 248.362 -195.953 202.033 -194.116C165.468 -192.69 131.198 -185.706 101.762 -173.187C21.5749 -139.111 -4.23595 -65.375 -11.752 -9.52339C-20.9598 58.8954 -8.27191 140.437 23.0974 214.197C36.2928 245.204 48.1349 260.309 60.3878 261.687C67.9763 262.557 76.0724 258.279 85.8361 248.225C94.8505 238.969 104.445 225.773 115.586 210.499C130.401 190.174 147.173 167.143 168.078 145.633C192.366 120.644 217.283 102.929 244.205 91.4734C268.083 81.323 296.093 74.4352 329.83 70.4233C349.527 68.0791 369.006 66.919 388.122 66.1698C397.62 65.7832 407.045 65.5173 416.374 65.2515Z" fill="white"/>
<path d="M65.7271 261.856C54.0784 260.696 42.8164 246.389 30.2976 216.831C15.7247 182.392 4.4868 144.981 -2.18341 108.633C-9.40947 69.2151 -11.3187 31.9002 -7.88693 -2.24873C-4.09264 -39.7087 6.10602 -72.1417 22.419 -98.6054C40.4479 -127.848 65.8721 -149.575 97.9664 -163.157C114.473 -170.142 132.913 -175.41 152.73 -178.818C171.895 -182.105 192.413 -183.651 213.656 -183.434C255.345 -182.975 299.354 -175.652 340.922 -162.239C361.851 -155.496 381.958 -147.279 400.736 -137.805C419.998 -128.09 437.809 -117.069 453.639 -105.058C470.097 -92.5876 484.452 -78.9812 496.367 -64.6739C508.837 -49.6658 518.673 -33.7393 525.633 -17.3052C537.065 9.71426 538.515 29.1451 530.008 42.0507C522.999 52.7086 509.272 59.2097 486.869 62.5207C466.689 65.4933 441.096 65.6383 414.028 65.7833C358.781 66.0733 296.164 66.4117 243.358 88.7668C183.471 114.119 145.649 169.632 118.025 210.161C107.633 225.411 98.6673 238.582 90.2087 247.911C81.8226 257.143 74.669 261.663 67.9505 261.928C67.2013 261.953 66.4763 261.928 65.7271 261.856ZM328.065 68.3451C357.38 65.4208 387.492 65.2758 414.052 65.1308C441.12 64.9858 466.689 64.865 486.821 61.8682C509.03 58.5814 522.612 52.1769 529.524 41.6882C537.886 28.976 536.46 9.76263 525.102 -17.0394C498.566 -79.7062 431.405 -132.392 340.825 -161.611C291.789 -177.416 241.594 -184.425 195.506 -182.612C159.835 -181.211 126.605 -174.516 98.3048 -162.553C37.2578 -136.718 0.789179 -81.2529 -7.21024 -2.15205C-13.8805 63.8741 0.0158215 143.603 30.9018 216.59C43.3239 245.905 54.3926 260.092 65.7996 261.228C72.9531 261.928 80.5659 257.578 89.7253 247.476C98.1598 238.196 107.126 225.024 117.494 209.799C131.753 188.869 147.921 165.137 168.294 143.072C191.978 117.406 216.459 99.4489 243.116 88.1626C266.703 78.1814 294.496 71.7044 328.065 68.3451Z" fill="white"/>
<path d="M71.2618 261.419C60.459 260.525 49.9462 247.112 38.1766 219.199C23.942 185.388 12.6075 148.967 5.40558 113.851C-2.5455 74.9656 -5.46976 38.3757 -3.27052 5.14508C-0.829614 -31.8074 7.96733 -63.6362 22.8545 -89.4473C39.4092 -118.183 63.5283 -139.354 94.5351 -152.428C110.51 -159.171 128.49 -164.222 147.993 -167.461C166.844 -170.602 187.072 -172.053 208.146 -171.763C249.521 -171.207 293.336 -163.981 334.88 -150.882C377.415 -137.469 416.349 -118.207 447.476 -95.1992C463.886 -83.067 478.169 -69.8715 489.938 -55.9992C502.288 -41.4261 511.931 -26.0071 518.625 -10.1048C529.5 15.7305 530.854 34.1222 522.71 46.1093C515.991 56.0181 502.868 61.8425 481.407 64.4526C462.098 66.7969 437.568 66.2894 411.588 65.7819C356.655 64.6943 294.376 63.4618 242.246 85.4302C183.085 110.371 146.688 167.673 120.104 209.507C110.437 224.733 102.075 237.88 94.1726 247.233C86.2215 256.658 79.4304 261.226 72.9777 261.492C72.4219 261.492 71.8418 261.468 71.2618 261.419ZM411.612 65.1777C437.568 65.6852 462.073 66.1927 481.335 63.8484C502.602 61.2867 515.58 55.5347 522.202 45.771C530.201 33.953 528.848 15.7547 518.069 -9.86307C492.573 -70.379 425.726 -121.566 334.711 -150.302C285.724 -165.769 234.803 -172.608 188.546 -170.796C153.673 -169.418 121.458 -163.135 94.7767 -151.897C36.2191 -127.221 2.52966 -72.9166 -2.66634 5.16924C-6.87147 68.6095 8.209 146.526 38.7325 218.957C50.3812 246.629 60.749 259.921 71.3102 260.791C78.0529 261.347 85.1823 256.9 93.7375 246.798C101.616 237.493 109.954 224.346 119.621 209.145C133.324 187.587 148.863 163.129 168.657 140.484C191.712 114.117 215.711 95.919 242.029 84.826C265.326 75.0139 292.853 68.972 326.228 66.3135C332.778 65.806 339.375 65.4193 345.973 65.1777C368.642 64.3318 391.166 64.7668 411.612 65.1777Z" fill="white"/>
<path d="M76.8202 261.081C66.8149 260.404 57.0512 247.861 46.0309 221.615C32.0863 188.336 20.6551 152.882 12.9698 119.095C4.24539 80.6929 0.330262 44.8522 1.29696 12.5641C2.38449 -23.8808 9.77973 -55.1055 23.241 -80.2883C30.5637 -93.9672 39.7715 -106.003 50.6469 -116.032C62.1264 -126.642 75.7085 -135.27 91.0307 -141.698C106.474 -148.175 124.019 -153.033 143.184 -156.127C161.696 -159.099 181.659 -160.453 202.563 -160.114C243.624 -159.462 287.27 -152.332 328.766 -139.523C371.349 -126.376 410.234 -107.646 441.241 -85.3393C457.627 -73.5455 471.837 -60.7607 483.437 -47.3235C495.642 -33.2095 505.116 -18.2497 511.544 -2.90321C521.864 21.7237 523.12 39.1003 515.363 50.2174C508.934 59.4253 496.391 64.573 475.873 66.4823C457.385 68.1982 433.894 67.1106 409.026 65.9506C354.432 63.413 292.539 60.537 241.135 82.0946C182.77 106.552 147.872 165.715 122.376 208.903C113.386 224.104 105.652 237.251 98.2809 246.628C90.7407 256.223 84.3121 260.863 78.1736 261.105C77.7386 261.105 77.2794 261.105 76.8202 261.081ZM324.343 64.4522C353.272 62.8088 382.901 64.1864 409.05 65.3947C433.894 66.5548 457.385 67.6423 475.825 65.9264C496.174 64.0413 508.596 58.942 514.903 49.9032C522.54 38.9794 521.284 21.772 511.037 -2.68573C486.555 -61.0749 420.046 -110.764 328.597 -138.992C242.391 -165.6 151.449 -166.446 91.2482 -141.191C35.1072 -117.627 4.19705 -64.4825 1.87698 12.5641C0.0402515 73.2009 16.3291 149.305 46.5384 221.373C57.4621 247.402 67.0807 259.848 76.8444 260.501C83.2004 260.936 89.8706 256.416 97.8459 246.266C105.193 236.913 112.926 223.79 121.892 208.613C135.015 186.378 149.878 161.196 169.091 137.97C191.471 110.902 214.961 92.4626 240.917 81.5871C263.9 71.9442 291.185 66.3373 324.343 64.4522Z" fill="white"/>
<path d="M82.452 260.815C73.2443 260.332 64.1815 248.635 53.8861 223.984C40.159 191.067 28.6312 156.604 20.5592 124.292C11.0614 86.3726 6.13128 51.2569 5.91378 19.9356C5.64793 -15.9776 11.6173 -46.6223 23.6768 -71.1525C30.2746 -84.5656 38.7815 -96.3353 49.0043 -106.099C59.8072 -116.443 72.7851 -124.805 87.5755 -130.968C116.891 -143.196 154.737 -149.238 197.03 -148.441C237.776 -147.667 281.229 -140.659 322.701 -128.14C365.332 -115.283 404.193 -97.0603 435.055 -75.4544C451.416 -63.9989 465.53 -51.625 477.01 -38.6228C489.093 -24.9439 498.374 -10.4916 504.536 4.32321C514.3 27.7659 515.46 44.1275 508.089 54.3746C501.95 62.8816 489.963 67.4251 470.364 68.6335C452.697 69.7452 430.197 68.0535 406.392 66.2892C379.929 64.3075 350.131 62.084 320.55 63.2441C292.54 64.3558 264.699 68.4885 240.072 78.7598C182.602 102.734 149.227 163.806 124.866 208.395C116.552 223.597 109.375 236.744 102.535 246.145C95.43 255.909 89.3639 260.622 83.5154 260.839C83.1529 260.839 82.8146 260.815 82.452 260.815ZM322.411 62.5916C351.121 61.6249 380.485 63.8241 406.417 65.7576C430.221 67.546 452.697 69.2135 470.315 68.1018C489.746 66.8934 501.612 62.4224 507.654 54.0362C514.928 43.9583 513.744 27.7417 504.053 4.46825C480.925 -50.9725 413.087 -100.395 322.531 -127.681C236.06 -153.758 146.109 -154.845 87.7689 -130.508C33.223 -107.767 5.84127 -57.1594 6.42129 19.9356C7.0013 98.6498 36.7031 181.448 54.3695 223.79C64.5681 248.224 73.4859 259.824 82.4762 260.308C82.8146 260.332 83.1529 260.332 83.4671 260.308C89.1464 260.09 95.0916 255.45 102.076 245.831C108.891 236.454 116.069 223.331 124.358 208.13C148.767 163.468 182.191 102.299 239.806 78.2764C261.944 69.0443 288.286 63.9449 320.308 62.6882C321.033 62.6399 321.734 62.6158 322.411 62.5916Z" fill="white"/>
<path d="M88.1547 260.624C79.7202 260.31 71.3341 249.434 61.7638 226.354C47.9642 193.075 36.6538 160.473 28.1469 129.49C17.8516 91.9815 11.9064 57.615 10.5047 27.3329C8.86129 -8.07285 13.4289 -38.1133 24.0626 -61.991C29.9353 -75.1624 37.7656 -86.6421 47.3117 -96.14C57.462 -106.218 69.8357 -114.338 84.0945 -120.235C112.37 -131.957 149.516 -137.684 191.47 -136.766C231.903 -135.896 275.162 -128.984 316.585 -116.779C359.289 -104.188 398.078 -86.4971 428.819 -65.592C445.132 -54.499 459.173 -42.4877 470.508 -29.9446C482.471 -16.7007 491.558 -2.75597 497.479 11.5272C506.711 33.7856 507.774 49.1563 500.765 58.5575C495.038 66.2429 483.969 70.158 465.94 70.8589C465.553 70.8831 465.143 70.8831 464.756 70.9072C447.887 71.4389 426.378 69.1913 403.588 66.7987C352.401 61.4576 288.72 54.7874 238.911 75.4266C182.408 98.8451 150.652 161.899 127.451 207.938C119.79 223.164 113.168 236.311 106.812 245.761C100.166 255.694 94.4382 260.455 88.9038 260.672C88.6863 260.648 88.4205 260.648 88.1547 260.624ZM320.404 60.8293C348.873 60.5634 377.971 63.6086 403.661 66.2912C426.426 68.6838 447.911 70.9314 464.756 70.3997C483.316 69.8438 494.627 65.9529 500.403 58.2434C507.315 48.9871 506.203 33.7614 497.068 11.6722C474.955 -41.6902 407.431 -89.5422 316.489 -116.344C229.752 -141.889 140.791 -143.219 84.312 -119.824C32.1587 -98.1943 7.48374 -48.6988 11.0122 27.3087C14.2506 97.3951 40.6656 174.152 62.2472 226.185C67.129 237.979 71.6483 246.413 76.0226 252.02C80.1794 257.337 84.167 259.995 88.2272 260.14C93.834 260.358 99.6584 255.669 106.522 245.446C112.83 236.021 119.451 222.898 127.113 207.696C150.337 161.584 182.166 98.4584 238.814 74.9674C261 65.7595 287.705 61.1435 320.404 60.8293Z" fill="white"/>
<path d="M93.9321 260.527C86.2227 260.358 78.4891 250.256 69.6196 228.747C55.53 194.573 44.4372 163.808 35.7127 134.71C24.5716 97.5884 17.6355 63.9469 15.0979 34.7282C13.6479 17.9799 13.5995 2.34343 15.0013 -11.7463C16.4996 -26.9478 19.6897 -40.7717 24.4991 -52.8314C29.6467 -65.737 36.7761 -76.9508 45.6939 -86.207C55.1675 -96.0191 66.9371 -103.874 80.6642 -109.529C107.901 -120.743 144.321 -126.156 185.962 -125.141C226.08 -124.174 269.17 -117.359 310.545 -105.445C353.297 -93.1432 392.062 -75.9599 422.658 -55.7557C438.946 -45.0011 452.891 -33.4006 464.105 -21.2926C475.947 -8.50787 484.816 4.95355 490.495 18.705C499.172 39.7792 500.162 54.1832 493.541 62.7627C488.538 69.2397 479.233 72.599 464.443 73.179C462.775 73.2515 461.035 73.2757 459.223 73.2757C443.127 73.2273 422.561 70.4239 400.786 67.4754C350.01 60.5634 286.812 51.9356 237.897 72.0914C182.457 94.9299 152.345 160.038 130.352 207.576C123.296 222.825 117.205 235.997 111.357 245.471C105.146 255.548 99.7806 260.358 94.5363 260.575C94.2946 260.527 94.1254 260.527 93.9321 260.527ZM318.351 59.1376C346.554 59.6209 375.386 63.5602 400.81 67.0162C422.561 69.9888 443.127 72.7923 459.174 72.8165C476.865 72.8648 487.668 69.578 493.154 62.4727C499.679 54.014 498.664 39.755 490.06 18.8258C478.968 -8.12119 456.202 -33.1106 422.392 -55.4174C391.844 -75.5974 353.104 -92.7565 310.4 -105.058C224.702 -129.709 134.582 -131.328 80.8092 -109.166C31.0001 -88.648 9.0319 -40.2642 15.5329 34.6557C20.0281 86.4471 38.3712 151.7 70.0305 228.577C74.5498 239.574 78.7308 247.428 82.7667 252.648C86.6094 257.603 90.2586 260.044 93.9563 260.116C99.2006 260.237 104.614 255.5 110.97 245.205C116.819 235.755 122.885 222.584 129.942 207.358C151.958 159.748 182.095 94.5674 237.704 71.6564C255.467 64.3336 276.227 60.2734 300.805 59.3067C306.436 59.0892 312.285 59.0409 318.351 59.1376Z" fill="white"/>
<path d="M99.7798 260.526C92.7712 260.477 85.6902 251.149 77.4974 231.138C53.3542 172.144 27.6158 103.556 19.6889 42.0979C17.5622 25.6155 16.8372 10.2932 17.538 -3.45821C18.3114 -18.3939 20.7765 -31.9278 24.8849 -43.6974C29.3076 -56.3371 35.7361 -67.2851 44.0014 -76.2755C52.8225 -85.8459 63.9637 -93.4104 77.1591 -98.824C103.357 -109.554 139.052 -114.605 180.354 -113.494C220.182 -112.406 263.079 -105.712 304.405 -94.1113C347.206 -82.0999 385.946 -65.4242 416.397 -45.9209C432.638 -35.5046 446.51 -24.3149 457.579 -12.6661C469.3 -0.316399 477.976 12.6375 483.389 25.8572C491.534 45.7473 492.452 59.1845 486.193 66.9906C480.9 73.5884 470.532 76.3677 453.543 75.7152C438.196 75.1352 418.548 71.8 397.764 68.2715C347.399 59.7162 284.733 49.0582 236.737 68.7066C182.408 90.9408 154.012 158.151 133.276 207.236C126.823 222.51 121.24 235.705 115.875 245.227C110.099 255.45 105.097 260.308 100.142 260.501C100.021 260.526 99.9006 260.526 99.7798 260.526ZM316.199 57.5411C344.137 58.822 372.654 63.6555 397.813 67.9332C418.597 71.4617 438.22 74.7968 453.543 75.3768C470.412 76.0052 480.683 73.2984 485.903 66.7973C492.066 59.112 491.123 45.7956 483.051 26.0264C472.466 0.142784 449.966 -23.9524 416.204 -45.5825C385.777 -65.0859 347.085 -81.7132 304.309 -93.7246C218.345 -117.844 129.24 -119.705 77.2799 -98.4615C29.7909 -79.0306 10.5295 -31.7586 20.0514 42.0496C27.9784 103.46 53.7167 172.024 77.8358 230.993C82.0167 241.191 85.8352 248.514 89.557 253.324C93.0854 257.891 96.4205 260.139 99.7798 260.163C104.71 260.187 109.713 255.402 115.537 245.058C120.902 235.56 126.485 222.365 132.913 207.115C142.967 183.31 155.486 153.68 172.016 127.869C181.079 113.731 190.311 102.203 200.268 92.6326C211.554 81.7813 223.783 73.6126 236.567 68.3924C258.004 59.6195 284.032 56.0668 316.199 57.5411Z" fill="white"/>
<path d="M105.725 260.623C99.3687 260.695 92.916 252.067 85.3758 233.531C84.3366 230.969 83.2732 228.383 82.2098 225.725C71.4312 199.237 59.2266 169.22 48.4479 138.117C35.9534 102.107 27.8089 71.6071 23.5555 44.9501C21.0662 29.2653 19.9062 14.7405 20.172 1.73828C20.4379 -12.424 22.3471 -25.2087 25.8755 -36.3017C29.6456 -48.2405 35.3975 -58.5601 42.9619 -66.9947C51.0097 -75.985 61.3533 -83.0662 73.7271 -88.0931C98.8854 -98.316 133.856 -103.053 174.844 -101.82C214.357 -100.636 257.061 -94.0383 298.363 -82.7278C341.212 -71.0065 379.904 -54.8625 410.234 -36.0358C426.451 -25.9821 440.226 -15.1791 451.15 -3.96529C462.75 7.92522 471.233 20.3957 476.381 33.0838C483.969 51.7896 484.815 64.3085 478.967 71.3413C475.197 75.8606 468.696 78.2532 458.835 78.6399C455.573 78.7607 451.947 78.6882 447.936 78.3741C433.314 77.2623 414.56 73.4197 394.719 69.3353C344.813 59.0641 282.679 46.3035 235.673 65.3718C182.529 86.9536 155.921 156.363 136.466 207.067C130.593 222.389 125.518 235.609 120.588 245.18C115.247 255.523 110.582 260.453 105.942 260.623C105.846 260.623 105.773 260.623 105.725 260.623ZM394.743 69.0212C414.585 73.1055 433.314 76.9482 447.912 78.0599C463.983 79.2683 473.747 77.069 478.677 71.1479C484.453 64.2118 483.583 51.8138 476.042 33.2288C465.965 8.40858 443.755 -14.7924 410.017 -35.7458C379.711 -54.5483 341.067 -70.6923 298.243 -82.3895C245.775 -96.7451 192.655 -103.15 147.8 -101.385C118.896 -100.249 93.4235 -95.73 73.7996 -87.7547C28.8965 -69.5081 12.5593 -26.1271 23.8696 44.9259C33.4158 104.959 60.6525 171.879 82.4998 225.628C83.5632 228.262 84.6266 230.872 85.6658 233.434C89.5084 242.884 93.0127 249.651 96.3961 254.097C99.6104 258.327 102.655 260.381 105.701 260.333C105.773 260.333 105.821 260.333 105.894 260.333C110.413 260.164 115.005 255.282 120.274 245.059C125.204 235.512 130.255 222.293 136.127 206.995C145.529 182.464 157.25 151.916 173.031 125.429C181.683 110.904 190.577 99.1099 200.195 89.3945C211.119 78.3741 223.009 70.2054 235.504 65.1302C282.606 45.941 344.789 58.7257 394.743 69.0212Z" fill="white"/>
<path d="M111.718 260.793C106.014 260.938 100.142 253.035 93.2541 235.9C89.6048 226.813 85.6171 217.194 81.3878 207.02C64.7123 166.756 45.8134 121.152 33.8988 77.1908C27.3736 53.144 23.7243 32.5289 22.7335 14.1373C21.5976 -6.67107 24.0627 -24.4102 30.032 -38.6208C33.7296 -47.3937 38.829 -55.0548 45.2575 -61.3868C52.0244 -68.0571 60.4105 -73.4465 70.2225 -77.3858C94.3658 -87.1012 128.611 -91.5239 169.261 -90.1947C188.667 -89.5422 209.089 -87.6087 229.969 -84.4186C250.874 -81.2285 271.827 -76.8541 292.249 -71.3922C335.17 -59.9609 373.814 -44.3244 403.999 -26.1986C420.191 -16.4832 433.87 -6.09108 444.673 4.68772C456.128 16.1432 464.442 28.1063 469.324 40.2626C476.38 57.8084 477.154 69.3847 471.692 75.7166C468.26 79.6801 462.581 81.4685 455.041 81.7585C439.96 82.3386 417.557 76.9008 391.504 70.5447C342.058 58.5092 280.528 43.5011 234.561 62.0135C211.626 71.2456 191.93 91.2081 174.408 123.037C159.425 150.25 148.525 181.692 139.801 206.971C134.484 222.342 129.892 235.61 125.421 245.205C120.539 255.669 116.213 260.624 111.863 260.793C111.766 260.793 111.742 260.793 111.718 260.793ZM391.553 70.2789C411.298 75.0883 428.336 79.2451 442.232 80.8402C457.53 82.6044 466.81 80.9127 471.475 75.5233C476.864 69.288 476.066 57.7842 469.058 40.3593C459.487 16.5783 437.543 -5.72855 403.854 -25.9569C373.693 -44.0585 335.073 -59.695 292.176 -71.1264C205.633 -94.2065 118.557 -96.5508 70.3192 -77.12C51.2994 -69.4346 37.8139 -56.4566 30.2737 -38.5C19.0358 -11.7705 20.3167 26.052 34.1647 77.1184C46.0792 121.055 64.9781 166.66 81.6295 206.899C85.8346 217.074 89.8223 226.692 93.4957 235.779C97 244.504 100.214 250.715 103.284 254.799C106.208 258.69 108.963 260.551 111.694 260.479C111.718 260.479 111.742 260.479 111.766 260.479C116.02 260.31 120.249 255.404 125.083 245.036C129.554 235.441 134.145 222.197 139.462 206.826C148.211 181.547 159.086 150.081 174.094 122.868C182.335 107.932 190.842 95.8725 200.122 86.0121C210.66 74.8224 222.187 66.6296 234.392 61.7235C280.479 43.2352 342.058 58.2434 391.553 70.2789Z" fill="white"/>
</g>
</svg>
