<svg width="11" height="15" viewBox="0 0 11 15" fill="none" xmlns="http://www.w3.org/2000/svg">
<path d="M0.355469 0.832031C0.601562 0.722656 0.875 0.75 1.06641 0.914062L2.1875 1.87109L3.28125 0.914062C3.52734 0.722656 3.88281 0.722656 4.12891 0.914062L5.25 1.87109L6.34375 0.914062C6.58984 0.722656 6.94531 0.722656 7.19141 0.914062L8.3125 1.87109L9.40625 0.914062C9.59766 0.75 9.87109 0.722656 10.1172 0.832031C10.3359 0.941406 10.5 1.16016 10.5 1.40625V14.0938C10.5 14.3672 10.3359 14.5859 10.1172 14.6953C9.87109 14.8047 9.59766 14.7773 9.40625 14.6133L8.3125 13.6562L7.19141 14.6133C6.94531 14.8047 6.58984 14.8047 6.34375 14.6133L5.25 13.6562L4.12891 14.6133C3.88281 14.8047 3.52734 14.8047 3.28125 14.6133L2.1875 13.6562L1.06641 14.6133C0.875 14.7773 0.601562 14.8047 0.355469 14.6953C0.136719 14.5859 0 14.3672 0 14.0938V1.40625C0 1.16016 0.136719 0.941406 0.355469 0.832031ZM2.625 4.6875C2.37891 4.6875 2.1875 4.90625 2.1875 5.125C2.1875 5.37109 2.37891 5.5625 2.625 5.5625H7.875C8.09375 5.5625 8.3125 5.37109 8.3125 5.125C8.3125 4.90625 8.09375 4.6875 7.875 4.6875H2.625ZM2.625 10.8125H7.875C8.09375 10.8125 8.3125 10.6211 8.3125 10.375C8.3125 10.1562 8.09375 9.9375 7.875 9.9375H2.625C2.37891 9.9375 2.1875 10.1562 2.1875 10.375C2.1875 10.6211 2.37891 10.8125 2.625 10.8125ZM2.625 7.3125C2.37891 7.3125 2.1875 7.53125 2.1875 7.75C2.1875 7.99609 2.37891 8.1875 2.625 8.1875H7.875C8.09375 8.1875 8.3125 7.99609 8.3125 7.75C8.3125 7.53125 8.09375 7.3125 7.875 7.3125H2.625Z" fill="#5A7DFC"/>
</svg>
