<svg width="26" height="26" viewBox="0 0 26 26" fill="none" xmlns="http://www.w3.org/2000/svg">
<path d="M18.6875 6.55078H7.3125C6.89183 6.55078 6.55078 6.89183 6.55078 7.3125V18.6875C6.55078 19.1082 6.89183 19.4492 7.3125 19.4492H18.6875C19.1082 19.4492 19.4492 19.1082 19.4492 18.6875V7.3125C19.4492 6.89183 19.1082 6.55078 18.6875 6.55078ZM14.625 11.3242H13.7617V15.4375C13.7617 15.8582 13.4207 16.1992 13 16.1992C12.5793 16.1992 12.2383 15.8582 12.2383 15.4375V11.3242H11.375C10.9543 11.3242 10.6133 10.9832 10.6133 10.5625C10.6133 10.1418 10.9543 9.80078 11.375 9.80078H14.625C15.0457 9.80078 15.3867 10.1418 15.3867 10.5625C15.3867 10.9832 15.0457 11.3242 14.625 11.3242Z" fill="#5A7DFC"/>
<path d="M25.2383 21.1758H21.9375C21.5168 21.1758 21.1758 21.5168 21.1758 21.9375V25.2383C21.1758 25.659 21.5168 26 21.9375 26H25.2383C25.659 26 26 25.659 26 25.2383V21.9375C26 21.5168 25.659 21.1758 25.2383 21.1758Z" fill="#5A7DFC"/>
<path d="M25.2383 0H21.9375C21.5168 0 21.1758 0.341047 21.1758 0.761719V1.67578H4.82422V0.761719C4.82422 0.341047 4.48317 0 4.0625 0H0.761719C0.341047 0 0 0.341047 0 0.761719V4.0625C0 4.48317 0.341047 4.82422 0.761719 4.82422H1.67578V21.1758H0.761719C0.341047 21.1758 0 21.5168 0 21.9375V25.2383C0 25.659 0.341047 26 0.761719 26H4.0625C4.48317 26 4.82422 25.659 4.82422 25.2383V21.9375C4.82422 21.5168 4.48317 21.1758 4.0625 21.1758H3.19922V4.82422H4.0625C4.48317 4.82422 4.82422 4.48317 4.82422 4.0625V3.19922H21.1758V4.0625C21.1758 4.48317 21.5168 4.82422 21.9375 4.82422H25.2383C25.659 4.82422 26 4.48317 26 4.0625V0.761719C26 0.341047 25.659 0 25.2383 0Z" fill="#5A7DFC"/>
<path d="M23.5625 9.69922C23.9832 9.69922 24.3242 9.35817 24.3242 8.9375V7.3125C24.3242 6.89183 23.9832 6.55078 23.5625 6.55078C23.1418 6.55078 22.8008 6.89183 22.8008 7.3125V8.9375C22.8008 9.35817 23.1418 9.69922 23.5625 9.69922Z" fill="#5A7DFC"/>
<path d="M22.8008 13.8125C22.8008 14.2332 23.1418 14.5742 23.5625 14.5742C23.9832 14.5742 24.3242 14.2332 24.3242 13.8125V12.1875C24.3242 11.7668 23.9832 11.4258 23.5625 11.4258C23.1418 11.4258 22.8008 11.7668 22.8008 12.1875V13.8125Z" fill="#5A7DFC"/>
<path d="M22.8008 18.6875C22.8008 19.1082 23.1418 19.4492 23.5625 19.4492C23.9832 19.4492 24.3242 19.1082 24.3242 18.6875V17.0625C24.3242 16.6418 23.9832 16.3008 23.5625 16.3008C23.1418 16.3008 22.8008 16.6418 22.8008 17.0625V18.6875Z" fill="#5A7DFC"/>
<path d="M18.6875 22.8008H17.0625C16.6418 22.8008 16.3008 23.1418 16.3008 23.5625C16.3008 23.9832 16.6418 24.3242 17.0625 24.3242H18.6875C19.1082 24.3242 19.4492 23.9832 19.4492 23.5625C19.4492 23.1418 19.1082 22.8008 18.6875 22.8008Z" fill="#5A7DFC"/>
<path d="M13.8125 22.8008H12.1875C11.7668 22.8008 11.4258 23.1418 11.4258 23.5625C11.4258 23.9832 11.7668 24.3242 12.1875 24.3242H13.8125C14.2332 24.3242 14.5742 23.9832 14.5742 23.5625C14.5742 23.1418 14.2332 22.8008 13.8125 22.8008Z" fill="#5A7DFC"/>
<path d="M8.9375 22.8008H7.3125C6.89183 22.8008 6.55078 23.1418 6.55078 23.5625C6.55078 23.9832 6.89183 24.3242 7.3125 24.3242H8.9375C9.35817 24.3242 9.69922 23.9832 9.69922 23.5625C9.69922 23.1418 9.35817 22.8008 8.9375 22.8008Z" fill="#5A7DFC"/>
</svg>
