<svg width="22" height="22" viewBox="0 0 22 22" fill="none" xmlns="http://www.w3.org/2000/svg">
<path d="M21.3244 14.1271H3.13152C2.76002 14.1271 2.45605 13.8231 2.45605 13.4516V3.54461C2.45605 3.1731 2.76002 2.86914 3.13152 2.86914H21.3244C21.6959 2.86914 21.9998 3.1731 21.9998 3.54461V13.4516C21.9998 13.8231 21.6959 14.1271 21.3244 14.1271Z" fill="#317F46"/>
<path d="M20.0015 6.2455C19.4241 6.0457 18.9679 5.54558 18.7861 4.91274C18.6817 4.55124 18.3769 4.30469 18.0314 4.30469H13.6463H12.5682H6.4247C6.07923 4.30469 5.77441 4.55124 5.67 4.91274C5.4882 5.54554 5.03196 6.04565 4.45463 6.2455C4.1248 6.35937 3.8999 6.69353 3.8999 7.07278V8.49466V8.50329V9.92517C3.8999 10.3044 4.12484 10.6386 4.45463 10.7524C5.03196 10.9523 5.4882 11.4524 5.67 12.0852C5.77437 12.4467 6.07919 12.6933 6.4247 12.6933H12.5682H13.6463H18.0314C18.3768 12.6933 18.6817 12.4467 18.7861 12.0852C18.9679 11.4524 19.4241 10.9523 20.0015 10.7524C20.3313 10.6386 20.5562 10.3044 20.5562 9.92517V8.50329V8.49466V7.07278C20.5562 6.69353 20.3313 6.35937 20.0015 6.2455Z" fill="#4CBA68"/>
<path d="M20.154 16.6036H1.96111C1.58961 16.6036 1.28564 16.2997 1.28564 15.9282V6.02117C1.28564 5.64966 1.58961 5.3457 1.96111 5.3457H20.154C20.5255 5.3457 20.8294 5.64966 20.8294 6.02117V15.9282C20.8294 16.2997 20.5255 16.6036 20.154 16.6036Z" fill="#368B4C"/>
<path d="M18.831 8.72206C18.2537 8.52226 17.7975 8.02214 17.6157 7.3893C17.5113 7.0278 17.2065 6.78125 16.861 6.78125H12.4759H11.3978H5.25429C4.90882 6.78125 4.604 7.0278 4.49959 7.3893C4.31779 8.0221 3.86155 8.52221 3.28422 8.72206C2.95439 8.83593 2.72949 9.1701 2.72949 9.54934V10.9712V10.9799V12.4017C2.72949 12.781 2.95443 13.1151 3.28422 13.229C3.86155 13.4288 4.31775 13.9289 4.49959 14.5618C4.60396 14.9233 4.90878 15.1698 5.25429 15.1698H11.3978H12.4759H16.861C17.2065 15.1698 17.5113 14.9233 17.6157 14.5618C17.7976 13.929 18.2538 13.4289 18.8311 13.229C19.1609 13.1151 19.3858 12.781 19.3858 12.4017V10.9799V10.9712V9.54934C19.3858 9.1701 19.1609 8.83593 18.831 8.72206Z" fill="#64C37D"/>
<path d="M18.831 8.72206C18.2537 8.52226 17.7975 8.02214 17.6157 7.3893C17.5113 7.0278 17.2065 6.78125 16.861 6.78125H12.4759H11.3978H5.25429C4.90882 6.78125 4.604 7.0278 4.49959 7.3893C4.31779 8.0221 3.86155 8.52221 3.28422 8.72206C2.95439 8.83593 2.72949 9.1701 2.72949 9.54934V10.9712V10.9799V12.4017C2.72949 12.781 2.95443 13.1151 3.28422 13.229C3.86155 13.4288 4.31775 13.9289 4.49959 14.5618C4.60396 14.9233 4.90878 15.1698 5.25429 15.1698H11.3978H12.4759H16.861C17.2065 15.1698 17.5113 14.9233 17.6157 14.5618C17.7976 13.929 18.2538 13.4289 18.8311 13.229C19.1609 13.1151 19.3858 12.781 19.3858 12.4017V10.9799V10.9712V9.54934C19.3858 9.1701 19.1609 8.83593 18.831 8.72206Z" fill="#64C37D"/>
<path d="M19.5438 8.54852V18.4555C19.5438 18.827 19.2398 19.131 18.8683 19.131H0.675469C0.303961 19.131 0 18.827 0 18.4555V8.54852C0 8.17701 0.303961 7.87305 0.675469 7.87305H18.8683C19.2398 7.87305 19.5438 8.17701 19.5438 8.54852Z" fill="#368B4C"/>
<path d="M19.5439 8.54852V18.1853H1.62127C1.24976 18.1853 0.945801 17.8814 0.945801 17.5099V7.87305H18.8685C19.24 7.87305 19.5439 8.17701 19.5439 8.54852Z" fill="#3FA45A"/>
<path d="M17.5454 11.2494C16.9681 11.0496 16.5118 10.5495 16.33 9.91664C16.2257 9.55515 15.9208 9.30859 15.5753 9.30859H11.1903H10.1121H3.96865C3.62318 9.30859 3.31836 9.55515 3.21395 9.91664C3.03214 10.5494 2.5759 11.0496 1.99857 11.2494C1.66875 11.3633 1.44385 11.6974 1.44385 12.0767V13.4986V13.5072V14.9291C1.44385 15.3083 1.66879 15.6425 1.99857 15.7564C2.5759 15.9562 3.0321 16.4563 3.21395 17.0891C3.31832 17.4506 3.62314 17.6972 3.96865 17.6972H10.1121H11.1903H15.5754C15.9208 17.6972 16.2257 17.4506 16.3301 17.0891C16.5119 16.4563 16.9681 15.9562 17.5454 15.7564C17.8753 15.6425 18.1002 15.3083 18.1002 14.9291V13.5072V13.4986V12.0767C18.1002 11.6974 17.8752 11.3633 17.5454 11.2494Z" fill="#95D6A6"/>
<path d="M9.7718 16.1051C11.2096 16.1051 12.3752 14.9396 12.3752 13.5018C12.3752 12.064 11.2096 10.8984 9.7718 10.8984C8.33402 10.8984 7.16846 12.064 7.16846 13.5018C7.16846 14.9396 8.33402 16.1051 9.7718 16.1051Z" fill="#368B4C"/>
<path d="M9.77179 15.6196C9.95832 15.6196 10.1095 15.4684 10.1095 15.2818V15.0621C10.4818 14.9256 10.748 14.5677 10.748 14.1487C10.748 13.615 10.3158 13.1802 9.78292 13.1762L9.77621 13.1759C9.77411 13.1759 9.77196 13.1758 9.76986 13.1758C9.6119 13.1725 9.47844 13.0298 9.47844 12.8642C9.47844 12.7025 9.60997 12.5692 9.76861 12.5672L9.77054 12.5672C9.93288 12.5685 10.065 12.7018 10.065 12.8642C10.065 13.0508 10.2162 13.202 10.4027 13.202C10.5893 13.202 10.7405 13.0508 10.7405 12.8642C10.7405 12.4505 10.4781 12.0956 10.1094 11.9558V11.7205C10.1094 11.534 9.95823 11.3828 9.7717 11.3828C9.58518 11.3828 9.43397 11.534 9.43397 11.7205V11.9552C9.06637 12.0946 8.80289 12.4504 8.80289 12.8642C8.80289 13.3961 9.22841 13.838 9.75207 13.851L9.76199 13.8514C9.7665 13.8515 9.77097 13.8516 9.7754 13.8516C9.93919 13.8516 10.0725 13.9849 10.0725 14.1487C10.0725 14.3125 9.93924 14.4457 9.77441 14.4457H9.76792C9.60412 14.4457 9.47088 14.3125 9.47088 14.1486C9.47088 13.9621 9.31967 13.8109 9.13314 13.8109C8.94662 13.8109 8.79541 13.9621 8.79541 14.1486C8.79541 14.5674 9.06152 14.9252 9.43393 15.0619V15.2818C9.43401 15.4684 9.58522 15.6196 9.77179 15.6196Z" fill="#2C733F"/>
</svg>
