<svg width="23" height="23" viewBox="0 0 23 23" fill="none" xmlns="http://www.w3.org/2000/svg">
<path d="M0.25 18.375C0.25 19.4297 1.07031 20.25 2.125 20.25H20.875C21.8906 20.25 22.75 19.4297 22.75 18.375V11.5H0.25V18.375ZM7.75 15.7188C7.75 15.4844 7.94531 15.25 8.21875 15.25H13.5312C13.7656 15.25 14 15.4844 14 15.7188V17.2812C14 17.5547 13.7656 17.75 13.5312 17.75H8.21875C7.94531 17.75 7.75 17.5547 7.75 17.2812V15.7188ZM2.75 15.7188C2.75 15.4844 2.94531 15.25 3.21875 15.25H6.03125C6.26562 15.25 6.5 15.4844 6.5 15.7188V17.2812C6.5 17.5547 6.26562 17.75 6.03125 17.75H3.21875C2.94531 17.75 2.75 17.5547 2.75 17.2812V15.7188ZM22.75 4.625C22.75 3.60938 21.8906 2.75 20.875 2.75H2.125C1.07031 2.75 0.25 3.60938 0.25 4.625V6.5H22.75V4.625Z" fill="url(#paint0_linear_121_4)"/>
<defs>
<linearGradient id="paint0_linear_121_4" x1="10" y1="10" x2="11.0673" y2="13.5767" gradientUnits="userSpaceOnUse">
<stop stop-color="#5A7DFC" stop-opacity="0.73"/>
<stop offset="1" stop-color="#5A7DFC"/>
</linearGradient>
</defs>
</svg>
