<svg width="24" height="32" viewBox="0 0 24 32" fill="none" xmlns="http://www.w3.org/2000/svg">
<path d="M23.5625 8.78086V29.9059C23.5625 31.0434 22.6438 31.9621 21.5063 31.9621H2.49375C1.35625 31.9621 0.4375 31.0434 0.4375 29.9059V2.09336C0.4375 0.955859 1.35625 0.0371094 2.49375 0.0371094H14.8188L23.5625 8.78086Z" fill="#23A566"/>
<path d="M17.0563 15.9316H6.94385C6.58135 15.9316 6.2876 16.2254 6.2876 16.5879V25.3941C6.2876 25.7566 6.58135 26.0504 6.94385 26.0504H17.0626C17.4251 26.0504 17.7188 25.7566 17.7188 25.3941V16.5941C17.7126 16.2316 17.4188 15.9316 17.0563 15.9316V15.9316ZM7.6001 20.1566H11.3438V21.8254H7.6001V20.1566ZM12.6563 20.1566H16.4001V21.8254H12.6563V20.1566ZM16.4001 18.8441H12.6563V17.2504H16.4001V18.8441ZM11.3438 17.2504V18.8441H7.6001V17.2504H11.3438ZM7.6001 23.1441H11.3438V24.7379H7.6001V23.1441ZM12.6563 24.7379V23.1441H16.4001V24.7379H12.6563Z" fill="white"/>
<path opacity="0.19" d="M15.9937 8.4625L23.5624 14.5938V8.8375L19.2687 6.34375L15.9937 8.4625Z" fill="black"/>
<path d="M23.5626 8.78086H16.8751C15.7376 8.78086 14.8188 7.86211 14.8188 6.72461V0.0371094L23.5626 8.78086Z" fill="#8ED1B1"/>
</svg>
