<svg width="45" height="45" viewBox="0 0 45 45" fill="none" xmlns="http://www.w3.org/2000/svg">
<path d="M39.3749 45.0001H28.1251V28.1251H33.5811L35.0156 22.4999H28.1251V15.7499C28.1251 13.886 29.6359 12.3749 31.5001 12.3749H34.8751V6.75H31.5001C26.5328 6.75783 22.5077 10.7825 22.4999 15.7499V22.4999H16.875V28.1251H22.4999V45.0001H5.62486C2.51848 45.0001 0 42.4817 0 39.3749V5.62486C0 2.51848 2.51848 0 5.62486 0H39.3749C42.4817 0 45.0001 2.51848 45.0001 5.62486V39.3749C45.0001 42.4817 42.4817 45.0001 39.3749 45.0001ZM30.375 42.7499H39.3749C41.2391 42.7499 42.7499 41.2391 42.7499 39.3749V5.62486C42.7499 3.76103 41.2391 2.24986 39.3749 2.24986H5.62486C3.76103 2.24986 2.24986 3.76103 2.24986 5.62486V39.3749C2.24986 41.2391 3.76103 42.7499 5.62486 42.7499H20.25V30.375H14.6251V20.25H20.25V15.7499C20.2578 9.53998 25.2898 4.50755 31.5001 4.50014H37.125V14.6251H31.5001C30.8789 14.6251 30.375 15.1286 30.375 15.7499V20.25H37.9123L35.325 30.375H30.375V42.7499Z" fill="#465D85"/>
</svg>
