<svg width="64" height="64" viewBox="0 0 64 64" fill="none" xmlns="http://www.w3.org/2000/svg">
<path d="M6.51999 54.0001C4.88299 54.0821 3.2798 53.5146 2.0589 52.4211C0.837997 51.3275 0.098083 49.7962 0 48.1601V12.8601C0.0901829 11.3188 0.757767 9.86799 1.86972 8.79681C2.98167 7.72563 4.45636 7.11269 6 7.08012V4.56013C6.01299 3.94813 6.14643 3.34468 6.3927 2.78427C6.63897 2.22385 6.99324 1.71744 7.43527 1.29397C7.87731 0.87051 8.39847 0.5383 8.96893 0.316296C9.5394 0.0942934 10.148 -0.0131548 10.76 0.000119113H30.22C30.999 -0.0161989 31.7703 0.157374 32.4672 0.505826C33.1641 0.854278 33.7657 1.36713 34.22 2.00012L37.26 8.00012H53.26C53.872 7.98685 54.4806 8.09429 55.0511 8.3163C55.6216 8.5383 56.1427 8.87051 56.5847 9.29397C57.0268 9.71744 57.381 10.2239 57.6273 10.7843C57.8736 11.3447 58.007 11.9481 58.02 12.5601V26.0001H54.02V12.5601C53.986 12.3888 53.8892 12.2363 53.7486 12.1327C53.608 12.0291 53.4337 11.9818 53.26 12.0001H37.26C36.5234 11.9998 35.8012 11.796 35.1731 11.4114C34.5449 11.0267 34.0352 10.476 33.7 9.82013L30.84 4.20013C30.6737 4.07182 30.47 4.00155 30.26 4.00012H10.8C10.6263 3.98181 10.452 4.02912 10.3114 4.13273C10.1708 4.23635 10.074 4.3888 10.04 4.56013V43.4201C10.0696 43.5951 10.1645 43.7524 10.3056 43.8601C10.4467 43.9678 10.6234 44.0178 10.8 44.0001H22V48.0001H10.76C9.52214 48.0216 8.32619 47.5516 7.43405 46.6932C6.54191 45.8348 6.02627 44.6579 6 43.4201V11.1201C4.88 11.3001 4 12.0001 4 12.8601V48.1601C4 49.1601 5.15999 50.0001 6.51999 50.0001H24V54.0001H6.51999ZM16 30.9601C16 30.4297 15.7893 29.921 15.4142 29.5459C15.0391 29.1709 14.5304 28.9601 14 28.9601C13.4696 28.9601 12.9609 29.1709 12.5858 29.5459C12.2107 29.921 12 30.4297 12 30.9601V40.0001C12 40.5306 12.2107 41.0393 12.5858 41.4143C12.9609 41.7894 13.4696 42.0001 14 42.0001H22V38.0001H16V30.9601ZM63.42 60.5801C63.6052 60.7666 63.7518 60.9877 63.8515 61.2309C63.9512 61.474 64.002 61.7344 64.0011 61.9972C64.0002 62.26 63.9475 62.52 63.8461 62.7624C63.7446 63.0049 63.5965 63.225 63.41 63.4101C63.2235 63.5953 63.0024 63.7419 62.7592 63.8416C62.5161 63.9413 62.2557 63.9922 61.9929 63.9912C61.7301 63.9903 61.4701 63.9376 61.2277 63.8362C60.9852 63.7348 60.7652 63.5866 60.58 63.4001L51.8 54.6201C48.5854 57.1173 44.5399 58.2953 40.4873 57.9144C36.4346 57.5335 32.6795 55.6223 29.9865 52.5699C27.2935 49.5175 25.8652 45.5534 25.9923 41.4849C26.1194 37.4163 27.7925 33.5492 30.6708 30.6709C33.5491 27.7926 37.4162 26.1196 41.4848 25.9924C45.5533 25.8653 49.5174 27.2936 52.5698 29.9866C55.6222 32.6796 57.5334 36.4347 57.9143 40.4874C58.2952 44.5401 57.1171 48.5856 54.62 51.8001L63.42 60.5801ZM54 42.0001C54 39.6267 53.2962 37.3067 51.9776 35.3333C50.6591 33.3599 48.7849 31.8218 46.5922 30.9136C44.3995 30.0053 41.9867 29.7677 39.6589 30.2307C37.3311 30.6937 35.1929 31.8366 33.5147 33.5149C31.8365 35.1931 30.6936 37.3313 30.2306 39.6591C29.7676 41.9868 30.0052 44.3996 30.9135 46.5923C31.8217 48.785 33.3598 50.6592 35.3332 51.9777C37.3065 53.2963 39.6266 54.0001 42 54.0001C45.1826 54.0001 48.2349 52.7358 50.4853 50.4854C52.7357 48.235 54 45.1827 54 42.0001ZM36 42.0001C36 40.4088 36.6321 38.8827 37.7574 37.7575C38.8826 36.6323 40.4087 36.0001 42 36.0001C42.5304 36.0001 43.0391 35.7894 43.4142 35.4143C43.7893 35.0393 44 34.5306 44 34.0001C44 33.4697 43.7893 32.961 43.4142 32.5859C43.0391 32.2108 42.5304 32.0001 42 32.0001C39.3478 32.0001 36.8043 33.0537 34.9289 34.929C33.0536 36.8044 32 39.348 32 42.0001C32 42.5306 32.2107 43.0393 32.5858 43.4143C32.9609 43.7894 33.4696 44.0001 34 44.0001C34.5304 44.0001 35.0391 43.7894 35.4142 43.4143C35.7893 43.0393 36 42.5306 36 42.0001Z" fill="#8F90A6"/>
</svg>
