<svg width="26" height="26" viewBox="0 0 26 26" fill="none" xmlns="http://www.w3.org/2000/svg">
<path d="M23.1562 0.8125H2.84375C2.30503 0.8125 1.78837 1.02651 1.40744 1.40744C1.02651 1.78837 0.8125 2.30503 0.8125 2.84375V23.1562C0.8125 23.695 1.02651 24.2116 1.40744 24.5926C1.78837 24.9735 2.30503 25.1875 2.84375 25.1875H23.1562C23.695 25.1875 24.2116 24.9735 24.5926 24.5926C24.9735 24.2116 25.1875 23.695 25.1875 23.1562V2.84375C25.1875 2.30503 24.9735 1.78837 24.5926 1.40744C24.2116 1.02651 23.695 0.8125 23.1562 0.8125ZM18.2812 3.25H22.3438C22.4515 3.25 22.5548 3.2928 22.631 3.36899C22.7072 3.44517 22.75 3.54851 22.75 3.65625C22.75 3.76399 22.7072 3.86733 22.631 3.94351C22.5548 4.0197 22.4515 4.0625 22.3438 4.0625H18.2812C18.1735 4.0625 18.0702 4.0197 17.994 3.94351C17.9178 3.86733 17.875 3.76399 17.875 3.65625C17.875 3.54851 17.9178 3.44517 17.994 3.36899C18.0702 3.2928 18.1735 3.25 18.2812 3.25ZM7.71875 3.25C7.7991 3.25 7.87764 3.27383 7.94445 3.31847C8.01126 3.3631 8.06333 3.42655 8.09408 3.50078C8.12482 3.57502 8.13287 3.6567 8.11719 3.73551C8.10152 3.81431 8.06283 3.8867 8.00601 3.94351C7.9492 4.00033 7.87681 4.03902 7.79801 4.05469C7.7192 4.07037 7.63752 4.06232 7.56328 4.03158C7.48905 4.00083 7.4256 3.94876 7.38097 3.88195C7.33633 3.81514 7.3125 3.7366 7.3125 3.65625C7.3125 3.54851 7.3553 3.44517 7.43149 3.36899C7.50767 3.2928 7.61101 3.25 7.71875 3.25ZM5.6875 3.25C5.76785 3.25 5.84639 3.27383 5.9132 3.31847C5.98001 3.3631 6.03208 3.42655 6.06283 3.50078C6.09357 3.57502 6.10162 3.6567 6.08594 3.73551C6.07027 3.81431 6.03158 3.8867 5.97476 3.94351C5.91795 4.00033 5.84556 4.03902 5.76676 4.05469C5.68795 4.07037 5.60627 4.06232 5.53203 4.03158C5.4578 4.00083 5.39435 3.94876 5.34972 3.88195C5.30508 3.81514 5.28125 3.7366 5.28125 3.65625C5.28125 3.54851 5.32405 3.44517 5.40024 3.36899C5.47642 3.2928 5.57976 3.25 5.6875 3.25ZM3.65625 3.25C3.7366 3.25 3.81514 3.27383 3.88195 3.31847C3.94876 3.3631 4.00083 3.42655 4.03158 3.50078C4.06232 3.57502 4.07037 3.6567 4.05469 3.73551C4.03902 3.81431 4.00033 3.8867 3.94351 3.94351C3.8867 4.00033 3.81431 4.03902 3.73551 4.05469C3.6567 4.07037 3.57502 4.06232 3.50078 4.03158C3.42655 4.00083 3.3631 3.94876 3.31847 3.88195C3.27383 3.81514 3.25 3.7366 3.25 3.65625C3.25 3.54851 3.2928 3.44517 3.36899 3.36899C3.44517 3.2928 3.54851 3.25 3.65625 3.25ZM24.375 23.1562C24.374 23.4792 24.2453 23.7886 24.017 24.017C23.7886 24.2453 23.4792 24.374 23.1562 24.375H2.84375C2.52081 24.374 2.21138 24.2453 1.98303 24.017C1.75468 23.7886 1.62596 23.4792 1.625 23.1562V6.5H24.375V23.1562Z" fill="#5A7DFC"/>
<path d="M4.46875 17.4688H7.91375C8.36074 18.1954 8.95822 18.8178 9.66597 19.2942C10.3737 19.7705 11.1753 20.0896 12.0168 20.2301C12.8582 20.3706 13.72 20.3292 14.5442 20.1087C15.3683 19.8881 16.1356 19.4936 16.7944 18.9516L18.8662 20.6903C18.8398 20.8303 18.851 20.9749 18.8988 21.1091C18.9467 21.2433 19.0294 21.3624 19.1384 21.4541L21.32 23.2822C21.5677 23.4885 21.887 23.5885 22.2082 23.5603C22.5293 23.5322 22.8263 23.3782 23.0344 23.1319L23.5584 22.5063C23.7649 22.2586 23.8649 21.9393 23.8367 21.6181C23.8086 21.2969 23.6545 20.9999 23.4081 20.7919L21.2306 18.9638C21.1218 18.8713 20.9901 18.8097 20.8493 18.7854C20.7086 18.7611 20.5639 18.775 20.4303 18.8256L18.8175 17.4688H21.5312C21.8542 17.4678 22.1636 17.3391 22.392 17.1107C22.6203 16.8824 22.749 16.5729 22.75 16.25V12.5938C22.749 12.2708 22.6203 11.9614 22.392 11.733C22.1636 11.5047 21.8542 11.376 21.5312 11.375H18.2041C17.6828 10.4539 16.9264 9.68764 16.0121 9.1545C15.0978 8.62137 14.0584 8.34045 13 8.34045C11.9416 8.34045 10.9022 8.62137 9.98791 9.1545C9.07362 9.68764 8.31721 10.4539 7.79594 11.375H4.46875C4.14581 11.376 3.83638 11.5047 3.60803 11.733C3.37968 11.9614 3.25096 12.2708 3.25 12.5938V16.25C3.25096 16.5729 3.37968 16.8824 3.60803 17.1107C3.83638 17.3391 4.14581 17.4678 4.46875 17.4688ZM18.5859 12.1875H21.5312C21.639 12.1875 21.7423 12.2303 21.8185 12.3065C21.8947 12.3827 21.9375 12.486 21.9375 12.5938V16.25C21.9375 16.3577 21.8947 16.4611 21.8185 16.5373C21.7423 16.6135 21.639 16.6563 21.5312 16.6563H18.5128C19.1202 15.2335 19.1464 13.6294 18.5859 12.1875ZM17.8953 17.7572L19.825 19.3741L19.3009 19.9956L17.3834 18.3869C17.5705 18.1909 17.7417 17.9804 17.8953 17.7572ZM13 10.7778C13.7018 10.7782 14.3878 10.9867 14.9712 11.377C15.5545 11.7673 16.009 12.3217 16.2772 12.9703C16.5454 13.6189 16.6153 14.3324 16.478 15.0207C16.3407 15.709 16.0023 16.3411 15.5058 16.8371C15.0092 17.3331 14.3767 17.6707 13.6883 17.8072C12.9998 17.9437 12.2864 17.8731 11.6381 17.6041C10.9898 17.3352 10.4359 16.88 10.0463 16.2962C9.6567 15.7124 9.44897 15.0262 9.44938 14.3244C9.4512 13.3836 9.826 12.482 10.4916 11.8172C11.1572 11.1523 12.0592 10.7786 13 10.7778ZM4.0625 12.5938C4.0625 12.486 4.1053 12.3827 4.18149 12.3065C4.25767 12.2303 4.36101 12.1875 4.46875 12.1875H7.41406C6.85356 13.6294 6.87981 15.2335 7.48719 16.6563H4.46875C4.36101 16.6563 4.25767 16.6135 4.18149 16.5373C4.1053 16.4611 4.0625 16.3577 4.0625 16.25V12.5938Z" fill="#5A7DFC"/>
<path d="M12.1363 16.4471L13 14.8927L13.8637 16.4471C13.9065 16.5209 13.9714 16.5796 14.0493 16.6147C14.1271 16.6498 14.214 16.6596 14.2977 16.6428C14.3815 16.626 14.4578 16.5834 14.5161 16.521C14.5744 16.4585 14.6116 16.3794 14.6226 16.2947L15.0288 12.6385C15.0407 12.5314 15.0095 12.4239 14.9422 12.3398C14.8748 12.2557 14.7768 12.2018 14.6697 12.19C14.5626 12.1781 14.4552 12.2093 14.3711 12.2766C14.287 12.344 14.2331 12.442 14.2212 12.5491L13.9559 14.9395L13.3551 13.8588C13.3168 13.7995 13.2642 13.7507 13.2022 13.7169C13.1402 13.683 13.0707 13.6653 13 13.6653C12.9294 13.6653 12.8599 13.683 12.7978 13.7169C12.7358 13.7507 12.6833 13.7995 12.645 13.8588L12.0441 14.9395L11.7788 12.5491C11.767 12.442 11.7131 12.344 11.629 12.2766C11.5449 12.2093 11.4374 12.1781 11.3303 12.19C11.2232 12.2018 11.1252 12.2557 11.0579 12.3398C10.9905 12.4239 10.9594 12.5314 10.9712 12.6385L11.3775 16.2947C11.3885 16.3794 11.4257 16.4585 11.484 16.521C11.5422 16.5834 11.6186 16.626 11.7023 16.6428C11.786 16.6596 11.8729 16.6498 11.9508 16.6147C12.0286 16.5796 12.0935 16.5209 12.1363 16.4471Z" fill="#5A7DFC"/>
<path d="M7.71875 22.75C7.94312 22.75 8.125 22.5681 8.125 22.3438C8.125 22.1194 7.94312 21.9375 7.71875 21.9375C7.49438 21.9375 7.3125 22.1194 7.3125 22.3438C7.3125 22.5681 7.49438 22.75 7.71875 22.75Z" fill="#5A7DFC"/>
<path d="M3.65625 21.125H8.9375C9.04524 21.125 9.14858 21.0822 9.22476 21.006C9.30095 20.9298 9.34375 20.8265 9.34375 20.7188C9.34375 20.611 9.30095 20.5077 9.22476 20.4315C9.14858 20.3553 9.04524 20.3125 8.9375 20.3125H3.65625C3.54851 20.3125 3.44517 20.3553 3.36899 20.4315C3.2928 20.5077 3.25 20.611 3.25 20.7188C3.25 20.8265 3.2928 20.9298 3.36899 21.006C3.44517 21.0822 3.54851 21.125 3.65625 21.125Z" fill="#5A7DFC"/>
<path d="M3.65625 22.75H6.09375C6.20149 22.75 6.30483 22.7072 6.38101 22.631C6.4572 22.5548 6.5 22.4515 6.5 22.3438C6.5 22.236 6.4572 22.1327 6.38101 22.0565C6.30483 21.9803 6.20149 21.9375 6.09375 21.9375H3.65625C3.54851 21.9375 3.44517 21.9803 3.36899 22.0565C3.2928 22.1327 3.25 22.236 3.25 22.3438C3.25 22.4515 3.2928 22.5548 3.36899 22.631C3.44517 22.7072 3.54851 22.75 3.65625 22.75Z" fill="#5A7DFC"/>
</svg>
