<svg width="23" height="40" viewBox="0 0 23 40" fill="none" xmlns="http://www.w3.org/2000/svg">
<path fill-rule="evenodd" clip-rule="evenodd" d="M7.93466 36.5981L7.34411 36.9374L2.67047 39.6204C1.30077 40.4047 0 40.0216 0 38.039V30.7562C0 29.6649 0.697195 28.6923 1.80545 28.0564L10.0744 23.3224L13.2093 21.5282C15.6807 20.1093 18.3928 18.524 19.0809 15.4927V17.8532C19.0809 19.9377 18.4227 23.4334 14.9809 25.3489C14.5803 25.572 14.1705 25.7913 13.7881 26.0106L12.2272 26.9006L4.19627 31.4991V33.9319L7.81761 31.8177L7.89173 31.7752L10.6637 30.2144L13.8024 28.4176C16.2739 26.9987 18.986 25.4147 19.6741 22.3821V24.74C19.6741 26.8245 19.0159 30.3202 15.5741 32.2344C15.1721 32.4575 14.7624 32.6768 14.38 32.8961L12.8346 33.7823L7.93466 36.5981Z" fill="url(#paint0_linear_1_23)"/>
<path fill-rule="evenodd" clip-rule="evenodd" d="M14.6154 3.4024L15.2072 3.06315L19.8809 0.380147C21.2506 -0.404116 22.5526 -0.0210136 22.5526 1.96157V9.24309C22.5526 10.3356 21.8568 11.3069 20.7485 11.9442L12.4795 16.6781L9.3421 18.475C6.87065 19.8939 4.15854 21.4791 3.47043 24.5104V22.1499C3.47043 20.0641 4.12862 16.5698 7.56914 14.6543C7.97108 14.4311 8.38084 14.2118 8.76327 13.9925L10.3242 13.1025L18.3499 8.50011V6.06992L14.7286 8.18537L14.6544 8.22923L11.8786 9.79001L8.73983 11.5869C6.26838 13.0058 3.5563 14.5898 2.86819 17.621V15.2605C2.86819 13.176 3.52638 9.68037 6.96821 7.76615C7.36884 7.543 7.77988 7.32242 8.1623 7.10314L9.71671 6.2131L14.6154 3.4024Z" fill="url(#paint1_linear_1_23)"/>
<defs>
<linearGradient id="paint0_linear_1_23" x1="21.3466" y1="10.298" x2="-18.728" y2="17.0696" gradientUnits="userSpaceOnUse">
<stop stop-color="#85B4FB"/>
<stop offset="1" stop-color="#2F4BE2"/>
</linearGradient>
<linearGradient id="paint1_linear_1_23" x1="24.2261" y1="-5.19521" x2="-15.8688" y2="1.58266" gradientUnits="userSpaceOnUse">
<stop stop-color="#85B4FB"/>
<stop offset="1" stop-color="#2F4BE2"/>
</linearGradient>
</defs>
</svg>
