<svg width="147" height="50" viewBox="0 0 147 50" fill="none" xmlns="http://www.w3.org/2000/svg">
<g clip-path="url(#clip0_1032_11453)">
<path fill-rule="evenodd" clip-rule="evenodd" d="M18.0989 4.21249L18.8316 3.79247L24.618 0.470658C26.3139 -0.500334 27.9259 -0.0260168 27.9259 2.42861V11.4438C27.9259 12.7965 27.0643 13.9991 25.6922 14.788L15.4544 20.6491L11.57 22.8738C8.51011 24.6305 5.15226 26.5932 4.30032 30.3462V27.4237C4.30032 24.8413 5.11522 20.5149 9.37491 18.1434C9.87255 17.8671 10.3799 17.5956 10.8534 17.3241L12.7859 16.2221L22.7225 10.5239V7.51514L18.2389 10.1343L18.1471 10.1886L14.7104 12.121L10.8243 14.3456C7.76444 16.1024 4.40663 18.0635 3.55469 21.8165V18.894C3.55469 16.3132 4.36959 11.9852 8.63089 9.61523C9.12692 9.33895 9.63582 9.06586 10.1093 8.79436L12.0338 7.69241L18.0989 4.21249Z" fill="url(#paint0_linear_1032_11453)"/>
<path fill-rule="evenodd" clip-rule="evenodd" d="M9.82729 45.3122L9.09613 45.7322L3.30972 49.054C1.61389 50.025 0.00341797 49.5507 0.00341797 47.0961V38.0793C0.00341797 36.7282 0.866611 35.524 2.23873 34.7367L12.4765 28.8756L16.3578 26.6541C19.4177 24.8974 22.7755 22.9347 23.6274 19.1816V22.1042C23.6274 24.685 22.8125 29.0129 18.5512 31.3845C18.0552 31.6608 17.5479 31.9323 17.0744 32.2038L15.1418 33.3057L5.1988 38.9992V42.0111L9.68236 39.3936L9.77413 39.3409L13.2061 37.4085L17.0921 35.1839C20.152 33.4271 23.5098 31.466 24.3618 27.7114V30.6307C24.3618 33.2115 23.5469 37.5395 19.2856 39.9095C18.7879 40.1857 18.2807 40.4572 17.8072 40.7287L15.8939 41.8259L9.82729 45.3122Z" fill="url(#paint1_linear_1032_11453)"/>
<path d="M46.9549 20.6537C46.0128 19.6716 44.3701 19.2404 43.0415 19.2404C41.3746 19.2404 40.0218 19.9351 40.0218 21.0849C40.0218 22.6181 41.4954 22.9055 43.6695 23.0972C47.0032 23.3847 50.1678 24.6543 50.1678 28.5271C50.1678 32.2641 46.6892 33.8931 43.0415 33.917C40.1185 33.941 37.0827 32.8151 35.6494 30.4675L37.896 28.1454C39.2005 29.7967 41.3504 30.5154 43.0656 30.5154C45.0706 30.5154 46.4476 29.7249 46.4476 28.5271C46.4717 27.1137 45.3364 26.4685 43.0415 26.2753C39.4662 25.9415 36.2775 25.0551 36.3258 21.1025C36.35 17.7727 39.5387 16 43.0173 16C45.6263 16 47.583 16.5749 49.3223 18.5872L46.9549 20.6537Z" fill="url(#paint2_linear_1032_11453)"/>
<path d="M50.6751 27.4794C50.6751 23.9117 53.2357 21.2766 57.1975 21.2766C61.1834 21.2766 63.7441 23.9117 63.7441 27.4794C63.7441 31.0472 61.2559 33.636 57.1975 33.636C53.1632 33.636 50.6751 31.0488 50.6751 27.4794ZM60.2171 27.4794C60.2171 25.9958 59.2991 24.3668 57.1975 24.3668C55.12 24.3668 54.202 25.9958 54.202 27.4794C54.202 28.9631 55.0958 30.5697 57.1975 30.5697C59.3233 30.5697 60.2171 29.0365 60.2171 27.4794Z" fill="url(#paint3_linear_1032_11453)"/>
<path d="M73.6243 33.3725V27.1201C73.6243 25.3011 72.8271 24.3668 71.1603 24.3668C69.5418 24.3429 68.4547 25.7323 68.4547 27.2654V33.3725H65.0244V21.5401H68.1648L68.2856 23.0493C69.3485 21.6838 70.7013 21.2287 72.1507 21.2526C74.8321 21.2526 77.127 22.4983 77.127 27.0961V33.3725H73.6243Z" fill="url(#paint4_linear_1032_11453)"/>
<path d="M88.1668 21.5401H91.428V33.3725H88.2876L88.0944 31.8872C87.2972 33.1329 85.582 33.612 84.4225 33.636C80.8472 33.6599 78.2624 31.3602 78.2624 27.4555C78.2624 23.5507 80.9922 21.2271 84.5191 21.2766C86.0169 21.2766 87.418 21.8515 88.046 22.9055L88.1668 21.5401ZM81.7411 27.4491C81.7411 29.4134 83.1422 30.5633 84.8815 30.5633C86.8382 30.5633 88.046 29.0541 88.046 27.5689C88.046 25.8696 86.959 24.3125 84.8815 24.3125C83.1422 24.3189 81.7411 25.4927 81.7411 27.4555V27.4491Z" fill="url(#paint5_linear_1032_11453)"/>
<path d="M95.9873 19.9351H90.8419V16.6053H104.877V19.9351H99.7316V33.3725H95.9873V19.9351Z" fill="url(#paint6_linear_1032_11453)"/>
<path d="M102.734 27.4794C102.734 23.9117 105.294 21.2766 109.256 21.2766C113.242 21.2766 115.803 23.9117 115.803 27.4794C115.803 31.0472 113.314 33.636 109.256 33.636C105.222 33.636 102.734 31.0488 102.734 27.4794ZM112.276 27.4794C112.276 25.9958 111.358 24.3668 109.256 24.3668C107.178 24.3668 106.26 25.9958 106.26 27.4794C106.26 28.9631 107.154 30.5697 109.256 30.5697C111.382 30.5697 112.276 29.0365 112.276 27.4794Z" fill="url(#paint7_linear_1032_11453)"/>
<path d="M116.382 27.4794C116.382 23.9117 118.943 21.2766 122.905 21.2766C126.891 21.2766 129.451 23.9117 129.451 27.4794C129.451 31.0472 126.963 33.636 122.905 33.636C118.87 33.636 116.382 31.0488 116.382 27.4794ZM125.924 27.4794C125.924 25.9958 125.006 24.3668 122.905 24.3668C120.827 24.3668 119.909 25.9958 119.909 27.4794C119.909 28.9631 120.803 30.5697 122.905 30.5697C125.03 30.5697 125.924 29.0365 125.924 27.4794Z" fill="url(#paint8_linear_1032_11453)"/>
<path d="M134.234 16.6292V33.3725H130.773V16.6292H134.234Z" fill="url(#paint9_linear_1032_11453)"/>
<path d="M143.776 24.8938C142.957 24.303 141.963 23.9995 140.95 24.0314C139.815 24.0314 139.235 24.4387 139.235 25.0136C139.235 25.6604 139.839 26.0197 140.998 26.0421C143.342 26.1156 146.168 26.5947 146.192 29.851C146.216 31.7674 144.767 33.8276 140.974 33.8276C139.203 33.8276 137.399 33.4922 135.37 31.8154L136.867 29.3719C138.03 30.3413 139.503 30.8679 141.022 30.8571C142.037 30.8811 142.834 30.4739 142.81 29.851C142.81 29.3 142.399 28.8449 140.781 28.797C138.558 28.7012 135.788 27.7924 135.788 25.0136C135.788 22.3306 138.349 21.2047 140.934 21.2047C142.77 21.2047 144.243 21.6599 145.5 22.7379L143.776 24.8938Z" fill="url(#paint10_linear_1032_11453)"/>
</g>
<defs>
<linearGradient id="paint0_linear_1032_11453" x1="29.9978" y1="-6.43217" x2="-19.6435" y2="1.95949" gradientUnits="userSpaceOnUse">
<stop stop-color="#85B4FB"/>
<stop offset="1" stop-color="#2F4BE2"/>
</linearGradient>
<linearGradient id="paint1_linear_1032_11453" x1="26.4326" y1="12.7502" x2="-23.1837" y2="21.134" gradientUnits="userSpaceOnUse">
<stop stop-color="#85B4FB"/>
<stop offset="1" stop-color="#2F4BE2"/>
</linearGradient>
<linearGradient id="paint2_linear_1032_11453" x1="155.59" y1="12.2022" x2="69.381" y2="124.157" gradientUnits="userSpaceOnUse">
<stop stop-color="#85B4FB"/>
<stop offset="1" stop-color="#2F4BE2"/>
</linearGradient>
<linearGradient id="paint3_linear_1032_11453" x1="155.59" y1="12.2022" x2="69.381" y2="124.157" gradientUnits="userSpaceOnUse">
<stop stop-color="#85B4FB"/>
<stop offset="1" stop-color="#2F4BE2"/>
</linearGradient>
<linearGradient id="paint4_linear_1032_11453" x1="155.59" y1="12.2022" x2="69.381" y2="124.157" gradientUnits="userSpaceOnUse">
<stop stop-color="#85B4FB"/>
<stop offset="1" stop-color="#2F4BE2"/>
</linearGradient>
<linearGradient id="paint5_linear_1032_11453" x1="155.59" y1="12.2022" x2="69.381" y2="124.157" gradientUnits="userSpaceOnUse">
<stop stop-color="#85B4FB"/>
<stop offset="1" stop-color="#2F4BE2"/>
</linearGradient>
<linearGradient id="paint6_linear_1032_11453" x1="155.59" y1="12.2022" x2="69.381" y2="124.157" gradientUnits="userSpaceOnUse">
<stop stop-color="#85B4FB"/>
<stop offset="1" stop-color="#2F4BE2"/>
</linearGradient>
<linearGradient id="paint7_linear_1032_11453" x1="155.59" y1="12.2022" x2="69.381" y2="124.157" gradientUnits="userSpaceOnUse">
<stop stop-color="#85B4FB"/>
<stop offset="1" stop-color="#2F4BE2"/>
</linearGradient>
<linearGradient id="paint8_linear_1032_11453" x1="155.59" y1="12.2022" x2="69.381" y2="124.157" gradientUnits="userSpaceOnUse">
<stop stop-color="#85B4FB"/>
<stop offset="1" stop-color="#2F4BE2"/>
</linearGradient>
<linearGradient id="paint9_linear_1032_11453" x1="155.59" y1="12.2022" x2="69.381" y2="124.157" gradientUnits="userSpaceOnUse">
<stop stop-color="#85B4FB"/>
<stop offset="1" stop-color="#2F4BE2"/>
</linearGradient>
<linearGradient id="paint10_linear_1032_11453" x1="155.59" y1="12.2022" x2="69.381" y2="124.157" gradientUnits="userSpaceOnUse">
<stop stop-color="#85B4FB"/>
<stop offset="1" stop-color="#2F4BE2"/>
</linearGradient>
<clipPath id="clip0_1032_11453">
<rect width="146.667" height="50" fill="white"/>
</clipPath>
</defs>
</svg>
