<svg width="117" height="40" viewBox="0 0 117 40" fill="none" xmlns="http://www.w3.org/2000/svg">
<path fill-rule="evenodd" clip-rule="evenodd" d="M14.4786 3.37048L15.0648 3.03447L19.6939 0.377015C21.0506 -0.399779 22.3402 -0.0203251 22.3402 1.94338V9.15555C22.3402 10.2377 21.651 11.1997 20.5533 11.8309L12.3631 16.5198L9.25551 18.2995C6.8076 19.7049 4.12132 21.2751 3.43976 24.2775V21.9394C3.43976 19.8735 4.09168 16.4124 7.49944 14.5152C7.89755 14.2941 8.30341 14.077 8.68219 13.8598L10.2282 12.9782L18.1775 8.41964V6.0126L14.5907 8.1079L14.5172 8.15134L11.7678 9.69726L8.65898 11.477C6.21106 12.8824 3.52481 14.4513 2.84326 17.4537V15.1157C2.84326 13.051 3.49518 9.58867 6.90423 7.69268C7.30105 7.47165 7.70816 7.25317 8.08695 7.03598L9.62655 6.15442L14.4786 3.37048Z" fill="url(#paint0_linear_105_7)"/>
<path fill-rule="evenodd" clip-rule="evenodd" d="M7.86154 36.2501L7.27661 36.5862L2.64748 39.2436C1.29082 40.0204 0.00244141 39.641 0.00244141 37.6773V30.4638C0.00244141 29.3829 0.692996 28.4196 1.79069 27.7897L9.98091 23.1009L13.0859 21.3237C15.5338 19.9183 18.2201 18.3481 18.9016 15.3457V17.6838C18.9016 19.7484 18.2497 23.2107 14.8407 25.108C14.4438 25.329 14.038 25.5462 13.6592 25.7634L12.1132 26.645L4.15875 31.1997V33.6093L7.7456 31.5153L7.81901 31.4731L10.5646 29.9272L13.6734 28.1475C16.1213 26.7421 18.8076 25.1732 19.4891 22.1695V24.505C19.4891 26.5696 18.8372 30.032 15.4282 31.928C15.0301 32.149 14.6242 32.3662 14.2455 32.5834L12.7148 33.4611L7.86154 36.2501Z" fill="url(#paint1_linear_105_7)"/>
<path d="M37.5639 10.1991C36.8102 9.41333 35.4961 9.06837 34.4332 9.06837C33.0997 9.06837 32.0175 9.62413 32.0175 10.544C32.0175 11.7705 33.1963 12.0005 34.9356 12.1538C37.6026 12.3838 40.1342 13.3995 40.1342 16.4977C40.1342 19.4874 37.3513 20.7905 34.4332 20.8097C32.0948 20.8289 29.6662 19.9282 28.5195 18.05L30.3168 16.1924C31.3604 17.5134 33.0804 18.0884 34.4525 18.0884C36.0565 18.0884 37.1581 17.456 37.1581 16.4977C37.1774 15.367 36.2691 14.8509 34.4332 14.6963C31.573 14.4293 29.022 13.7202 29.0606 10.5581C29.08 7.89423 31.631 6.47607 34.4139 6.47607C36.501 6.47607 38.0664 6.93602 39.4578 8.54582L37.5639 10.1991Z" fill="url(#paint2_linear_105_7)"/>
<path d="M40.5401 15.6596C40.5401 12.8054 42.5886 10.6973 45.758 10.6973C48.9467 10.6973 50.9953 12.8054 50.9953 15.6596C50.9953 18.5138 49.0047 20.5849 45.758 20.5849C42.5306 20.5849 40.5401 18.5151 40.5401 15.6596ZM48.1737 15.6596C48.1737 14.4727 47.4393 13.1695 45.758 13.1695C44.096 13.1695 43.3616 14.4727 43.3616 15.6596C43.3616 16.8465 44.0767 18.1318 45.758 18.1318C47.4586 18.1318 48.1737 16.9053 48.1737 15.6596Z" fill="url(#paint3_linear_105_7)"/>
<path d="M58.8994 20.374V15.3722C58.8994 13.9169 58.2617 13.1695 56.9282 13.1695C55.6334 13.1504 54.7637 14.2619 54.7637 15.4884V20.374H52.0195V10.9081H54.5318L54.6285 12.1155C55.4788 11.0231 56.561 10.659 57.7206 10.6782C59.8657 10.6782 61.7016 11.6747 61.7016 15.353V20.374H58.8994Z" fill="url(#paint4_linear_105_7)"/>
<path d="M70.5335 10.9081H73.1424V20.374H70.6301L70.4755 19.1859C69.8378 20.1824 68.4656 20.5657 67.538 20.5849C64.6778 20.604 62.61 18.7642 62.61 15.6405C62.61 12.5167 64.7938 10.6577 67.6153 10.6973C68.8135 10.6973 69.9344 11.1573 70.4368 12.0005L70.5335 10.9081ZM65.3929 15.6353C65.3929 17.2068 66.5137 18.1267 67.9052 18.1267C69.4706 18.1267 70.4368 16.9194 70.4368 15.7312C70.4368 14.3718 69.5672 13.1261 67.9052 13.1261C66.5137 13.1312 65.3929 14.0703 65.3929 15.6405V15.6353Z" fill="url(#paint5_linear_105_7)"/>
<path d="M76.7898 9.62413H72.6735V6.96029H83.9017V9.62413H79.7853V20.374H76.7898V9.62413Z" fill="url(#paint6_linear_105_7)"/>
<path d="M82.1868 15.6596C82.1868 12.8054 84.2353 10.6973 87.4048 10.6973C90.5935 10.6973 92.642 12.8054 92.642 15.6596C92.642 18.5138 90.6515 20.5849 87.4048 20.5849C84.1774 20.5849 82.1868 18.5151 82.1868 15.6596ZM89.8205 15.6596C89.8205 14.4727 89.0861 13.1695 87.4048 13.1695C85.7427 13.1695 85.0084 14.4727 85.0084 15.6596C85.0084 16.8465 85.7234 18.1318 87.4048 18.1318C89.1054 18.1318 89.8205 16.9053 89.8205 15.6596Z" fill="url(#paint7_linear_105_7)"/>
<path d="M93.1058 15.6596C93.1058 12.8054 95.1543 10.6973 98.3237 10.6973C101.512 10.6973 103.561 12.8054 103.561 15.6596C103.561 18.5138 101.57 20.5849 98.3237 20.5849C95.0964 20.5849 93.1058 18.5151 93.1058 15.6596ZM100.739 15.6596C100.739 14.4727 100.005 13.1695 98.3237 13.1695C96.6617 13.1695 95.9274 14.4727 95.9274 15.6596C95.9274 16.8465 96.6424 18.1318 98.3237 18.1318C100.024 18.1318 100.739 16.9053 100.739 15.6596Z" fill="url(#paint8_linear_105_7)"/>
<path d="M107.387 6.97946V20.374H104.619V6.97946H107.387Z" fill="url(#paint9_linear_105_7)"/>
<path d="M115.021 13.5911C114.366 13.1184 113.57 12.8757 112.76 12.9012C111.852 12.9012 111.388 13.227 111.388 13.687C111.388 14.2044 111.871 14.4919 112.799 14.5098C114.673 14.5685 116.934 14.9518 116.954 17.5569C116.973 19.09 115.813 20.7382 112.779 20.7382C111.362 20.7382 109.919 20.4699 108.296 19.1284L109.494 17.1736C110.424 17.9491 111.603 18.3704 112.818 18.3618C113.63 18.381 114.267 18.0552 114.248 17.5569C114.248 17.1161 113.92 16.752 112.625 16.7137C110.847 16.637 108.631 15.91 108.631 13.687C108.631 11.5406 110.679 10.6398 112.747 10.6398C114.216 10.6398 115.395 11.004 116.4 11.8664L115.021 13.5911Z" fill="url(#paint10_linear_105_7)"/>
<rect x="28.5713" y="24.7617" width="34.2857" height="13.7143" rx="6.85714" fill="#FFCC00"/>
<path d="M35.1851 35.1068V28.0129H37.8273C38.3393 28.0129 38.7632 28.0961 39.0991 28.2623C39.4349 28.4263 39.6862 28.6491 39.853 28.9308C40.0197 29.2103 40.1031 29.5255 40.1031 29.8765C40.1031 30.172 40.0479 30.4214 39.9375 30.6246C39.8271 30.8255 39.6792 30.9872 39.4936 31.1096C39.3104 31.2296 39.1084 31.3174 38.8877 31.3728V31.4421C39.1272 31.4536 39.3609 31.5298 39.5887 31.6707C39.8189 31.8092 40.0091 32.0067 40.1595 32.263C40.3098 32.5193 40.3849 32.8311 40.3849 33.1982C40.3849 33.5608 40.298 33.8864 40.1242 34.175C39.9528 34.4614 39.6874 34.6888 39.328 34.8574C38.9687 35.0236 38.5095 35.1068 37.9506 35.1068H35.1851ZM36.2736 34.1889H37.8449C38.3663 34.1889 38.7397 34.0896 38.9652 33.891C39.1907 33.6924 39.3034 33.4442 39.3034 33.1463C39.3034 32.9223 39.2458 32.7168 39.1308 32.5297C39.0157 32.3427 38.8513 32.1937 38.6375 32.0829C38.4262 31.972 38.1749 31.9166 37.8836 31.9166H36.2736V34.1889ZM36.2736 31.0819H37.7322C37.9764 31.0819 38.196 31.0357 38.3909 30.9433C38.5882 30.8509 38.7444 30.7216 38.8595 30.5554C38.9769 30.3868 39.0356 30.1882 39.0356 29.9596C39.0356 29.6663 38.9311 29.4204 38.7221 29.2218C38.5131 29.0232 38.1925 28.9239 37.7603 28.9239H36.2736V31.0819Z" fill="white"/>
<path d="M44.2214 35.2142C43.6882 35.2142 43.2291 35.1022 42.8439 34.8782C42.4611 34.6519 42.1651 34.3343 41.9561 33.9256C41.7494 33.5146 41.6461 33.0331 41.6461 32.4812C41.6461 31.9363 41.7494 31.4559 41.9561 31.0403C42.1651 30.6246 42.4564 30.3002 42.8298 30.067C43.2056 29.8337 43.6448 29.7171 44.1474 29.7171C44.4527 29.7171 44.7486 29.7668 45.0352 29.8661C45.3217 29.9654 45.5789 30.1212 45.8067 30.3337C46.0345 30.5461 46.2142 30.8221 46.3457 31.1615C46.4772 31.4987 46.543 31.9085 46.543 32.3912V32.7583H42.2415V31.9824H45.5108C45.5108 31.71 45.4544 31.4686 45.3416 31.2585C45.2289 31.0461 45.0704 30.8786 44.8661 30.7563C44.6641 30.6339 44.4269 30.5727 44.1544 30.5727C43.8585 30.5727 43.6001 30.6443 43.3794 30.7874C43.1609 30.9283 42.9918 31.113 42.8721 31.3416C42.7546 31.5679 42.6959 31.8139 42.6959 32.0794V32.6856C42.6959 33.0412 42.7593 33.3437 42.8862 33.5931C43.0153 33.8425 43.195 34.033 43.4252 34.1646C43.6553 34.2939 43.9242 34.3586 44.2319 34.3586C44.4316 34.3586 44.6136 34.3309 44.778 34.2755C44.9424 34.2177 45.0845 34.1323 45.2043 34.0191C45.324 33.906 45.4156 33.7663 45.479 33.6L46.476 33.7767C46.3962 34.0653 46.2529 34.3182 46.0462 34.5352C45.8419 34.75 45.5847 34.9174 45.2747 35.0375C44.967 35.1553 44.6159 35.2142 44.2214 35.2142Z" fill="white"/>
<path d="M50.5353 29.7864V30.6177H47.5795V29.7864H50.5353ZM48.3722 28.5117H49.4256V33.5446C49.4256 33.7455 49.4561 33.8968 49.5172 33.9984C49.5782 34.0977 49.6569 34.1658 49.7532 34.2027C49.8518 34.2374 49.9587 34.2547 50.0738 34.2547C50.1583 34.2547 50.2323 34.2489 50.2957 34.2374C50.3591 34.2258 50.4085 34.2166 50.4437 34.2097L50.6339 35.0652C50.5729 35.0883 50.486 35.1114 50.3732 35.1345C50.2605 35.1599 50.1196 35.1737 49.9505 35.176C49.6733 35.1807 49.415 35.1322 49.1754 35.0306C48.9359 34.929 48.7421 34.7719 48.5941 34.5595C48.4462 34.347 48.3722 34.0803 48.3722 33.7594V28.5117Z" fill="white"/>
<path d="M53.5729 35.2245C53.23 35.2245 52.92 35.1622 52.6428 35.0375C52.3657 34.9105 52.1461 34.7269 51.984 34.4868C51.8243 34.2466 51.7445 33.9522 51.7445 33.6035C51.7445 33.3033 51.8032 33.0562 51.9206 32.8622C52.038 32.6683 52.1966 32.5147 52.3962 32.4016C52.5958 32.2884 52.819 32.203 53.0656 32.1452C53.3122 32.0875 53.5635 32.0436 53.8195 32.0136C54.1436 31.9767 54.4066 31.9466 54.6086 31.9236C54.8106 31.8982 54.9574 31.8577 55.049 31.8023C55.1406 31.7469 55.1864 31.6568 55.1864 31.5321V31.5079C55.1864 31.2054 55.0995 30.971 54.9257 30.8048C54.7542 30.6385 54.4982 30.5554 54.1577 30.5554C53.803 30.5554 53.5236 30.6327 53.3192 30.7874C53.1172 30.9398 52.9775 31.1096 52.9 31.2966L51.91 31.0749C52.0275 30.7516 52.1989 30.4907 52.4244 30.2921C52.6522 30.0912 52.9141 29.9457 53.21 29.8557C53.5059 29.7633 53.8171 29.7171 54.1436 29.7171C54.3597 29.7171 54.5887 29.7425 54.8306 29.7933C55.0748 29.8418 55.3026 29.9319 55.514 30.0635C55.7277 30.1951 55.9027 30.3833 56.0389 30.6281C56.1752 30.8706 56.2433 31.1858 56.2433 31.5737V35.1068H55.2146V34.3794H55.1723C55.1042 34.5133 55.002 34.6449 54.8658 34.7742C54.7296 34.9036 54.5546 35.0109 54.3409 35.0964C54.1272 35.1818 53.8712 35.2245 53.5729 35.2245ZM53.8019 34.3932C54.0931 34.3932 54.3421 34.3367 54.5487 34.2235C54.7578 34.1104 54.9163 33.9626 55.0243 33.7801C55.1347 33.5954 55.1899 33.398 55.1899 33.1878V32.502C55.1523 32.539 55.0795 32.5736 54.9715 32.6059C54.8658 32.6359 54.7448 32.6625 54.6086 32.6856C54.4724 32.7064 54.3397 32.726 54.2105 32.7445C54.0814 32.7606 53.9733 32.7745 53.8864 32.786C53.6821 32.8114 53.4954 32.8542 53.3263 32.9142C53.1595 32.9742 53.0256 33.0608 52.9247 33.174C52.826 33.2848 52.7767 33.4326 52.7767 33.6173C52.7767 33.8737 52.873 34.0676 53.0656 34.1993C53.2582 34.3286 53.5036 34.3932 53.8019 34.3932Z" fill="white"/>
<defs>
<linearGradient id="paint0_linear_105_7" x1="23.9977" y1="-5.14524" x2="-15.7153" y2="1.56808" gradientUnits="userSpaceOnUse">
<stop stop-color="#85B4FB"/>
<stop offset="1" stop-color="#2F4BE2"/>
</linearGradient>
<linearGradient id="paint1_linear_105_7" x1="21.1458" y1="10.2005" x2="-18.5472" y2="16.9076" gradientUnits="userSpaceOnUse">
<stop stop-color="#85B4FB"/>
<stop offset="1" stop-color="#2F4BE2"/>
</linearGradient>
<linearGradient id="paint2_linear_105_7" x1="124.472" y1="3.43786" x2="55.5048" y2="93.0013" gradientUnits="userSpaceOnUse">
<stop stop-color="#85B4FB"/>
<stop offset="1" stop-color="#2F4BE2"/>
</linearGradient>
<linearGradient id="paint3_linear_105_7" x1="124.472" y1="3.43786" x2="55.5048" y2="93.0013" gradientUnits="userSpaceOnUse">
<stop stop-color="#85B4FB"/>
<stop offset="1" stop-color="#2F4BE2"/>
</linearGradient>
<linearGradient id="paint4_linear_105_7" x1="124.472" y1="3.43786" x2="55.5048" y2="93.0013" gradientUnits="userSpaceOnUse">
<stop stop-color="#85B4FB"/>
<stop offset="1" stop-color="#2F4BE2"/>
</linearGradient>
<linearGradient id="paint5_linear_105_7" x1="124.472" y1="3.43786" x2="55.5048" y2="93.0013" gradientUnits="userSpaceOnUse">
<stop stop-color="#85B4FB"/>
<stop offset="1" stop-color="#2F4BE2"/>
</linearGradient>
<linearGradient id="paint6_linear_105_7" x1="124.472" y1="3.43786" x2="55.5048" y2="93.0013" gradientUnits="userSpaceOnUse">
<stop stop-color="#85B4FB"/>
<stop offset="1" stop-color="#2F4BE2"/>
</linearGradient>
<linearGradient id="paint7_linear_105_7" x1="124.472" y1="3.43786" x2="55.5048" y2="93.0013" gradientUnits="userSpaceOnUse">
<stop stop-color="#85B4FB"/>
<stop offset="1" stop-color="#2F4BE2"/>
</linearGradient>
<linearGradient id="paint8_linear_105_7" x1="124.472" y1="3.43786" x2="55.5048" y2="93.0013" gradientUnits="userSpaceOnUse">
<stop stop-color="#85B4FB"/>
<stop offset="1" stop-color="#2F4BE2"/>
</linearGradient>
<linearGradient id="paint9_linear_105_7" x1="124.472" y1="3.43786" x2="55.5048" y2="93.0013" gradientUnits="userSpaceOnUse">
<stop stop-color="#85B4FB"/>
<stop offset="1" stop-color="#2F4BE2"/>
</linearGradient>
<linearGradient id="paint10_linear_105_7" x1="124.472" y1="3.43786" x2="55.5048" y2="93.0013" gradientUnits="userSpaceOnUse">
<stop stop-color="#85B4FB"/>
<stop offset="1" stop-color="#2F4BE2"/>
</linearGradient>
</defs>
</svg>
