<svg width="47" height="47" viewBox="0 0 47 47" fill="none" xmlns="http://www.w3.org/2000/svg">
<g clip-path="url(#clip0_1417_18082)">
<path d="M9.55258 28.0289L9.55265 28.0289L20.0994 14.7471L9.55258 28.0289ZM9.55258 28.0289C9.26617 28.3904 9.26705 28.9034 9.55559 29.2631L9.55561 29.2631M9.55258 28.0289L9.55561 29.2631M9.55561 29.2631C9.84529 29.624 10.3447 29.7317 10.7552 29.5254L10.7552 29.5254M9.55561 29.2631L10.7552 29.5254M10.7552 29.5254L20.6704 24.5304L25.4445 29.34C25.8608 29.7595 26.5396 29.7136 26.9015 29.2593L26.9016 29.2592M10.7552 29.5254L26.9016 29.2592M26.9016 29.2592L37.4484 15.9772L37.4485 15.9772M26.9016 29.2592L37.4485 15.9772M37.4485 15.9772C37.7349 15.6157 37.734 15.1027 37.4455 14.743C37.1568 14.3832 36.6574 14.2734 36.2458 14.4807L36.2458 14.4807M37.4485 15.9772L36.2458 14.4807M36.2458 14.4807L26.3307 19.4757L21.5557 14.6661C21.3592 14.4681 21.088 14.3623 20.8094 14.3781C20.5313 14.3939 20.2728 14.528 20.0995 14.7469L36.2458 14.4807ZM33.1366 18.2508L26.5748 21.5562L33.1366 18.2508ZM33.1366 18.2508L26.0556 27.1677L21.5557 22.6343C21.3679 22.445 21.1171 22.3453 20.8634 22.3453C20.7147 22.3453 20.5648 22.3789 20.4255 22.449L13.8636 25.7544L20.9446 16.8375L25.4443 21.3708C25.7419 21.6715 26.1974 21.7467 26.5747 21.5562L33.1366 18.2508Z" fill="#465D85" stroke="#465D85" stroke-width="0.2"/>
<path d="M26.4767 1.71884L26.4767 1.71867C26.5685 1.18334 27.0732 0.821658 27.6076 0.914512C38.2876 2.76134 46.1 11.6813 46.0991 22.0029C46.0991 33.5821 36.2688 43.4425 23.4991 43.4425C21.4479 43.4425 19.4165 43.1824 17.4553 42.6674L10.1958 46.0099L26.4767 1.71884ZM26.4767 1.71884C26.3859 2.25413 26.7423 2.764 27.2753 2.8568L27.2754 2.85682L26.4767 1.71884ZM16.9622 40.7272L16.9625 40.7271C17.1717 40.6315 17.4086 40.6117 17.6312 40.6739C17.6312 40.6739 17.6312 40.6739 17.6312 40.6739L17.6043 40.7702L16.9622 40.7272ZM16.9622 40.7272L10.768 43.5795V37.8199C10.768 37.5147 10.6273 37.226 10.3865 37.0396C5.6005 33.3246 2.85781 27.844 2.85781 22.0038C2.85781 12.6049 9.94772 4.54927 19.7246 2.85681L19.7246 2.8568M16.9622 40.7272L19.7246 2.8568M19.7246 2.8568C20.2585 2.76403 20.6151 2.25415 20.5233 1.71867C20.4314 1.18333 19.926 0.821691 19.3925 0.914501C8.73805 2.75862 0.9 11.6545 0.9 22.0038C0.9 28.3046 3.77704 34.2155 8.81016 38.2979V45.1143C8.81016 45.449 8.9792 45.7614 9.25918 45.9429L9.25932 45.943M19.7246 2.8568L9.25932 45.943M9.25932 45.943C9.54007 46.1243 9.89271 46.1502 10.1956 46.01L9.25932 45.943Z" fill="#465D85" stroke="#465D85" stroke-width="0.2"/>
</g>
<defs>
<clipPath id="clip0_1417_18082">
<rect width="47" height="47" fill="white"/>
</clipPath>
</defs>
</svg>
