<svg width="22" height="22" viewBox="0 0 22 22" fill="none" xmlns="http://www.w3.org/2000/svg">
<mask id="mask0_989_9967" style="mask-type:alpha" maskUnits="userSpaceOnUse" x="2" y="2" width="18" height="18">
<path d="M7.35075 2.0625H14.6493C16.4883 2.0625 17.1552 2.25363 17.8276 2.61319C18.4993 2.97275 19.0273 3.50006 19.3868 4.17244C19.7464 4.84481 19.9375 5.51169 19.9375 7.35075V14.6493C19.9375 16.4883 19.7464 17.1552 19.3868 17.8276C19.0273 18.4993 18.4999 19.0273 17.8276 19.3868C17.1552 19.7464 16.4883 19.9375 14.6493 19.9375H7.35075C5.51169 19.9375 4.84481 19.7464 4.17244 19.3868C3.50075 19.0273 2.97275 18.4999 2.61319 17.8276C2.25363 17.1552 2.0625 16.4883 2.0625 14.6493V7.35075C2.0625 5.51169 2.25363 4.84481 2.61319 4.17244C2.97275 3.50075 3.50006 2.97275 4.17244 2.61319C4.84481 2.25363 5.51169 2.0625 7.35075 2.0625Z" fill="white"/>
</mask>
<g mask="url(#mask0_989_9967)">
<path d="M7.35075 2.0625H14.6493C16.4883 2.0625 17.1552 2.25363 17.8276 2.61319C18.4993 2.97275 19.0273 3.50006 19.3868 4.17244C19.7464 4.84481 19.9375 5.51169 19.9375 7.35075V14.6493C19.9375 16.4883 19.7464 17.1552 19.3868 17.8276C19.0273 18.4993 18.4999 19.0273 17.8276 19.3868C17.1552 19.7464 16.4883 19.9375 14.6493 19.9375H7.35075C5.51169 19.9375 4.84481 19.7464 4.17244 19.3868C3.50075 19.0273 2.97275 18.4999 2.61319 17.8276C2.25363 17.1552 2.0625 16.4883 2.0625 14.6493V7.35075C2.0625 5.51169 2.25363 4.84481 2.61319 4.17244C2.97275 3.50075 3.50006 2.97275 4.17244 2.61319C4.84481 2.25363 5.51169 2.0625 7.35075 2.0625Z" fill="#A50064"/>
<path d="M14.5489 5.5C13.0914 5.5 11.9109 6.611 11.9109 7.98119C11.9109 9.35206 13.0921 10.4631 14.5489 10.4631C16.0064 10.4631 17.1875 9.35206 17.1875 7.98119C17.1875 6.611 16.0064 5.5 14.5489 5.5ZM14.5489 9.04062C13.9308 9.04062 13.4282 8.56762 13.4282 7.98669C13.4282 7.40506 13.9308 6.93275 14.5489 6.93275C15.1676 6.93275 15.6695 7.40506 15.6695 7.98669C15.6695 8.56762 15.1676 9.04062 14.5489 9.04062ZM11.1492 10.4679H9.63119V7.348C9.63119 7.11425 9.43181 6.92794 9.18431 6.92794C8.93544 6.92794 8.73744 7.11425 8.73744 7.348V10.4679H7.21875V7.348C7.21875 7.11425 7.01938 6.92794 6.77188 6.92794C6.523 6.92794 6.32431 7.11425 6.32431 7.348V10.4679H4.8125V7.36381C4.8125 6.336 5.70144 5.5 6.79387 5.5C7.24075 5.5 7.64981 5.64025 7.9805 5.874C8.36275 5.62375 8.75875 5.5 9.16712 5.5C10.2602 5.5 11.1492 6.336 11.1492 7.36313V10.4679ZM14.5489 11.5376C13.0914 11.5376 11.9109 12.6479 11.9109 14.0188C11.9109 15.389 13.0921 16.5 14.5489 16.5C16.0064 16.5 17.1875 15.389 17.1875 14.0181C17.1875 12.6479 16.0064 11.5369 14.5489 11.5369V11.5376ZM9.16781 11.5314C10.2609 11.5314 11.1492 12.3674 11.1492 13.3946V16.5H9.63119V13.3801C9.63119 13.1464 9.43181 12.9601 9.18431 12.9601C8.93544 12.9601 8.73744 13.1471 8.73744 13.3801V16.5H7.21875V13.3801C7.21875 13.1464 7.01938 12.9601 6.77188 12.9601C6.523 12.9601 6.32431 13.1471 6.32431 13.3801V16.5H4.8125V13.3959C4.8125 12.3681 5.70144 11.5328 6.79387 11.5328C7.24075 11.5328 7.64981 11.6724 7.9805 11.9061C8.36275 11.6566 8.75875 11.5321 9.16712 11.5321L9.16781 11.5314ZM14.5489 12.9704C15.1676 12.9704 15.6695 13.4427 15.6695 14.0236C15.6695 14.6053 15.1676 15.0776 14.5489 15.0776C13.9308 15.0776 13.4282 14.6053 13.4282 14.0236C13.4282 13.4427 13.9308 12.9704 14.5489 12.9704Z" fill="white"/>
</g>
</svg>
