<svg width="22" height="26" viewBox="0 0 22 26" fill="none" xmlns="http://www.w3.org/2000/svg">
<path d="M18.854 0H3.14567C1.50225 0 0.166504 1.33575 0.166504 2.97917V23.0208C0.166504 24.6643 1.50225 26 3.14567 26H18.854C20.4974 26 21.8332 24.6643 21.8332 23.0208V2.97917C21.8332 1.33575 20.4974 0 18.854 0ZM3.4165 9.47917C3.4165 9.03067 3.7805 8.66667 4.229 8.66667H10.1873C10.6358 8.66667 10.9998 9.03067 10.9998 9.47917V10.5625C10.9998 11.011 10.6358 11.375 10.1873 11.375C9.73884 11.375 9.37484 11.011 9.37484 10.5625V10.2917H8.02067V14.625C8.46917 14.625 8.83317 14.989 8.83317 15.4375C8.83317 15.886 8.46917 16.25 8.02067 16.25H6.39567C5.94717 16.25 5.58317 15.886 5.58317 15.4375C5.58317 14.989 5.94717 14.625 6.39567 14.625V10.2917H5.0415V10.5625C5.0415 11.011 4.6775 11.375 4.229 11.375C3.7805 11.375 3.4165 11.011 3.4165 10.5625V9.47917ZM17.7707 22.75H4.229C3.7805 22.75 3.4165 22.386 3.4165 21.9375C3.4165 21.489 3.7805 21.125 4.229 21.125H17.7707C18.2192 21.125 18.5832 21.489 18.5832 21.9375C18.5832 22.386 18.2192 22.75 17.7707 22.75ZM17.7707 19.5H4.229C3.7805 19.5 3.4165 19.136 3.4165 18.6875C3.4165 18.239 3.7805 17.875 4.229 17.875H17.7707C18.2192 17.875 18.5832 18.239 18.5832 18.6875C18.5832 19.136 18.2192 19.5 17.7707 19.5ZM17.7707 16.25H13.979C13.5305 16.25 13.1665 15.886 13.1665 15.4375C13.1665 14.989 13.5305 14.625 13.979 14.625H17.7707C18.2192 14.625 18.5832 14.989 18.5832 15.4375C18.5832 15.886 18.2192 16.25 17.7707 16.25ZM17.7707 13.2708H13.979C13.5305 13.2708 13.1665 12.9068 13.1665 12.4583C13.1665 12.0098 13.5305 11.6458 13.979 11.6458H17.7707C18.2192 11.6458 18.5832 12.0098 18.5832 12.4583C18.5832 12.9068 18.2192 13.2708 17.7707 13.2708ZM17.7707 10.2917H13.979C13.5305 10.2917 13.1665 9.92767 13.1665 9.47917C13.1665 9.03067 13.5305 8.66667 13.979 8.66667H17.7707C18.2192 8.66667 18.5832 9.03067 18.5832 9.47917C18.5832 9.92767 18.2192 10.2917 17.7707 10.2917Z" fill="#5A7DFC"/>
</svg>
