<svg width="23" height="23" viewBox="0 0 23 23" fill="none" xmlns="http://www.w3.org/2000/svg">
<path d="M11.3359 2.77344L3.21094 5.82031C2.46875 6.09375 2 6.79688 2 7.57812V16.3672C2 17.0703 2.39062 17.7344 3.01562 18.0469L11.1406 22.1094C11.6875 22.3828 12.2734 22.3828 12.8203 22.1094L20.9453 18.0469C21.5703 17.7344 21.9609 17.0703 21.9609 16.3672V7.57812C21.9609 6.79688 21.4922 6.09375 20.75 5.82031L12.625 2.77344C12.2344 2.61719 11.7656 2.61719 11.3359 2.77344ZM12 5.19531L19.5 8.00781V8.04688L12 11.0938L4.5 8.04688V8.00781L12 5.19531ZM13.25 19.1016V13.2812L19.5 10.7422V15.9766L13.25 19.1016Z" fill="url(#paint0_linear_121_4)"/>
<defs>
<linearGradient id="paint0_linear_121_4" x1="3" y1="3" x2="9.40388" y2="24.4603" gradientUnits="userSpaceOnUse">
<stop stop-color="#FF8A00" stop-opacity="0.51"/>
<stop offset="1" stop-color="#FF7800"/>
</linearGradient>
</defs>
</svg>
