<svg width="45" height="45" viewBox="0 0 45 45" fill="none" xmlns="http://www.w3.org/2000/svg">
<g clip-path="url(#clip0_137_2951)">
<path d="M40.6055 3.51562H26.0156C23.5925 3.51562 21.6211 5.48701 21.6211 7.91016V15.9961C21.6211 18.4192 23.5925 20.3906 26.0156 20.3906H33.75V22.9491C33.75 23.3042 33.9636 23.625 34.2914 23.7612C34.4004 23.8061 34.5146 23.828 34.628 23.828C34.8565 23.828 35.0807 23.7393 35.2485 23.5723L38.4434 20.3906H40.6055C43.0286 20.3906 45 18.4192 45 15.9961V7.91016C45 5.48701 43.0286 3.51562 40.6055 3.51562ZM43.2422 15.9961C43.2422 17.4498 42.0592 18.6328 40.6055 18.6328H38.0795C37.8475 18.6328 37.6242 18.7251 37.459 18.8886L35.5078 20.8336V19.5117C35.5078 19.0266 35.1141 18.6328 34.6289 18.6328H26.0156C24.5619 18.6328 23.3789 17.4498 23.3789 15.9961V7.91016C23.3789 6.45645 24.5619 5.27344 26.0156 5.27344H40.6055C42.0592 5.27344 43.2422 6.45645 43.2422 7.91016V15.9961Z" fill="#465D85"/>
<path d="M39.6404 27.8877C37.1461 25.3934 33.0873 25.3934 30.593 27.8877L28.2454 30.2344C27.3358 31.1449 25.9049 31.2082 24.917 30.3847C21.1913 27.2751 17.7249 23.8096 14.6153 20.083C13.7909 19.0951 13.856 17.6643 14.7656 16.7546L17.1132 14.407C19.6075 11.9127 19.6075 7.85391 17.1132 5.35957L13.6257 1.87207C12.4181 0.665332 10.8114 0 9.10285 0C7.39425 0 5.78761 0.665332 4.57912 1.87383C1.97316 4.47978 0.36652 7.9374 0.056266 11.6095C-0.253988 15.2815 0.748844 18.9598 2.87931 21.9665C8.42697 29.7923 15.2077 36.573 23.0335 42.1207C25.6825 43.9989 28.851 45 32.0783 45C32.5152 45 32.9537 44.9815 33.3914 44.9446C37.0644 44.6335 40.5211 43.0277 43.1271 40.4218C44.3356 39.2133 45.0009 37.6066 45.0009 35.898C45.0009 34.1895 44.3356 32.5828 43.1271 31.3743L39.6404 27.8877ZM24.0504 40.6872C16.3863 35.2547 9.74621 28.6145 4.31369 20.9505C0.39025 15.4151 1.02482 7.91455 5.82277 3.1166C6.69816 2.24033 7.86359 1.75781 9.10285 1.75781C10.3421 1.75781 11.5075 2.24033 12.3838 3.1166L15.8704 6.6041C16.7467 7.48037 17.2292 8.6458 17.2292 9.88418C17.2292 11.1226 16.7467 12.2889 15.8704 13.1643L15.7254 13.3093L9.9967 7.58057C9.65392 7.23779 9.09757 7.23779 8.75392 7.58057C8.41027 7.92422 8.41027 8.48057 8.75392 8.82334L14.4818 14.5512L13.5229 15.5101C11.9663 17.0675 11.8556 19.517 13.2662 21.208C16.4426 25.0146 19.9837 28.5557 23.7911 31.7329C25.4821 33.1436 27.9317 33.0337 29.4891 31.4763L30.448 30.5174L40.3981 40.4675C35.6335 44.0569 29.0435 44.2266 24.0504 40.6872ZM41.8843 39.179C41.8351 39.2282 41.785 39.2766 41.7349 39.3249C41.7182 39.3047 41.7006 39.2854 41.6821 39.2669L31.6907 29.2755L31.8358 29.1305C32.712 28.2542 33.8775 27.7717 35.1158 27.7717C36.3542 27.7717 37.5205 28.2542 38.3959 29.1305L41.8834 32.618C42.7597 33.4942 43.2422 34.6597 43.2422 35.898C43.2431 37.1373 42.7606 38.3027 41.8843 39.179Z" fill="#465D85"/>
<path d="M6.9707 4.92013C6.73955 4.92013 6.51279 5.01329 6.34932 5.17765C6.18584 5.34112 6.0918 5.56788 6.0918 5.79904C6.0918 6.03019 6.18584 6.25695 6.34932 6.42042C6.51279 6.5839 6.73955 6.67794 6.9707 6.67794C7.20186 6.67794 7.42861 6.5839 7.59209 6.42042C7.75557 6.25695 7.84961 6.03019 7.84961 5.79904C7.84961 5.56788 7.75557 5.34112 7.59209 5.17765C7.42861 5.01329 7.20186 4.92013 6.9707 4.92013Z" fill="#465D85"/>
<path d="M37.5732 11.0742C37.3421 11.0742 37.1153 11.1683 36.9519 11.3317C36.7884 11.4952 36.6943 11.722 36.6943 11.9531C36.6943 12.1843 36.7884 12.411 36.9519 12.5745C37.1153 12.738 37.3421 12.832 37.5732 12.832C37.8044 12.832 38.0312 12.738 38.1946 12.5745C38.3581 12.411 38.4521 12.1843 38.4521 11.9531C38.4521 11.722 38.3581 11.4952 38.1946 11.3317C38.0312 11.1683 37.8044 11.0742 37.5732 11.0742Z" fill="#465D85"/>
<path d="M33.3159 11.0742C33.0848 11.0742 32.858 11.1683 32.6945 11.3317C32.5311 11.4952 32.437 11.722 32.437 11.9531C32.437 12.1843 32.5311 12.411 32.6945 12.5745C32.8589 12.738 33.0848 12.832 33.3159 12.832C33.5471 12.832 33.7738 12.738 33.9373 12.5745C34.1017 12.411 34.1948 12.1843 34.1948 11.9531C34.1948 11.722 34.1017 11.4952 33.9373 11.3317C33.7738 11.1683 33.5479 11.0742 33.3159 11.0742Z" fill="#465D85"/>
<path d="M29.0591 11.0742C28.8271 11.0742 28.6012 11.1683 28.4377 11.3317C28.2733 11.4952 28.1802 11.722 28.1802 11.9531C28.1802 12.1843 28.2733 12.411 28.4377 12.5745C28.6012 12.738 28.8279 12.832 29.0591 12.832C29.2902 12.832 29.517 12.738 29.6805 12.5745C29.8439 12.411 29.938 12.1843 29.938 11.9531C29.938 11.722 29.8439 11.4952 29.6805 11.3317C29.517 11.1683 29.2902 11.0742 29.0591 11.0742Z" fill="#465D85"/>
</g>
<defs>
<clipPath id="clip0_137_2951">
<rect width="45" height="45" fill="white"/>
</clipPath>
</defs>
</svg>
