<svg width="148" height="121" viewBox="0 0 148 121" fill="none" xmlns="http://www.w3.org/2000/svg">
<mask id="mask0_12_3" style="mask-type:alpha" maskUnits="userSpaceOnUse" x="0" y="0" width="148" height="121">
<rect width="148" height="121" transform="matrix(1 0 0 -1 0 121)" fill="#D9D9D9"/>
</mask>
<g mask="url(#mask0_12_3)">
<path d="M135.047 75.1612C135.056 83.4466 133.301 91.6398 129.897 99.2002C126.493 106.761 121.518 113.516 115.3 119.022C114.72 119.542 114.126 120.044 113.524 120.539H38.5866C37.9849 120.044 37.3905 119.542 36.8104 119.022C29.4566 112.5 23.8589 104.25 20.5277 95.0226C17.1965 85.7952 16.2377 75.8843 17.7388 66.1934C19.2399 56.5025 23.1531 47.3398 29.1216 39.5407C35.0901 31.7416 42.9242 25.5541 51.9096 21.5424C60.8949 17.5306 70.7458 15.8221 80.5642 16.5727C90.3826 17.3233 99.8561 20.509 108.121 25.8395C116.386 31.1701 123.18 38.4758 127.883 47.0907C132.586 55.7056 135.049 65.3557 135.047 75.1612Z" fill="#E8F0FE"/>
<path d="M57.3101 0.760546C55.9254 0.756293 54.5706 1.16103 53.417 1.92357C52.2634 2.68612 51.3628 3.7722 50.8291 5.04446C50.2955 6.31672 50.1527 7.71799 50.4189 9.07105C50.6851 10.4241 51.3483 11.6682 52.3246 12.6459C53.301 13.6236 54.5465 14.291 55.9038 14.5637C57.2611 14.8364 58.6691 14.7022 59.9498 14.178C61.2305 13.6538 62.3263 12.7632 63.0986 11.6189C63.8709 10.4745 64.285 9.12772 64.2886 7.74894C64.2915 5.90146 63.5584 4.12824 62.2502 2.81818C60.942 1.50811 59.1654 0.768143 57.3101 0.760546V0.760546ZM57.3101 1.55338C58.3176 2.60734 59.078 3.87051 59.5366 5.25206C58.0767 5.67928 56.5227 5.66805 55.0692 5.21978C55.5367 3.84942 56.3004 2.59787 57.3065 1.55338H57.3101ZM59.6699 9.57497C58.1155 9.11749 56.4614 9.11749 54.907 9.57497C54.5946 8.3515 54.5885 7.0704 54.889 5.844C55.68 6.0897 56.5031 6.21783 57.3317 6.22427C58.1371 6.21459 58.9373 6.09386 59.7095 5.86552C59.9997 7.08695 59.9848 8.36058 59.6663 9.57497H59.6699ZM59.4789 10.2064C58.99 11.5562 58.241 12.798 57.274 13.862C56.3181 12.7971 55.5779 11.5582 55.0944 10.2135C56.5234 9.7904 58.0449 9.78791 59.4753 10.2064H59.4789ZM60.3076 5.69691C61.156 5.38959 61.9613 4.97482 62.7034 4.46282C63.3124 5.45181 63.633 6.59009 63.6292 7.75021C63.6254 8.91033 63.2973 10.0465 62.6818 11.0315C61.9422 10.5128 61.138 10.0919 60.2896 9.77946C60.6333 8.44073 60.6383 7.03801 60.304 5.69691H60.3076ZM62.3287 3.90317C61.6477 4.37687 60.9078 4.76036 60.1274 5.04399C59.6909 3.73319 59.0101 2.5161 58.1207 1.45651C58.9501 1.56951 59.7488 1.8452 60.4705 2.26764C61.1922 2.69007 61.8225 3.25085 62.3251 3.91752L62.3287 3.90317ZM56.5031 1.4601C55.604 2.50843 54.9133 3.71733 54.4675 5.02247C53.703 4.72071 52.9773 4.32931 52.3059 3.85654C53.3323 2.54142 54.8402 1.68488 56.4995 1.47445L56.5031 1.4601ZM51.924 4.37313C52.6581 4.89105 53.4545 5.31529 54.2946 5.63592C53.9456 6.99282 53.9456 8.41538 54.2946 9.77228C53.4521 10.089 52.6522 10.5083 51.9132 11.0207C51.2886 10.0229 50.959 8.87009 50.9622 7.69435C50.9654 6.51861 51.3012 5.36755 51.9312 4.37313H51.924ZM52.2842 11.5481C52.9663 11.0766 53.703 10.6888 54.4783 10.3929C54.9313 11.694 55.62 12.9014 56.5103 13.9553C55.6821 13.8561 54.8817 13.5949 54.1552 13.1867C53.4288 12.7786 52.7905 12.2314 52.277 11.5768L52.2842 11.5481ZM58.0486 13.9625C58.9519 12.9028 59.6517 11.6868 60.113 10.375C60.8951 10.665 61.6362 11.0545 62.3179 11.5337C61.8051 12.2077 61.1618 12.7724 60.426 13.1945C59.6903 13.6166 58.877 13.8875 58.0342 13.9912L58.0486 13.9625Z" fill="#E8F0FE"/>
<path d="M123.727 20.4163V96.069C123.727 98.0564 122.387 99.6565 120.744 99.6565H44.07C42.4307 99.6565 41.0869 98.0529 41.0869 96.069V20.4163C41.0869 18.4432 42.4307 16.8288 44.07 16.8288H120.758C122.387 16.8396 123.727 18.4432 123.727 20.4163Z" fill="white"/>
<path d="M123.752 20.4091V26.9491H41.1121V20.4091C41.1121 18.4324 42.4487 16.8217 44.1024 16.8217H120.758C122.415 16.8253 123.752 18.4324 123.752 20.4091Z" fill="#5A7DFC"/>
<path d="M46.945 22.8486C47.3847 22.8486 47.7412 22.4937 47.7412 22.0558C47.7412 21.6179 47.3847 21.263 46.945 21.263C46.5053 21.263 46.1488 21.6179 46.1488 22.0558C46.1488 22.4937 46.5053 22.8486 46.945 22.8486Z" fill="white"/>
<path d="M50.4072 22.8486C50.847 22.8486 51.2034 22.4937 51.2034 22.0558C51.2034 21.6179 50.847 21.263 50.4072 21.263C49.9675 21.263 49.611 21.6179 49.611 22.0558C49.611 22.4937 49.9675 22.8486 50.4072 22.8486Z" fill="white"/>
<path d="M53.8731 22.8486C54.3128 22.8486 54.6693 22.4937 54.6693 22.0558C54.6693 21.6179 54.3128 21.263 53.8731 21.263C53.4333 21.263 53.0768 21.6179 53.0768 22.0558C53.0768 22.4937 53.4333 22.8486 53.8731 22.8486Z" fill="white"/>
<path d="M47.5974 31.718L47.5349 49.5656L74.4653 49.6592L74.5279 31.8116L47.5974 31.718Z" fill="#E8F0FE"/>
<path d="M48.7175 32.8448L48.6628 48.4502L73.3416 48.536L73.3963 32.9306L48.7175 32.8448Z" fill="#E8F0FE"/>
<path d="M50.4036 43.7887L52.3059 41.9053C52.5896 41.6224 52.9266 41.398 53.2975 41.2449C53.6684 41.0917 54.066 41.0129 54.4675 41.0129C54.8691 41.0129 55.2666 41.0917 55.6376 41.2449C56.0085 41.398 56.3454 41.6224 56.6292 41.9053L58.009 43.2865C58.0268 43.3042 58.0478 43.3182 58.071 43.3277C58.0942 43.3373 58.119 43.3422 58.1441 43.3422C58.1692 43.3422 58.1941 43.3373 58.2173 43.3277C58.2404 43.3182 58.2615 43.3042 58.2792 43.2865L63.3231 38.2927C63.5182 38.0977 63.7501 37.9429 64.0055 37.8373C64.2608 37.7318 64.5346 37.6774 64.811 37.6774C65.0875 37.6774 65.3613 37.7318 65.6166 37.8373C65.8719 37.9429 66.1038 38.0977 66.299 38.2927L71.6238 43.6273C71.6591 43.6639 71.6785 43.7129 71.6779 43.7636V46.9529C71.6779 47.0033 71.6578 47.0517 71.622 47.0873C71.5861 47.123 71.5376 47.143 71.4869 47.143L50.5333 47.0713C50.4827 47.0713 50.4341 47.0512 50.3983 47.0156C50.3625 46.9799 50.3424 46.9315 50.3424 46.8811V43.8963C50.3502 43.8547 50.3717 43.8168 50.4036 43.7887V43.7887Z" fill="#C7D8F9"/>
<path d="M54.4135 40.0506C55.1099 40.0506 55.6745 39.4884 55.6745 38.7949C55.6745 38.1015 55.1099 37.5393 54.4135 37.5393C53.7171 37.5393 53.1525 38.1015 53.1525 38.7949C53.1525 39.4884 53.7171 40.0506 54.4135 40.0506Z" fill="#C7D8F9"/>
<path d="M117.314 32.3805H81.5746V33.4604H117.314V32.3805Z" fill="#E8F0FE"/>
<path d="M117.314 36.2622H81.5746V37.342H117.314V36.2622Z" fill="#E8F0FE"/>
<path d="M117.314 40.1474H81.5746V41.2273H117.314V40.1474Z" fill="#E8F0FE"/>
<path d="M117.314 44.0291H81.5746V45.1089H117.314V44.0291Z" fill="#E8F0FE"/>
<path d="M117.314 47.9107H81.5746V48.9906H117.314V47.9107Z" fill="#E8F0FE"/>
<path d="M117.292 55.8283H47.5538V56.9081H117.292V55.8283Z" fill="#E8F0FE"/>
<path d="M117.292 59.857H47.5538V60.9368H117.292V59.857Z" fill="#E8F0FE"/>
<path d="M117.292 63.8893H47.5538V64.9692H117.292V63.8893Z" fill="#E8F0FE"/>
<path d="M117.292 67.9181H47.5538V68.9979H117.292V67.9181Z" fill="#E8F0FE"/>
<path d="M90.273 73.3527L90.2104 91.2003L117.141 91.2939L117.203 73.4463L90.273 73.3527Z" fill="#E8F0FE"/>
<path d="M91.3967 74.4795L91.342 90.0849L116.021 90.1707L116.075 74.5653L91.3967 74.4795Z" fill="#E8F0FE"/>
<path d="M93.0746 85.4214L94.9805 83.5379C95.2642 83.255 95.6012 83.0306 95.9721 82.8775C96.343 82.7244 96.7406 82.6456 97.1421 82.6456C97.5436 82.6456 97.9412 82.7244 98.3121 82.8775C98.6831 83.0306 99.02 83.255 99.3038 83.5379L100.684 84.9191C100.701 84.9368 100.722 84.9508 100.746 84.9604C100.769 84.97 100.794 84.9749 100.819 84.9749C100.844 84.9749 100.869 84.97 100.892 84.9604C100.915 84.9508 100.936 84.9368 100.954 84.9191L105.998 79.9253C106.393 79.5321 106.929 79.3112 107.487 79.3112C108.046 79.3112 108.582 79.5321 108.977 79.9253L114.298 85.2635C114.335 85.2998 114.355 85.3487 114.356 85.3998V88.5891C114.355 88.6399 114.334 88.6882 114.298 88.7238C114.261 88.7593 114.213 88.7792 114.162 88.7792L93.2115 88.7075C93.1605 88.7065 93.112 88.6857 93.0763 88.6495C93.0406 88.6133 93.0206 88.5645 93.0206 88.5138V85.529C93.0261 85.4881 93.0452 85.4503 93.0746 85.4214V85.4214Z" fill="#C7D8F9"/>
<path d="M97.0881 81.6796C97.7845 81.6796 98.349 81.1175 98.349 80.424C98.349 79.7305 97.7845 79.1684 97.0881 79.1684C96.3917 79.1684 95.8271 79.7305 95.8271 80.424C95.8271 81.1175 96.3917 81.6796 97.0881 81.6796Z" fill="#C7D8F9"/>
<path d="M83.3904 74.0132H47.6511V75.093H83.3904V74.0132Z" fill="#E8F0FE"/>
<path d="M83.3904 77.8948H47.6511V78.9747H83.3904V77.8948Z" fill="#E8F0FE"/>
<path d="M83.3904 81.7765H47.6511V82.8563H83.3904V81.7765Z" fill="#E8F0FE"/>
<path d="M83.3904 85.6617H47.6511V86.7415H83.3904V85.6617Z" fill="#E8F0FE"/>
<path d="M83.3904 89.5434H47.6511V90.6232H83.3904V89.5434Z" fill="#E8F0FE"/>
<path d="M17.1466 91.9183L34.9442 90.4582L34.4866 60.0543L28.3043 54.6731L24.5863 49.8049L19.3226 51.0246C17.8754 51.3618 16.5968 52.203 15.7175 53.3962C14.8382 54.5895 14.4161 56.0564 14.5274 57.5323L17.3591 78.9424L17.1466 91.9183Z" fill="#EFC0C1"/>
<path d="M22.4463 46.1385L22.6948 52.2372C22.6948 52.2372 24.0207 52.9547 27.0506 52.8291C28.6862 52.7646 29.0213 51.9789 29.0213 51.9789L28.9276 49.7224L22.4463 46.1385Z" fill="#EFC0C1"/>
<path d="M21.5456 41.6147C21.5672 41.8371 21.5852 42.0452 21.6068 42.2425C21.6068 42.3143 21.6068 42.386 21.6068 42.4649C21.6068 46.0919 24.0999 49.8767 27.6378 50.2641H27.7171H27.8396C28.5925 50.3287 31.3234 50.4399 32.2746 49.3063C33.3914 47.9753 34.3317 45.5825 34.2669 43.9717C34.202 42.3609 33.9066 41.9986 33.867 41.3492C33.8454 40.8434 34.0543 39.247 34.0291 38.5582C33.921 35.3295 31.6044 32.2048 27.7243 32.3626C21.9022 32.603 21.2213 37.7223 21.5456 41.6147Z" fill="#EFC0C1"/>
<path d="M12.0019 79.7998C14.0302 80.2088 17.5141 68.6786 18.6273 63.6813C19.7406 58.6839 19.7082 54.5404 17.2439 54.0417C14.7796 53.5431 13.1259 57.3458 12.2 62.3826C11.2741 67.4194 9.96992 79.3908 12.0019 79.7998Z" fill="#EFC0C1"/>
<path d="M20.9007 101.429C22.6228 100.787 18.3571 88.0007 17.0205 84.4384C15.6839 80.876 14.005 77.2168 12.0739 77.9379C10.1429 78.659 11.2957 82.5119 12.6324 86.0743C13.969 89.6366 19.1786 102.071 20.9007 101.429Z" fill="#EFC0C1"/>
<path d="M10.7301 71.3907C10.7301 71.3907 10.2545 76.2554 10.5499 78.72C11.184 83.9218 17.3267 97.9381 17.3267 97.9381L20.5692 96.1192C20.5692 96.1192 16.2459 78.8132 16.1991 77.8446C16.1522 76.876 17.5069 72.1441 17.5069 72.1441L10.7301 71.3907Z" fill="#EFC0C1"/>
<path d="M19.7946 64.3557C19.7946 64.4741 19.7766 64.6104 19.7586 64.7611L19.737 64.9405C19.5857 66.0669 19.1966 67.8607 18.8111 69.493L18.7678 69.6723C18.6345 70.232 18.5048 70.7665 18.3859 71.2437C18.1049 72.406 17.8852 73.2347 17.8852 73.2347L15.7235 72.9405L14.1743 72.7289L10.1537 72.18C10.1537 72.18 10.2149 71.0284 10.4131 69.3674C10.4131 69.31 10.4131 69.249 10.4131 69.188C10.5908 67.6839 10.8445 66.1896 11.1732 64.7109C11.1732 64.6499 11.1985 64.5889 11.2129 64.5315C11.5354 62.9968 12.0435 61.5067 12.726 60.0938C12.7548 60.0328 12.7873 59.9754 12.8197 59.918C13.1667 59.2189 13.6578 58.6004 14.2608 58.1027V58.1027C14.7279 57.7239 15.3158 57.5241 15.9181 57.5395C17.8311 57.5933 18.8219 58.6947 19.3263 60.0507C19.3479 60.1117 19.3695 60.1691 19.3875 60.2301C19.8811 61.6723 19.8487 63.3548 19.7946 64.3557Z" fill="white"/>
<g style="mix-blend-mode:multiply">
<g style="mix-blend-mode:multiply">
<path d="M18.3859 71.2437C18.1049 72.406 17.8852 73.2347 17.8852 73.2347L14.1779 72.7289L15.9397 63.7422L18.3859 71.2437Z" fill="#E8F0FE"/>
</g>
</g>
<path d="M19.6361 96.1443V95.7174L20.5296 96.1084L22.0463 96.8618C22.4327 97.0548 22.7655 97.3394 23.0155 97.6905L23.718 99.4843C23.718 99.4843 23.4874 100.026 22.8425 99.147C22.5797 98.8954 22.2556 98.7162 21.9022 98.6269L22.4174 99.5739L23.5162 101.726C23.7973 102.343 20.9943 103.707 20.0396 102.839L19.5208 102.401C18.8867 101.708 18.267 101.289 17.9572 100.406L17.3267 97.9381L19.6361 96.1443Z" fill="#EFC0C1"/>
<path d="M30.5632 88.5353C28.7186 88.9981 27.4072 91.6779 27.7027 94.3434C28.0314 97.1167 28.6583 99.8469 29.5725 102.487C32.343 110.659 33.975 121.346 36.5834 121.608C39.1918 121.87 40.8023 115.545 39.2243 106.882C37.8012 99.0502 36.8464 88.8869 34.9874 88.1729C34.0435 87.8106 32.1773 88.1299 30.5632 88.5353Z" fill="#EFC0C1"/>
<path d="M37.5742 115.875C30.5452 113.432 32.2421 152.977 34.3966 159.158C36.551 165.34 38.2695 143.983 39.1054 133.494C39.9412 123.004 40.3411 116.844 37.5742 115.875Z" fill="#EFC0C1"/>
<path d="M19.4235 89.4429C17.5645 89.8339 16.1522 92.46 16.3432 95.1326C16.5616 97.9174 17.081 100.671 17.8924 103.344C20.3386 111.617 21.5528 122.358 24.1503 122.717C26.7479 123.075 28.6033 116.823 27.364 108.101C26.2471 100.209 25.6887 90.0277 23.8585 89.242C22.9326 88.851 21.052 89.0985 19.4235 89.4429Z" fill="#EFC0C1"/>
<path d="M26.7263 120.094C22.2805 114.15 2.02221 148.26 0.325312 154.581C-1.37158 160.902 11.4938 143.764 18.0761 135.542C24.6583 127.319 28.4736 122.437 26.7263 120.094Z" fill="#EFC0C1"/>
<path d="M38.4785 158.15C38.4785 158.15 32.2025 158.226 32.1917 158.179C32.0259 157.461 31.5108 142.789 32.3034 123.969C32.3034 123.538 31.3198 122.222 31.0532 121.145V129.655C31.2153 130.674 32.2601 124.801 32.2385 129.928C32.2385 131.101 29.1149 121.838 28.9492 122.541C28.2034 125.684 5.64299 154.218 5.64299 154.218L1.62231 151.872L0.581116 151.266C0.581116 151.266 9.94827 134.448 12.2576 130.946C14.6787 127.276 19.3623 121.486 19.283 120.618C19.2037 119.75 13.7564 97.5542 15.9469 90.0097C19.5496 77.6473 36.6447 88.7756 36.6447 88.7756C36.6447 88.7756 40.3267 97.5542 41.5516 119.807C41.8579 125.389 38.4785 158.15 38.4785 158.15Z" fill="#1A004D"/>
<path d="M36.9545 89.2707C35.5855 89.9282 34.146 90.4289 32.6637 90.7631C31.537 91.033 30.3918 91.2189 29.2374 91.3192L28.715 91.3586C17.6186 92.0582 15.4893 93.6905 15.4893 93.6905C15.0642 93.7156 15.2227 90.5909 15.3632 88.4994C15.3632 88.4384 15.3632 88.3774 15.3632 88.32C15.4209 87.5021 15.4713 86.8851 15.4785 86.7021C15.5073 85.9487 15.547 84.9442 15.583 83.7891C15.583 83.7281 15.583 83.6707 15.583 83.6097C15.6262 82.2464 15.6695 80.6823 15.6983 79.0751C15.6983 79.0141 15.6983 78.9567 15.6983 78.8958C15.7235 77.3783 15.7343 75.8213 15.7271 74.3576C15.7271 74.2966 15.7271 74.2392 15.7271 74.1782C15.7271 73.7549 15.7271 73.3387 15.7271 72.9334C15.7019 71.6993 15.6587 70.5692 15.583 69.6365C15.583 69.5755 15.583 69.5145 15.583 69.4571C15.5437 68.9349 15.4764 68.4152 15.3812 67.9001C15.1651 66.8239 14.9849 65.8373 14.8372 64.8974C14.8372 64.8364 14.8156 64.7754 14.8084 64.718C14.5618 63.208 14.3959 61.6859 14.3112 60.1584C14.3112 60.0974 14.3112 60.0364 14.3112 59.979C14.2824 59.3046 14.2752 58.6767 14.3112 58.0956C14.33 57.1895 14.4362 56.2873 14.6283 55.4014C14.6283 55.3404 14.6535 55.283 14.6679 55.2256C15.2479 52.8327 16.4693 51.6668 18.0581 51.1574C22.9759 49.5646 27.4253 54.2498 29.5365 53.6363C30.0913 53.4749 31.1865 53.7475 32.3574 54.3538L32.5051 54.4328H32.534L32.6168 54.4794C34.1442 55.2986 35.3968 56.5459 36.2196 58.0669L36.3024 58.2283C36.5477 58.7652 36.7034 59.3384 36.7636 59.9252C36.8463 60.8306 36.8571 61.741 36.796 62.6481V62.8382C36.7672 63.3333 36.7204 63.8929 36.6555 64.5315C36.6555 64.6965 36.6195 64.8615 36.5943 65.0337C36.5465 65.3956 36.4803 65.7548 36.3961 66.11V66.11C36.3526 66.3127 36.2973 66.5128 36.2304 66.7091C36.1115 67.093 36.0286 67.3871 35.9818 67.5055V67.5557C35.9602 67.6203 35.935 67.6885 35.9133 67.7566C35.5941 68.8074 35.3935 69.8903 35.3153 70.9854C35.2756 71.4625 35.2504 71.9504 35.2396 72.4526C35.2396 72.5136 35.2396 72.5746 35.2396 72.6356C35.219 74.1365 35.2851 75.6374 35.4378 77.1307C35.4378 77.1917 35.4378 77.2527 35.4378 77.3101C35.5891 78.8168 35.798 80.3128 36.0358 81.7083L36.0683 81.8877C36.3493 83.5236 36.6555 85.0196 36.9257 86.2214C36.9257 86.2824 36.9545 86.3398 36.9653 86.3936C37.1815 87.3443 37.3689 88.1012 37.4949 88.5891C37.5211 88.6708 37.5268 88.7576 37.5114 88.842C37.496 88.9264 37.4601 89.0057 37.4067 89.073C37.3534 89.1403 37.2842 89.1935 37.2054 89.228C37.1265 89.2625 37.0404 89.2771 36.9545 89.2707Z" fill="white"/>
<g style="mix-blend-mode:multiply">
<path d="M24.1323 93.7479L25.2132 93.3891C24.8623 93.5353 24.501 93.6552 24.1323 93.7479Z" fill="#E5E1F9"/>
</g>
<path d="M45.5003 79.9038C47.3016 78.8922 42.3587 68.0114 39.9232 63.5485C37.4877 59.0857 34.7641 56.0148 32.5844 57.2346C30.4047 58.4543 31.6657 62.3754 34.2633 66.745C36.8609 71.1145 43.7133 80.9119 45.5003 79.9038Z" fill="#EFC0C1"/>
<path d="M35.8521 70.5836C35.8521 70.5836 42.0884 81.4608 45.9722 80.5101C51.1602 79.2473 54.0748 54.6803 54.0748 54.6803L50.7819 54.2857L44.0411 70.0706L41.9696 66.9961L35.8521 70.5836Z" fill="#EFC0C1"/>
<path d="M53.6965 50.3143C51.5349 49.6578 47.77 63.4768 44.7257 69.7835C42.6901 73.9952 42.2434 79.0751 44.6644 79.8285C47.0855 80.5818 48.8652 75.9433 50.2343 71.4733C51.6033 67.0033 55.8582 50.9708 53.6965 50.3143Z" fill="#EFC0C1"/>
<g opacity="0.4">
<path d="M36.9545 89.2707C35.5855 89.9282 34.146 90.4288 32.6636 90.7631C31.537 91.033 30.3918 91.2189 29.2374 91.3192C31.0712 90.2644 32.869 89.0698 33.7517 88.1622C35.6179 86.2465 34.13 80.3702 34.2453 74.8598C34.3605 69.3495 32.379 66.2894 32.379 66.2894C34.6668 66.3145 33.9678 64.9476 34.7316 63.2974C34.692 63.71 36.4321 63.7351 36.533 65.0624C36.5485 65.4314 36.4808 65.7992 36.3348 66.1387C36.2914 66.3414 36.236 66.5415 36.1691 66.7378C36.0502 67.1216 35.9674 67.4158 35.9205 67.5342C33.7877 73.5432 36.6951 85.7406 37.4337 88.6106C37.4542 88.686 37.4576 88.7649 37.4435 88.8418C37.4294 88.9186 37.3983 88.9913 37.3523 89.0545C37.3064 89.1178 37.2468 89.1701 37.178 89.2075C37.1092 89.2449 37.0328 89.2665 36.9545 89.2707V89.2707Z" fill="#C7D8F9"/>
</g>
<path d="M43.3278 68.2051L37.5094 71.936L37.0374 72.2338L36.3745 72.6607L36.216 72.4311L36.1079 72.2697L35.2432 71.0105C34.7136 70.232 34.0543 69.267 33.4022 68.2983L33.2905 68.1369C32.2097 66.5477 31.1757 64.9835 30.7434 64.2732L30.6137 64.0508L30.5164 63.8822C29.7588 62.5269 29.18 61.08 28.7943 59.5772C28.7943 59.5198 28.7655 59.4588 28.7547 59.3978C28.3944 57.7261 28.3944 56.0292 29.3996 54.9422C29.4671 54.8683 29.5393 54.7988 29.6157 54.7341C29.7785 54.5877 29.9574 54.4602 30.1489 54.3538C30.7866 53.9951 31.518 54.0345 32.3106 54.3538L32.4835 54.4292H32.5124L32.6024 54.4722C33.849 55.1036 35.2144 56.4095 36.5438 57.9808C36.5871 58.031 36.6303 58.0812 36.6699 58.135C37.6607 59.3189 38.6262 60.6463 39.5017 61.9306L39.6062 62.0848C40.5429 63.4696 41.3715 64.8041 42.0056 65.866C42.038 65.9234 42.0705 65.9737 42.0993 66.0275C42.8667 67.3512 43.3278 68.2051 43.3278 68.2051Z" fill="white"/>
<g style="mix-blend-mode:multiply" opacity="0.4">
<g style="mix-blend-mode:multiply">
<path d="M32.5952 54.5081C31.5144 54.6803 30.4336 54.8238 29.4068 54.9458C26.0581 55.33 22.6899 55.5216 19.3191 55.5198H18.3463C17.0421 55.5198 15.792 55.4659 14.6139 55.405C14.6139 55.344 14.6391 55.2866 14.6535 55.2292C15.8208 55.2866 17.0601 55.326 18.3535 55.3404C22.1215 55.3856 25.8884 55.1854 29.6301 54.7413C30.5116 54.6384 31.4075 54.5189 32.3178 54.3825H32.343L32.4907 54.4615H32.5195L32.5952 54.5081Z" fill="#C7D8F9"/>
</g>
<g style="mix-blend-mode:multiply">
<path d="M36.6663 58.1709L36.2592 58.2642C33.7953 58.8317 31.3037 59.2723 28.7943 59.5844C25.6753 59.9703 22.5374 60.1859 19.3947 60.2301H18.0149H17.0421C16.0982 60.2301 15.1843 60.2062 14.3004 60.1584C13.7672 60.1404 13.2448 60.1153 12.7368 60.0866C12.7656 60.0256 12.7981 59.9682 12.8305 59.9108C13.3061 59.9359 13.796 59.9611 14.2932 59.979C15.1795 60.0149 16.0982 60.0388 17.0493 60.0507C17.7699 60.0507 18.5409 60.0507 19.3335 60.0507C22.4833 60.0063 25.6284 59.7908 28.7547 59.405C31.2493 59.0976 33.7264 58.663 36.1763 58.1027L36.5366 58.0166C36.5834 58.0669 36.6267 58.1171 36.6663 58.1709Z" fill="#C7D8F9"/>
</g>
<g style="mix-blend-mode:multiply">
<path d="M39.6062 62.1207C38.6478 62.397 37.6931 62.6445 36.742 62.8741C34.6668 63.3656 32.6132 63.753 30.6173 64.0508C27.0135 64.5785 23.3791 64.8733 19.737 64.9333C19.1461 64.9333 18.5733 64.9512 18.0149 64.9512H17.0421C16.2783 64.9333 15.5578 64.9333 14.8372 64.9046C13.5511 64.8616 12.3153 64.7934 11.1949 64.7109C11.1949 64.6499 11.2201 64.5889 11.2345 64.5315C12.3477 64.614 13.5438 64.6786 14.8084 64.7252C15.529 64.7503 16.2891 64.7683 17.0601 64.7754C17.9212 64.7754 18.8255 64.7754 19.7694 64.7754C23.3705 64.7118 26.9638 64.4182 30.5272 63.8965C32.5628 63.5952 34.6524 63.2041 36.7636 62.6983C37.6787 62.4795 38.5938 62.2427 39.5125 61.9808L39.6062 62.1207Z" fill="#C7D8F9"/>
</g>
<g style="mix-blend-mode:multiply">
<path d="M42.0993 66.0633C40.0448 66.7505 37.9561 67.3313 35.8413 67.8033C35.0235 67.9898 34.2092 68.162 33.4022 68.3055C28.5743 69.1922 23.6771 69.652 18.7678 69.6795H17.0421C16.5485 69.6795 16.0622 69.6795 15.601 69.6508C13.724 69.6042 11.9983 69.5002 10.4203 69.3746C10.4203 69.3172 10.4203 69.2562 10.4203 69.1952C11.973 69.3208 13.7024 69.4212 15.5686 69.4714C16.0514 69.4714 16.5449 69.493 17.0457 69.5002C17.615 69.5002 18.2022 69.5002 18.8075 69.5002C23.6643 69.4673 28.5091 69.0136 33.2869 68.1441C34.1516 67.9827 35.0271 67.8033 35.9061 67.6024C37.966 67.143 40.0007 66.5778 42.002 65.9091C42.038 65.9593 42.0704 66.0095 42.0993 66.0633Z" fill="#C7D8F9"/>
</g>
<g style="mix-blend-mode:multiply">
<path d="M35.1676 72.467C35.1676 72.528 35.1676 72.589 35.1676 72.65C29.5279 73.8239 23.78 74.4046 18.0185 74.3827H17.0457C16.6062 74.3827 16.1774 74.3827 15.7523 74.3576C15.7523 74.2966 15.7523 74.2392 15.7523 74.1782C16.181 74.1782 16.617 74.1997 17.0565 74.2033C23.1392 74.287 29.2127 73.7048 35.1676 72.467Z" fill="#C7D8F9"/>
</g>
<g style="mix-blend-mode:multiply">
<path d="M37.5094 71.936L37.0374 72.2338L36.216 72.4311L36.1079 72.2697C36.5726 72.1656 37.041 72.0508 37.5094 71.936Z" fill="#C7D8F9"/>
</g>
<g style="mix-blend-mode:multiply">
<path d="M35.3729 77.3352C29.6651 78.5373 23.8453 79.1325 18.0113 79.111H17.0385C16.5882 79.111 16.145 79.111 15.7127 79.0859C15.7127 79.0249 15.7127 78.9675 15.7127 78.9065C16.1486 78.9065 16.5918 78.928 17.0421 78.9316C23.1997 79.0198 29.3479 78.4242 35.3729 77.1558C35.3729 77.2168 35.3729 77.2778 35.3729 77.3352Z" fill="#C7D8F9"/>
</g>
<g style="mix-blend-mode:multiply">
<path d="M36.007 81.9128C30.0991 83.2111 24.0649 83.8536 18.0149 83.8285H17.0421C16.5521 83.8285 16.0658 83.8285 15.601 83.7998C15.601 83.7388 15.601 83.6814 15.601 83.6204C16.073 83.6204 16.5593 83.6456 17.0421 83.6492C23.4037 83.7455 29.7549 83.1038 35.9674 81.737L36.007 81.9128Z" fill="#C7D8F9"/>
</g>
<g style="mix-blend-mode:multiply">
<path d="M36.9041 86.4187C30.7131 87.8618 24.3732 88.5758 18.0149 88.5461H17.0421C16.4729 88.5461 15.9109 88.5281 15.3633 88.5102C15.3633 88.4492 15.3633 88.3882 15.3633 88.3308C15.9109 88.3487 16.4693 88.3595 17.0385 88.3667C23.7056 88.4697 30.3602 87.7589 36.8537 86.2501C36.8789 86.3075 36.8933 86.3649 36.9041 86.4187Z" fill="#C7D8F9"/>
</g>
</g>
<path d="M64.1517 47.4838L43.2774 53.2919C43.2038 53.3143 43.1265 53.3217 43.05 53.3136C42.9735 53.3056 42.8995 53.2823 42.8322 53.2451C42.765 53.2079 42.7059 53.1577 42.6586 53.0973C42.6113 53.0369 42.5767 52.9677 42.5568 52.8937L42.5244 52.7825L63.95 46.8201L64.1517 47.4838Z" fill="#D62D4A"/>
<path d="M63.7194 45.9484L42.2938 51.9072L42.2614 51.796C42.2395 51.7227 42.2324 51.6458 42.2408 51.5699C42.2491 51.4939 42.2725 51.4203 42.3098 51.3535C42.347 51.2866 42.3973 51.2279 42.4577 51.1807C42.518 51.1334 42.5873 51.0987 42.6613 51.0785L63.532 45.2739L63.7194 45.9484Z" fill="#F7667E"/>
<path d="M63.7256 45.9418L42.2991 51.9028L42.5444 52.7769L63.9708 46.8159L63.7256 45.9418Z" fill="#ED4F63"/>
<path d="M64.1517 47.4838L63.968 46.8201L67.0303 45.6219L67.9851 45.2488L67.0736 45.7798L64.1517 47.4838Z" fill="#DDC9AC"/>
<path d="M67.985 45.2488L66.9727 45.4138L63.723 45.9448L63.5356 45.2811L66.9258 45.256L67.985 45.2488Z" fill="#F2E4CE"/>
<path d="M63.968 46.8201L67.985 45.2488L63.723 45.9448L63.968 46.8201Z" fill="#E6D5B9"/>
<path d="M46.3397 52.4381L43.2774 53.2919C43.2038 53.3143 43.1265 53.3217 43.05 53.3136C42.9735 53.3056 42.8995 53.2823 42.8322 53.2451C42.765 53.2079 42.7059 53.1577 42.6586 53.0973C42.6113 53.0369 42.5767 52.9677 42.5568 52.8937L42.247 51.796C42.2251 51.7227 42.218 51.6458 42.2264 51.5699C42.2347 51.4939 42.2581 51.4203 42.2954 51.3535C42.3326 51.2866 42.3829 51.2279 42.4433 51.1807C42.5036 51.1334 42.5729 51.0987 42.6469 51.0785L45.7056 50.2282L46.3397 52.4381Z" fill="#1A004D"/>
<path d="M44.7869 52.8722L43.2774 53.2919C43.2038 53.3143 43.1265 53.3217 43.05 53.3136C42.9735 53.3056 42.8995 53.2823 42.8322 53.2451C42.765 53.2079 42.7059 53.1577 42.6586 53.0973C42.6113 53.0369 42.5767 52.9677 42.5568 52.8937L42.5244 52.7825L44.5852 52.2085L44.7869 52.8722Z" fill="#D62D4A"/>
<path d="M44.3546 51.3332L42.2938 51.9072L42.2614 51.796C42.2395 51.7227 42.2324 51.6458 42.2408 51.5699C42.2491 51.4939 42.2725 51.4203 42.3098 51.3535C42.347 51.2866 42.3973 51.2279 42.4577 51.1807C42.518 51.1334 42.5873 51.0987 42.6613 51.0785L44.1672 50.6587L44.3546 51.3332Z" fill="#F7667E"/>
<path d="M44.3603 51.328L42.2992 51.9014L42.5445 52.7756L44.6056 52.2022L44.3603 51.328Z" fill="#ED4F63"/>
<path d="M67.0736 45.7798L66.9258 45.256L67.9851 45.2488L67.0736 45.7798Z" fill="#1A004D"/>
<path d="M51.1314 54.0202L50.7711 54.2893L50.4973 53.3206L50.1082 51.6238C50.0096 51.1891 50.0195 50.7371 50.137 50.3072L51.1062 48.5852C51.1062 48.5852 51.6898 48.413 51.4052 49.5C51.3782 49.87 51.4477 50.2408 51.6069 50.5762L52.0285 49.5466L53.0372 47.2614C53.3435 46.6336 56.2797 47.9789 56.2041 49.2955V49.9951C56.0599 50.9529 56.132 51.7206 55.6276 52.5457L54.0604 54.6767L51.1314 54.0202Z" fill="#EFC0C1"/>
<path d="M35.0127 37.0335C34.7785 37.8479 34.4362 38.0739 34.1192 38.8272C33.1212 41.1806 32.7141 43.8067 32.1845 46.3286C31.6549 48.8506 30.3291 51.3009 30.1345 53.8946C30.1027 54.3633 30.1257 54.834 30.203 55.2973C30.4227 56.6785 30.729 58.1027 30.9235 59.5126C31.4387 62.953 31.3919 66.3288 28.1854 68.7719C25.9373 70.4903 22.1112 72.2733 19.3551 70.7629C18.1518 70.1064 17.3664 68.9154 16.1919 68.2266C14.8523 67.4371 13.3166 67.0392 11.7605 67.0786C11.0399 67.1037 10.341 67.2293 9.62765 67.2006C7.60651 67.1217 6.74545 65.4678 6.43201 63.6848C6.32451 63.0931 6.27504 62.4924 6.2843 61.8911C6.28963 60.594 6.60199 59.3164 7.19604 58.1621C7.79008 57.0077 8.64908 56.009 9.70331 55.2471C10.7085 54.5296 11.8866 53.8552 12.4522 52.6928C13.0755 51.4193 12.4522 50.0022 12.2505 48.7036C11.9766 47.0569 12.5171 45.2703 13.9149 44.291C15.6551 43.0748 17.4312 42.6802 18.4364 40.6174C19.3515 38.7411 19.4055 36.5528 20.4323 34.7196C21.4654 32.9721 23.148 31.7001 25.1159 31.1787C28.398 30.3823 34.3894 31.5662 35.0235 35.62C35.1083 36.0878 35.1046 36.5671 35.0127 37.0335Z" fill="#5A7DFC"/>
<g style="mix-blend-mode:multiply" opacity="0.3">
<path d="M28.2034 68.7719C25.9553 70.4903 22.1292 72.2733 19.3731 70.7629C18.1698 70.1064 17.3844 68.9154 16.2099 68.2266C14.8704 67.4371 13.3346 67.0392 11.7785 67.0786C11.0579 67.1037 10.359 67.2293 9.64566 67.2006C7.62451 67.1217 6.76346 65.4678 6.45002 63.6848C6.34252 63.0931 6.29304 62.4924 6.3023 61.8911C6.87874 63.8571 7.992 66.2355 11.9154 65.6508C18.2923 64.7037 18.9336 65.2131 21.6825 66.8347C24.0531 68.2338 29.5689 67.5127 30.9415 59.5126C31.4567 62.953 31.4099 66.3181 28.2034 68.7719Z" fill="#ED4F63"/>
</g>
<path d="M135.353 119.022H11.4543V120.539H135.353V119.022Z" fill="#5A7DFC"/>
<path d="M33.1212 11.5445L32.57 23.6486L19.7154 23.071L20.4395 7.09244L29.4068 7.49423L33.1212 11.5445Z" fill="#C7D8F9"/>
<path d="M29.2302 11.3687L33.1212 11.5445L29.4068 7.49423L29.2302 11.3687Z" fill="white"/>
<path d="M30.7337 15.3784L22.2291 14.9954L22.1933 15.7838L30.6979 16.1669L30.7337 15.3784Z" fill="white"/>
<path d="M30.8351 13.1431L22.3305 12.76L22.2947 13.5485L30.7993 13.9315L30.8351 13.1431Z" fill="white"/>
<path d="M30.636 17.6138L22.1314 17.2307L22.0956 18.0192L30.6002 18.4022L30.636 17.6138Z" fill="white"/>
<path d="M30.5309 19.8526L22.0263 19.4695L21.9905 20.2579L30.4951 20.641L30.5309 19.8526Z" fill="white"/>
<path d="M143.438 32.2837L145.235 44.2658L132.507 46.1564L130.136 30.3393L139.013 29.0191L143.438 32.2837Z" fill="#C7D8F9"/>
<path d="M139.586 32.8541L143.438 32.2837L139.013 29.0191L139.586 32.8541Z" fill="white"/>
<path d="M141.839 36.4909L133.419 37.7425L133.536 38.5231L141.956 37.2715L141.839 36.4909Z" fill="white"/>
<path d="M141.507 34.2787L133.087 35.5302L133.204 36.3108L141.624 35.0593L141.507 34.2787Z" fill="white"/>
<path d="M142.17 38.7068L133.75 39.9583L133.867 40.7389L142.287 39.4873L142.17 38.7068Z" fill="white"/>
<path d="M142.502 40.919L134.082 42.1705L134.199 42.9511L142.619 41.6996L142.502 40.919Z" fill="white"/>
<path d="M119.627 95.3479L120.747 95.2044L119.713 95.8214C120.12 97.6705 120.97 99.3939 122.192 100.844C122.606 101.3 124.188 100.245 124.483 99.9757C125.64 98.9425 126.177 97.4286 126.681 96.008C127.297 94.2752 127.877 92.5281 128.616 90.842C129.203 89.4931 129.862 88.1729 130.504 86.8528L129.949 85.2133L131.339 85.0698C131.476 84.7792 131.602 84.485 131.729 84.1908C132.298 82.8707 132.842 81.5433 133.343 80.1944C133.098 80.2841 126.591 82.7056 122.653 86.7738L123.168 87.5989L121.67 87.8931C121.18 88.499 120.762 89.1586 120.423 89.8591C119.597 91.5635 119.319 93.4803 119.627 95.3479V95.3479Z" fill="#C7D8F9"/>
<path d="M106.005 91.6133C106.138 91.7748 106.257 91.9398 106.387 92.1084C107.592 93.8044 108.916 95.4132 110.35 96.9228L111.07 96.4564C111.07 96.4564 110.829 96.93 110.681 97.2492C111.937 98.5537 113.268 99.7851 114.666 100.937C115.059 101.28 115.5 101.565 115.974 101.784L116.557 101.167C116.557 101.167 116.557 101.612 116.557 101.967C116.772 102.003 116.991 102.003 117.206 101.967C117.501 101.927 118.561 101.719 118.708 101.432C119.096 100.415 119.18 99.3072 118.95 98.2431C118.721 97.179 118.188 96.2036 117.415 95.434C117.132 95.1452 116.819 94.8867 116.482 94.6627L116.028 95.2474L115.26 93.9918C114.542 93.6675 113.805 93.3871 113.052 93.1524C111.416 92.6293 109.743 92.2264 108.048 91.947C107.37 91.8142 106.686 91.7138 106.005 91.6133Z" fill="#C7D8F9"/>
<path d="M125.762 103.613C127.603 104.399 129.761 103.7 131.711 102.537C131.455 102.01 130.94 100.969 130.893 100.905C130.846 100.84 131.844 101.622 132.42 102.092C134.262 100.824 135.944 99.3389 137.428 97.669C137.428 97.669 130.057 97.2026 127.315 98.6161C127.058 98.7462 126.816 98.9051 126.595 99.0896L126.836 99.6493L126.22 99.4914C124.945 101.145 125.762 103.613 125.762 103.613Z" fill="#C7D8F9"/>
<path d="M122.387 108.984C122.387 108.984 119.836 93.199 129.135 84.277" stroke="#A3B5D9" stroke-width="0.93" stroke-miterlimit="10"/>
<path d="M122.034 111.233C122.034 111.233 121.118 98.8349 110.699 94.6376" stroke="#A3B5D9" stroke-width="0.93" stroke-miterlimit="10"/>
<path d="M122.534 108.13C122.534 108.13 126.688 100.288 133.054 98.8421" stroke="#A3B5D9" stroke-width="0.93" stroke-miterlimit="10"/>
<path d="M115.61 107.592L118.741 118.839H125.276L128.385 107.664C128.386 107.651 128.386 107.637 128.385 107.624V107.592H115.61Z" fill="#A3B5D9"/>
<path d="M89.7745 92.7685H69.7216C69.1127 92.7685 68.6191 93.26 68.6191 93.8663V106.623C68.6191 107.23 69.1127 107.721 69.7216 107.721H89.7745C90.3834 107.721 90.877 107.23 90.877 106.623V93.8663C90.877 93.26 90.3834 92.7685 89.7745 92.7685Z" fill="#C7D8F9"/>
<path d="M71.8688 97.0627V104.564L76.3434 100.693L71.8688 97.0627Z" fill="white"/>
<path d="M79.7372 103.445L76.8334 101.091L72.2291 105.07H87.2598L82.6483 101.088L79.7372 103.445Z" fill="white"/>
<path d="M87.6272 104.568V97.0555L83.1382 100.693L87.6272 104.568Z" fill="white"/>
<path d="M87.5408 95.4268H71.9517C71.9403 95.4268 71.9291 95.4291 71.9186 95.4334C71.9081 95.4377 71.8986 95.444 71.8905 95.452C71.8825 95.46 71.8761 95.4695 71.8718 95.48C71.8674 95.4904 71.8652 95.5016 71.8652 95.5129V96.2699L76.502 100.033L79.7444 102.656L82.6699 100.288L87.6128 96.2591V95.5058C87.6122 95.4862 87.6045 95.4676 87.5913 95.4531C87.5782 95.4387 87.5602 95.4294 87.5408 95.4268V95.4268Z" fill="white"/>
<path d="M120.592 0H82.306C81.4902 0 80.8289 0.658528 80.8289 1.47086V12.305C80.8289 13.1174 81.4902 13.7759 82.306 13.7759H120.592C121.408 13.7759 122.07 13.1174 122.07 12.305V1.47086C122.07 0.658528 121.408 0 120.592 0Z" fill="#C7D8F9"/>
<path d="M92.4766 2.00899H83.7327C83.4402 2.00899 83.2031 2.24509 83.2031 2.53635V11.2431C83.2031 11.5344 83.4402 11.7705 83.7327 11.7705H92.4766C92.769 11.7705 93.0062 11.5344 93.0062 11.2431V2.53635C93.0062 2.24509 92.769 2.00899 92.4766 2.00899Z" fill="white"/>
<path d="M88.3983 3.63052H87.8074C87.5468 3.63052 87.3354 3.84093 87.3354 4.10048V9.67542C87.3354 9.93497 87.5468 10.1454 87.8074 10.1454H88.3983C88.6589 10.1454 88.8702 9.93497 88.8702 9.67542V4.10048C88.8702 3.84093 88.6589 3.63052 88.3983 3.63052Z" fill="#ED4F63"/>
<path d="M91.3741 7.18212V6.59378C91.3741 6.33423 91.1628 6.12383 90.9022 6.12383H85.3035C85.0429 6.12383 84.8315 6.33423 84.8315 6.59378V7.18212C84.8315 7.44167 85.0429 7.65208 85.3035 7.65208H90.9022C91.1628 7.65208 91.3741 7.44167 91.3741 7.18212Z" fill="#ED4F63"/>
<path d="M97.2502 5.84041V8.35164H96.8179L95.8451 6.9884V8.35164H95.2723V5.84041H95.7046L96.6738 7.20365V5.84041H97.2502Z" fill="white"/>
<path d="M99.2678 7.79917V8.35164H97.7006V5.84041H99.2642V6.39288H98.2734V6.8162H99.1741V7.3615H98.2734V7.80635L99.2678 7.79917Z" fill="white"/>
<path d="M99.4155 5.84041H100.021L100.453 7.59827L100.939 5.84041H101.408L101.894 7.59827L102.33 5.84041H102.935L102.24 8.35164H101.584L101.174 6.87001L100.763 8.35164H100.107L99.4155 5.84041Z" fill="white"/>
<path d="M103.984 7.09602C103.979 6.92364 104.01 6.75215 104.074 6.59196C104.138 6.43177 104.234 6.28621 104.357 6.1641C104.479 6.042 104.625 5.9459 104.786 5.88162C104.946 5.81735 105.118 5.78624 105.292 5.79018C105.507 5.78693 105.719 5.83865 105.908 5.9404C106.097 6.04215 106.257 6.19053 106.372 6.37135L105.875 6.65835C105.814 6.55982 105.728 6.47926 105.626 6.42502C105.523 6.37078 105.408 6.34482 105.292 6.34983C105.093 6.34983 104.902 6.42844 104.762 6.56838C104.621 6.70832 104.542 6.89812 104.542 7.09602C104.542 7.29393 104.621 7.48372 104.762 7.62366C104.902 7.7636 105.093 7.84222 105.292 7.84222C105.408 7.8476 105.523 7.82181 105.626 7.76753C105.728 7.71325 105.815 7.63249 105.875 7.53369L106.372 7.82069C106.258 8.002 106.098 8.15076 105.909 8.25257C105.719 8.35439 105.507 8.40581 105.292 8.40186C105.118 8.40581 104.946 8.3747 104.786 8.31042C104.625 8.24615 104.479 8.15004 104.357 8.02794C104.234 7.90584 104.138 7.76028 104.074 7.60009C104.01 7.43989 103.979 7.26841 103.984 7.09602V7.09602Z" fill="white"/>
<path d="M106.502 7.09603C106.502 6.8376 106.579 6.58499 106.723 6.37017C106.868 6.15535 107.073 5.98798 107.312 5.88925C107.552 5.79052 107.816 5.76487 108.071 5.81555C108.325 5.86623 108.559 5.99095 108.742 6.17393C108.925 6.35692 109.05 6.58993 109.1 6.84348C109.15 7.09702 109.124 7.35969 109.024 7.59824C108.924 7.83679 108.756 8.04049 108.539 8.18354C108.323 8.3266 108.069 8.40258 107.81 8.40187C107.638 8.40282 107.467 8.36968 107.307 8.30434C107.148 8.23901 107.003 8.14281 106.882 8.02131C106.76 7.89981 106.664 7.75545 106.599 7.5966C106.533 7.43776 106.501 7.26761 106.502 7.09603ZM108.545 7.09603C108.539 6.95548 108.492 6.81969 108.41 6.70553C108.327 6.59137 108.213 6.50389 108.081 6.45396C107.949 6.40403 107.805 6.39385 107.667 6.42469C107.529 6.45553 107.403 6.52603 107.305 6.62743C107.208 6.72882 107.142 6.85663 107.116 6.99497C107.091 7.13331 107.107 7.27608 107.162 7.40552C107.217 7.53496 107.309 7.64537 107.427 7.72301C107.545 7.80065 107.683 7.84211 107.824 7.84222C107.921 7.8423 108.018 7.82284 108.107 7.785C108.196 7.74716 108.277 7.69172 108.344 7.62203C108.412 7.55233 108.464 7.46981 108.499 7.37942C108.533 7.28903 108.549 7.19264 108.545 7.09603Z" fill="white"/>
<path d="M111.427 5.84041V8.35164H110.995L110.022 6.9884V8.35164H109.449V5.84041H109.881L110.851 7.20365V5.84041H111.427Z" fill="white"/>
<path d="M113.553 6.39288H112.904V8.35164H112.328V6.39288H111.683V5.84041H113.553V6.39288Z" fill="white"/>
<path d="M115.39 7.79917V8.35164H113.808V5.84041H115.372V6.39288H114.381V6.8162H115.282V7.3615H114.381V7.80635L115.39 7.79917Z" fill="white"/>
<path d="M117.696 5.84041V8.35164H117.264L116.291 6.9884V8.35164H115.714V5.84041H116.143L117.116 7.20365V5.84041H117.696Z" fill="white"/>
<path d="M119.821 6.39288H119.173V8.35164H118.597V6.39288H117.952V5.84041H119.821V6.39288Z" fill="white"/>
<path d="M138.812 61.4176C139.749 61.4176 140.508 60.6611 140.508 59.7279C140.508 58.7947 139.749 58.0382 138.812 58.0382C137.874 58.0382 137.115 58.7947 137.115 59.7279C137.115 60.6611 137.874 61.4176 138.812 61.4176Z" fill="#E8F0FE"/>
<path d="M6.36715 42.1062C7.30432 42.1062 8.06405 41.3497 8.06405 40.4165C8.06405 39.4833 7.30432 38.7268 6.36715 38.7268C5.42998 38.7268 4.67026 39.4833 4.67026 40.4165C4.67026 41.3497 5.42998 42.1062 6.36715 42.1062Z" fill="#E8F0FE"/>
<path d="M72.1534 97.9022C72.9812 97.9022 73.6522 97.234 73.6522 96.4098C73.6522 95.5856 72.9812 94.9174 72.1534 94.9174C71.3257 94.9174 70.6547 95.5856 70.6547 96.4098C70.6547 97.234 71.3257 97.9022 72.1534 97.9022Z" fill="#F7667E"/>
</g>
</svg>
