<svg width="26" height="26" viewBox="0 0 26 26" fill="none" xmlns="http://www.w3.org/2000/svg">
<g clip-path="url(#clip0_314_1839)">
<path d="M25.2383 1.52344H9.90234C9.48141 1.52344 9.14062 1.86403 9.14062 2.28516C9.14062 2.70609 9.48141 3.04688 9.90234 3.04688H25.2383C25.6592 3.04688 26 2.70609 26 2.28516C26 1.86403 25.6592 1.52344 25.2383 1.52344Z" fill="#5A7DFC"/>
<path d="M9.90234 6.09375H17.5703C17.9912 6.09375 18.332 5.75296 18.332 5.33203C18.332 4.9109 17.9912 4.57031 17.5703 4.57031H9.90234C9.48141 4.57031 9.14062 4.9109 9.14062 5.33203C9.14062 5.75296 9.48141 6.09375 9.90234 6.09375Z" fill="#5A7DFC"/>
<path d="M9.90234 15.2852H17.5703C17.9912 15.2852 18.332 14.9444 18.332 14.5234C18.332 14.1023 17.9912 13.7617 17.5703 13.7617H9.90234C9.48141 13.7617 9.14062 14.1023 9.14062 14.5234C9.14062 14.9444 9.48141 15.2852 9.90234 15.2852Z" fill="#5A7DFC"/>
<path d="M17.5703 24.4766C17.9912 24.4766 18.332 24.1358 18.332 23.7148C18.332 23.2937 17.9912 22.9531 17.5703 22.9531H9.90234C9.48141 22.9531 9.14062 23.2937 9.14062 23.7148C9.14062 24.1358 9.48141 24.4766 9.90234 24.4766H17.5703Z" fill="#5A7DFC"/>
<path d="M25.2383 10.7148H9.90234C9.48141 10.7148 9.14062 11.0554 9.14062 11.4766C9.14062 11.8975 9.48141 12.2383 9.90234 12.2383H25.2383C25.6592 12.2383 26 11.8975 26 11.4766C26 11.0554 25.6592 10.7148 25.2383 10.7148Z" fill="#5A7DFC"/>
<path d="M25.2383 19.9062H9.90234C9.48141 19.9062 9.14062 20.2468 9.14062 20.668C9.14062 21.0889 9.48141 21.4297 9.90234 21.4297H25.2383C25.6592 21.4297 26 21.0889 26 20.668C26 20.2468 25.6592 19.9062 25.2383 19.9062Z" fill="#5A7DFC"/>
<path d="M7.19626 6.01341C7.45433 5.88388 7.61719 5.62065 7.61719 5.33203V2.28516C7.61719 1.99654 7.45433 1.73311 7.19626 1.60378L4.14938 0.0803375C3.93495 -0.0267792 3.68224 -0.0267792 3.4678 0.0803375L0.420929 1.60378C0.162857 1.73311 0 1.99654 0 2.28516V5.33203C0 5.62065 0.162857 5.88388 0.420929 6.01341L3.04688 7.32639V9.48221L0.420929 10.7952C0.162857 10.9245 0 11.1879 0 11.4766V14.5234C0 14.8121 0.162857 15.0753 0.420929 15.2048L3.04688 16.5178V18.6736L0.420929 19.9866C0.162857 20.1159 0 20.3793 0 20.668V23.7148C0 24.0035 0.162857 24.2667 0.420929 24.3962L3.4678 25.9197C3.57492 25.9732 3.69176 26 3.80859 26C3.92543 26 4.04227 25.9732 4.14938 25.9197L7.19626 24.3962C7.45433 24.2667 7.61719 24.0035 7.61719 23.7148V20.668C7.61719 20.3793 7.45433 20.1159 7.19626 19.9866L4.57031 18.6736V16.5178L7.19626 15.2048C7.45433 15.0753 7.61719 14.8121 7.61719 14.5234V11.4766C7.61719 11.1879 7.45433 10.9245 7.19626 10.7952L4.57031 9.48221V7.32639L7.19626 6.01341ZM3.80721 22.9531C3.38647 22.9531 3.04549 22.6121 3.04549 22.1914C3.04549 21.7707 3.38647 21.4297 3.80721 21.4297C4.22794 21.4297 4.56892 21.7707 4.56892 22.1914C4.56892 22.6121 4.22794 22.9531 3.80721 22.9531ZM3.80721 13.7617C3.38647 13.7617 3.04549 13.4207 3.04549 13C3.04549 12.5793 3.38647 12.2383 3.80721 12.2383C4.22794 12.2383 4.56892 12.5793 4.56892 13C4.56892 13.4207 4.22794 13.7617 3.80721 13.7617ZM3.80721 4.57031C3.38647 4.57031 3.04549 4.22932 3.04549 3.80859C3.04549 3.38786 3.38647 3.04688 3.80721 3.04688C4.22794 3.04688 4.56892 3.38786 4.56892 3.80859C4.56892 4.22932 4.22794 4.57031 3.80721 4.57031Z" fill="#5A7DFC"/>
</g>
<defs>
<clipPath id="clip0_314_1839">
<rect width="26" height="26" fill="white"/>
</clipPath>
</defs>
</svg>
