<svg width="180" height="118" viewBox="0 0 180 118" fill="none" xmlns="http://www.w3.org/2000/svg">
<path d="M167.048 44.6586C159.185 31.0843 147.861 19.7858 134.282 11.9679C121.106 4.36412 105.81 0 89.5216 0C73.2059 0 57.9368 4.36412 44.7608 11.9679C31.1823 19.8126 19.8579 31.1111 11.9953 44.6586C4.37411 57.7778 0 73.0388 0 89.3173H31.9068C31.9068 78.8487 34.7245 69.0495 39.6353 60.589C44.6803 51.8608 51.9794 44.6051 60.7008 39.5716C69.1807 34.672 79.0023 31.8608 89.4948 31.8608C99.9873 31.8608 109.809 34.672 118.289 39.5716C127.037 44.6051 134.309 51.8875 139.354 60.589C144.265 69.0495 147.083 78.8487 147.083 89.3173H178.99C179.016 73.0388 174.669 57.7778 167.048 44.6586Z" fill="white"/>
<path d="M118.316 39.5449L134.282 11.9411C121.106 4.36412 105.81 0 89.5216 0V31.834C100.014 31.834 109.836 34.672 118.316 39.5449Z" fill="#F7B11E"/>
<path d="M60.7277 39.5449L44.7608 11.9679C31.1823 19.8126 19.8579 31.1111 11.9953 44.6586L39.6622 60.589C44.7071 51.8608 51.9794 44.6051 60.7277 39.5449Z" fill="#FDEB48"/>
<path d="M89.5216 31.834V0C73.2059 0 57.9368 4.36412 44.7608 11.9679L60.7276 39.5716C69.1807 34.672 79.0291 31.834 89.5216 31.834Z" fill="#FED137"/>
<path d="M139.381 60.589L167.048 44.6586C159.185 31.0843 147.861 19.7858 134.282 11.9679L118.316 39.5716C127.037 44.6051 134.336 51.8608 139.381 60.589Z" fill="#F26D24"/>
<path d="M147.11 89.3173H179.016C179.016 73.0388 174.642 57.8045 167.021 44.6586L139.354 60.589C144.292 69.0228 147.11 78.8487 147.11 89.3173Z" fill="#D72626"/>
<path d="M31.9068 89.3173C31.9068 78.8487 34.7245 69.0495 39.6353 60.589L11.9953 44.6586C4.37411 57.7778 0 73.0388 0 89.3173H31.9068Z" fill="#99C817"/>
<path d="M11.9953 48.2195C19.8311 34.672 31.1555 23.3735 44.7608 15.5288C57.9368 7.92503 73.2059 3.56091 89.5216 3.56091C105.837 3.56091 121.106 7.92503 134.282 15.5288C147.861 23.3735 159.185 34.672 167.048 48.2195C174.106 60.3748 178.372 74.3775 178.963 89.2905H179.043C179.043 73.012 174.669 57.7778 167.048 44.6319C159.185 31.0843 147.861 19.7858 134.282 11.9679C121.106 4.36412 105.81 0 89.5216 0C73.2059 0 57.9368 4.36412 44.7608 11.9679C31.1823 19.8126 19.8579 31.1111 11.9953 44.6586C4.37411 57.7778 0 73.0388 0 89.3173H0.080505C0.670875 74.3775 4.93764 60.4016 11.9953 48.2195Z" fill="white"/>
<path d="M89.5 118C138.377 118 178 115.538 178 112.5C178 109.462 138.377 107 89.5 107C40.6228 107 1 109.462 1 112.5C1 115.538 40.6228 118 89.5 118Z" fill="url(#paint0_radial_3_2)" fill-opacity="0.5"/>
<path opacity="0.1" d="M145.285 57.4029C139.623 47.6573 131.492 39.5181 121.697 33.8688C112.224 28.407 101.222 25.2477 89.4948 25.2477C77.7679 25.2477 66.7655 28.407 57.2928 33.8688C47.5248 39.5181 39.367 47.6305 33.7048 57.4029C28.2573 66.8005 25.1176 77.6707 25.0639 89.2905H31.88C31.88 78.822 34.6977 69.0228 39.6085 60.5622C44.6535 51.834 51.9526 44.5783 60.674 39.5448C69.1538 34.6452 78.9755 31.834 89.468 31.834C99.9604 31.834 109.782 34.6452 118.262 39.5448C127.01 44.5783 134.282 51.8608 139.327 60.5622C144.238 69.0228 147.056 78.822 147.056 89.2905H153.872C153.899 77.6975 150.732 66.8005 145.285 57.4029Z" fill="#919191"/>
<defs>
<radialGradient id="paint0_radial_3_2" cx="0" cy="0" r="1" gradientUnits="userSpaceOnUse" gradientTransform="translate(89.4921 112.501) scale(82.0442 4.00289)">
<stop stop-color="#C1D6E3"/>
<stop offset="1" stop-color="white" stop-opacity="0"/>
</radialGradient>
</defs>
</svg>
