<svg width="76" height="76" viewBox="0 0 76 76" fill="none" xmlns="http://www.w3.org/2000/svg">
<g clip-path="url(#clip0_1372_17551)">
<path d="M38 76C58.9521 76 76 58.9537 76 38C76 34.3834 75.4952 30.8193 74.4955 27.406C74.0031 25.7276 72.2504 24.7635 70.5673 25.256C68.8874 25.7469 67.9264 27.5058 68.4173 29.1842C69.2453 32.02 69.6667 34.9872 69.6667 38C69.6667 55.4607 55.4607 69.6667 38 69.6667C20.5393 69.6667 6.33333 55.4607 6.33333 38C6.33333 20.5393 20.5393 6.33333 38 6.33333C44.3457 6.33333 50.451 8.1888 55.6556 11.698C57.1044 12.6759 59.0743 12.2917 60.0507 10.8429C61.0279 9.39254 60.6468 7.42419 59.1964 6.44698C52.9419 2.22966 45.6128 0 38 0C17.0479 0 0 17.0463 0 38C0 58.9537 17.0479 76 38 76Z" fill="#06C270"/>
<path d="M70.5946 7.26114L38.0002 39.854L27.5725 29.4278C26.3355 28.1916 24.3316 28.1916 23.0946 29.4278C21.8584 30.6648 21.8584 32.6687 23.0946 33.9057L35.7613 46.5723C36.3806 47.1916 37.1892 47.5001 38.0002 47.5001C38.8112 47.5001 39.6199 47.1916 40.2392 46.5723L75.0725 11.739C76.3087 10.502 76.3087 8.49812 75.0725 7.26114C73.8355 6.02493 71.8316 6.02493 70.5946 7.26114Z" fill="#06C270"/>
</g>
<defs>
<clipPath id="clip0_1372_17551">
<rect width="76" height="76" fill="white"/>
</clipPath>
</defs>
</svg>
