<svg width="45" height="45" viewBox="0 0 45 45" fill="none" xmlns="http://www.w3.org/2000/svg">
<rect width="45" height="45" rx="10" fill="url(#paint0_linear_875_10773)"/>
<path d="M25.75 26.25H24.8125C24.0703 26.6016 22.8203 26.875 22 26.875C21.1406 26.875 19.8906 26.6016 19.1484 26.25H18.25C15.4766 26.25 13.25 28.5156 13.25 31.25C13.25 31.9531 13.7969 32.5 14.5 32.5H29.5C30.1641 32.5 30.75 31.9531 30.75 31.25C30.75 28.5156 28.4844 26.25 25.75 26.25ZM15.125 21.25C15.4375 21.25 15.75 20.9766 15.75 20.625V20C15.75 16.5625 18.5234 13.75 22 13.75C25.4375 13.75 28.25 16.5625 28.25 20V20.625C28.2109 22.3828 26.8438 23.75 25.125 23.75H23.875C23.875 23.0859 23.2891 22.5 22.625 22.5H21.375C20.6719 22.5 20.125 23.0859 20.125 23.75C20.125 24.4531 20.6719 25 21.375 25H25.125C27.5078 25 29.4609 23.0469 29.5 20.625V20C29.5 15.8984 26.1016 12.5 22 12.5C17.8594 12.5 14.5 15.8984 14.5 20V20.625C14.5 20.9766 14.7734 21.25 15.125 21.25ZM21.375 21.25H22.625C23.4062 21.2891 24.3828 21.8359 24.7734 22.5H25.125C26.1406 22.5 26.9609 21.6797 27 20.625V20C27 17.2656 24.7344 15 22 15C19.2266 15 17 17.2656 17 20C17 21.6016 17.7422 22.9688 18.875 23.9062C18.875 23.8672 18.875 23.8281 18.875 23.75C18.875 22.3828 19.9688 21.2891 21.375 21.25Z" fill="white"/>
<defs>
<linearGradient id="paint0_linear_875_10773" x1="22.5" y1="0" x2="22.5" y2="45" gradientUnits="userSpaceOnUse">
<stop stop-color="#FFCA2F"/>
<stop offset="1" stop-color="#EF8E1B"/>
</linearGradient>
</defs>
</svg>
