<svg width="83" height="22" viewBox="0 0 83 22" fill="none" xmlns="http://www.w3.org/2000/svg">
<path fill-rule="evenodd" clip-rule="evenodd" d="M71.5216 21.8474C77.5684 21.8474 82.4703 16.9567 82.4703 10.9237C82.4703 4.8907 77.5684 0 71.5216 0C66.733 0 62.6624 3.06723 61.1757 7.33999L0 11.3737L61.3598 14.9978C62.9784 19.0129 66.9183 21.8474 71.5216 21.8474ZM65.035 15.2149C66.429 17.3083 68.8138 18.6881 71.5216 18.6881C75.8196 18.6881 79.3038 15.2118 79.3038 10.9237C79.3038 6.63552 75.8196 3.15929 71.5216 3.15929C68.6151 3.15929 66.0807 4.7491 64.7443 7.10469L68.0211 6.88863C68.9701 6.1004 70.1904 5.62628 71.5216 5.62628C74.545 5.62628 76.996 8.07163 76.996 11.0881C76.996 14.1046 74.545 16.55 71.5216 16.55C70.2546 16.55 69.0881 16.1205 68.1604 15.3995L65.035 15.2149Z" fill="#303030"/>
</svg>
