<svg width="16" height="11" viewBox="0 0 16 11" fill="none" xmlns="http://www.w3.org/2000/svg">
<path d="M3.5 4C3.5 3.53516 3.88281 3.125 4.375 3.125H11.375C11.8398 3.125 12.25 3.53516 12.25 4V7.5C12.25 7.99219 11.8398 8.375 11.375 8.375H4.375C3.88281 8.375 3.5 7.99219 3.5 7.5V4ZM10.9375 4.4375H4.8125V7.0625H10.9375V4.4375ZM15.75 2.25V4.4375C15.0117 4.4375 14.4375 5.03906 14.4375 5.75C14.4375 6.48828 15.0117 7.0625 15.75 7.0625V9.25C15.75 10.2344 14.957 11 14 11H1.75C0.765625 11 0 10.2344 0 9.25V7.0625C0.710938 7.0625 1.3125 6.48828 1.3125 5.75C1.3125 5.03906 0.710938 4.4375 0 4.4375V2.25C0 1.29297 0.765625 0.5 1.75 0.5H14C14.957 0.5 15.75 1.29297 15.75 2.25ZM1.3125 3.48047C2.07812 3.94531 2.625 4.79297 2.625 5.75C2.625 6.73438 2.07812 7.58203 1.3125 8.04688V9.25C1.3125 9.49609 1.50391 9.6875 1.75 9.6875H14C14.2188 9.6875 14.4375 9.49609 14.4375 9.25V8.04688C13.6445 7.58203 13.125 6.73438 13.125 5.75C13.125 4.79297 13.6445 3.94531 14.4375 3.48047V2.25C14.4375 2.03125 14.2188 1.8125 14 1.8125H1.75C1.50391 1.8125 1.3125 2.03125 1.3125 2.25V3.48047Z" fill="#5A7DFC"/>
</svg>
