<svg width="22" height="22" viewBox="0 0 22 22" fill="none" xmlns="http://www.w3.org/2000/svg">
<g clip-path="url(#clip0_995_9979)">
<path d="M10.9993 5.5C7.96581 5.5 5.50049 7.9679 5.50049 11.0014C5.50049 14.0349 7.96581 16.5002 10.9993 16.5002C14.0328 16.5002 16.5007 14.0349 16.5007 11.0014C16.5007 7.9679 14.0328 5.5 10.9993 5.5Z" fill="#FDE74C"/>
<path d="M10.9991 6.1875C13.6611 6.1875 15.8128 8.33924 15.8128 11.0012C15.8128 13.6631 13.6611 15.8123 10.9991 15.8123C8.33719 15.8123 6.18799 13.6631 6.18799 11.0012C6.18799 8.33924 8.33719 6.1875 10.9991 6.1875Z" fill="#FFBC42"/>
<path d="M10.9978 6.87305C10.8259 6.87305 10.6541 6.98748 10.6541 7.21676V7.9459C9.87296 8.10673 9.28174 8.80138 9.28174 9.6284C9.28174 10.5736 10.054 11.3465 10.9992 11.3465C11.5728 11.3465 12.0297 11.8055 12.0297 12.3791C12.0297 12.9527 11.5728 13.4097 10.9992 13.4097C10.4255 13.4097 9.96924 12.9527 9.96924 12.3791C9.95885 11.9308 9.29169 11.9308 9.28174 12.3791C9.28174 13.2061 9.87296 13.9014 10.6541 14.0623V14.7847C10.6541 15.2431 11.3416 15.2431 11.3416 14.7847V14.0629C12.124 13.9031 12.7172 13.2071 12.7172 12.3791C12.7172 11.4339 11.9443 10.659 10.9992 10.659C10.4255 10.659 9.96924 10.202 9.96924 9.6284C9.96924 9.05479 10.4255 8.59848 10.9992 8.59848C11.5728 8.59848 12.0297 9.05479 12.0297 9.6284C12.0193 10.097 12.7276 10.097 12.7172 9.6284C12.7172 8.80044 12.124 8.10502 11.3416 7.94523V7.21676C11.3416 6.98754 11.1697 6.87305 10.9978 6.87305Z" fill="#FDE74C"/>
<path d="M6.74206 1.60327C6.56436 1.68395 6.48935 1.89616 6.57691 2.07057L7.19123 3.30123C7.27373 3.46652 7.47205 3.53707 7.64038 3.46101C8.6665 3.00287 9.80222 2.75067 11 2.75067C15.5604 2.75067 19.2493 6.43959 19.2493 11C19.2493 12.7155 18.7213 14.3009 17.826 15.6211L16.7424 14.5369C16.6683 14.4627 16.5645 14.4263 16.4604 14.4381C16.2867 14.4582 16.1558 14.6056 16.1562 14.7805V18.5618C16.1555 18.7516 16.3088 18.9061 16.4987 18.9069H20.2792C20.5881 18.9095 20.7431 18.5347 20.523 18.3181L19.3044 17.0995C20.5616 15.3904 21.3125 13.2827 21.3125 11C21.3125 5.30859 16.6914 0.687487 11 0.6875C9.48301 0.687526 8.0402 1.0141 6.74206 1.60327ZM1.71741 3.09307C1.41172 3.09319 1.25822 3.46236 1.47369 3.6792L2.69294 4.89844C1.43556 6.6077 0.6875 8.71688 0.6875 11C0.6875 16.6914 5.30864 21.3125 11 21.3125C12.517 21.3125 13.9598 20.9832 15.2579 20.394C15.4354 20.3131 15.51 20.101 15.4224 19.9268L14.8061 18.6961C14.7237 18.5323 14.5272 18.462 14.3596 18.5363C13.3335 18.9945 12.1978 19.2493 11 19.2493C6.43958 19.2493 2.75068 15.5604 2.75068 11C2.75068 9.28505 3.2756 7.69787 4.16997 6.37754L5.25762 7.46245C5.47446 7.67794 5.84363 7.52446 5.84375 7.21877V3.43818C5.84447 3.24728 5.68955 3.09235 5.49865 3.09307H1.71741Z" fill="#33B9EF"/>
</g>
<defs>
<clipPath id="clip0_995_9979">
<rect width="22" height="22" fill="white"/>
</clipPath>
</defs>
</svg>
