<svg width="22" height="22" viewBox="0 0 22 22" fill="none" xmlns="http://www.w3.org/2000/svg">
<path d="M22 17.2857C22 18.0039 21.4178 18.5862 20.6996 18.5862H1.30045C0.582227 18.5862 0 18.0039 0 17.2857V4.71456C0 3.99629 0.582227 3.41406 1.30045 3.41406H20.6996C21.4178 3.41406 22 3.99633 22 4.71456V17.2857Z" fill="white"/>
<path d="M4.88288 11.0872L4.36631 8.60919C4.27801 8.26746 4.02106 8.16579 3.7 8.15234H1.33164L1.31055 8.26557C3.15515 8.71274 4.37568 9.79152 4.88288 11.0872Z" fill="#F79F1A"/>
<path d="M10.3707 8.20312H8.84048L7.88477 13.8117H9.41248L10.3707 8.20312Z" fill="#059BBF"/>
<path d="M5.81582 13.8062L8.2225 8.20703H6.60296L5.1058 12.0325L4.946 11.4549C4.65252 10.76 3.81377 9.75992 2.8291 9.13034L4.19766 13.8081L5.81582 13.8062Z" fill="#059BBF"/>
<path d="M14.7352 11.9785C14.7408 11.3418 14.332 10.8561 13.4509 10.4549C12.9155 10.1958 12.5892 10.0231 12.5931 9.76013C12.5931 9.52784 12.8695 9.27832 13.4683 9.27832C13.9693 9.27063 14.3301 9.38003 14.6123 9.49329L14.7505 9.55667L14.9579 8.34164C14.6546 8.22834 14.1804 8.10742 13.5874 8.10742C12.0768 8.10742 11.0134 8.86758 11.0038 9.95783C10.9942 10.7641 11.764 11.2132 12.3436 11.4819C12.9386 11.7558 13.1382 11.931 13.1344 12.1767C13.1306 12.5524 12.6602 12.7237 12.2207 12.7237C11.6084 12.7237 11.284 12.6393 10.7809 12.4297L10.5854 12.3399L10.3706 13.5967C10.7274 13.7526 11.3876 13.8889 12.0729 13.8946C13.6794 13.8946 14.7236 13.1441 14.7352 11.9785Z" fill="#059BBF"/>
<path d="M16.553 12.9711C16.7277 12.9711 18.2882 12.9731 18.511 12.9731C18.557 13.1684 18.6971 13.8137 18.6971 13.8137H20.1156L18.8775 8.20898H17.6971C17.3304 8.20898 17.058 8.3088 16.8967 8.67343L14.626 13.8137H16.2327C16.2325 13.8137 16.4935 13.1228 16.553 12.9711ZM17.601 10.2551C17.5934 10.2704 17.7278 9.9307 17.8045 9.71955L17.9081 10.2032C17.9081 10.2032 18.2 11.5431 18.2613 11.8233H16.9926C17.1193 11.5009 17.601 10.2551 17.601 10.2551Z" fill="#059BBF"/>
<path d="M20.6996 3.41406H1.30045C0.582227 3.41406 0 3.99629 0 4.71456V6.06429H22V4.71456C22 3.99629 21.4178 3.41406 20.6996 3.41406Z" fill="#059BBF"/>
<path d="M20.6996 18.5858H1.30045C0.582227 18.5858 0 18.0035 0 17.2853V15.9355H22V17.2853C22 18.0035 21.4178 18.5858 20.6996 18.5858Z" fill="#F79F1A"/>
<path opacity="0.15" d="M0.924559 17.2857V4.71456C0.924559 3.99629 1.50683 3.41406 2.22509 3.41406H1.30041C0.582227 3.41406 0 3.99629 0 4.71456V17.2857C0 18.004 0.582227 18.5862 1.30045 18.5862H2.22514C1.50687 18.5862 0.924559 18.0039 0.924559 17.2857Z" fill="#202121"/>
</svg>
